<?xml version="1.0" encoding="UTF-8" standalone="no"?>
<!DOCTYPE svg PUBLIC "-//W3C//DTD SVG 1.1//EN"
 "http://www.w3.org/Graphics/SVG/1.1/DTD/svg11.dtd">
<!-- Generated by graphviz version 2.40.1 (20161225.0304)
 -->
<!-- Title: dependency&#45;cruiser output Pages: 1 -->
<svg width="934pt" height="1394pt"
 viewBox="0.00 0.00 934.06 1394.03" xmlns="http://www.w3.org/2000/svg" xmlns:xlink="http://www.w3.org/1999/xlink">
<g id="graph0" class="graph" transform="scale(1 1) rotate(0) translate(4 1390.0314)">
<title>dependency&#45;cruiser output</title>
<polygon fill="#ffffff" stroke="transparent" points="-4,4 -4,-1390.0314 930.0598,-1390.0314 930.0598,4 -4,4"/>
<g id="clust1" class="cluster">
<title>cluster_@devoinc</title>
<path fill="#ffffff" stroke="#000000" stroke-width="2" d="M854.5511,-167.0314C854.5511,-167.0314 906.0598,-167.0314 906.0598,-167.0314 912.0598,-167.0314 918.0598,-173.0314 918.0598,-179.0314 918.0598,-179.0314 918.0598,-208.0314 918.0598,-208.0314 918.0598,-214.0314 912.0598,-220.0314 906.0598,-220.0314 906.0598,-220.0314 854.5511,-220.0314 854.5511,-220.0314 848.5511,-220.0314 842.5511,-214.0314 842.5511,-208.0314 842.5511,-208.0314 842.5511,-179.0314 842.5511,-179.0314 842.5511,-173.0314 848.5511,-167.0314 854.5511,-167.0314"/>
<text text-anchor="middle" x="880.3055" y="-207.9314" font-family="Helvetica,sans-Serif" font-weight="bold" font-size="9.00" fill="#000000">@devoinc</text>
</g>
<g id="clust2" class="cluster">
<title>cluster_node_modules</title>
<path fill="#ffffff" stroke="#000000" stroke-width="2" d="M485.7759,-290.0314C485.7759,-290.0314 567.2877,-290.0314 567.2877,-290.0314 573.2877,-290.0314 579.2877,-296.0314 579.2877,-302.0314 579.2877,-302.0314 579.2877,-366.0314 579.2877,-366.0314 579.2877,-372.0314 573.2877,-378.0314 567.2877,-378.0314 567.2877,-378.0314 485.7759,-378.0314 485.7759,-378.0314 479.7759,-378.0314 473.7759,-372.0314 473.7759,-366.0314 473.7759,-366.0314 473.7759,-302.0314 473.7759,-302.0314 473.7759,-296.0314 479.7759,-290.0314 485.7759,-290.0314"/>
<text text-anchor="middle" x="526.5318" y="-365.9314" font-family="Helvetica,sans-Serif" font-weight="bold" font-size="9.00" fill="#000000">node_modules</text>
</g>
<g id="clust3" class="cluster">
<title>cluster_node_modules/@devoinc</title>
<path fill="#ffffff" stroke="#000000" stroke-width="2" d="M493.7759,-298.0314C493.7759,-298.0314 559.2877,-298.0314 559.2877,-298.0314 565.2877,-298.0314 571.2877,-304.0314 571.2877,-310.0314 571.2877,-310.0314 571.2877,-339.0314 571.2877,-339.0314 571.2877,-345.0314 565.2877,-351.0314 559.2877,-351.0314 559.2877,-351.0314 493.7759,-351.0314 493.7759,-351.0314 487.7759,-351.0314 481.7759,-345.0314 481.7759,-339.0314 481.7759,-339.0314 481.7759,-310.0314 481.7759,-310.0314 481.7759,-304.0314 487.7759,-298.0314 493.7759,-298.0314"/>
<text text-anchor="middle" x="526.5318" y="-338.9314" font-family="Helvetica,sans-Serif" font-weight="bold" font-size="9.00" fill="#000000">@devoinc</text>
</g>
<g id="clust4" class="cluster">
<title>cluster_src</title>
<path fill="#ffffff" stroke="#000000" stroke-width="2" d="M20,-386.0314C20,-386.0314 822.5511,-386.0314 822.5511,-386.0314 828.5511,-386.0314 834.5511,-392.0314 834.5511,-398.0314 834.5511,-398.0314 834.5511,-1366.0314 834.5511,-1366.0314 834.5511,-1372.0314 828.5511,-1378.0314 822.5511,-1378.0314 822.5511,-1378.0314 20,-1378.0314 20,-1378.0314 14,-1378.0314 8,-1372.0314 8,-1366.0314 8,-1366.0314 8,-398.0314 8,-398.0314 8,-392.0314 14,-386.0314 20,-386.0314"/>
<text text-anchor="middle" x="421.2756" y="-1365.9314" font-family="Helvetica,sans-Serif" font-weight="bold" font-size="9.00" fill="#000000">src</text>
</g>
<g id="clust5" class="cluster">
<title>cluster_src/components</title>
<path fill="#ffffff" stroke="#000000" stroke-width="2" d="M90,-394.0314C90,-394.0314 814.5511,-394.0314 814.5511,-394.0314 820.5511,-394.0314 826.5511,-400.0314 826.5511,-406.0314 826.5511,-406.0314 826.5511,-1278.0314 826.5511,-1278.0314 826.5511,-1284.0314 820.5511,-1290.0314 814.5511,-1290.0314 814.5511,-1290.0314 90,-1290.0314 90,-1290.0314 84,-1290.0314 78,-1284.0314 78,-1278.0314 78,-1278.0314 78,-406.0314 78,-406.0314 78,-400.0314 84,-394.0314 90,-394.0314"/>
<text text-anchor="middle" x="452.2756" y="-1277.9314" font-family="Helvetica,sans-Serif" font-weight="bold" font-size="9.00" fill="#000000">components</text>
</g>
<g id="clust6" class="cluster">
<title>cluster_src/components/Checkbox</title>
<path fill="#ffffff" stroke="#000000" stroke-width="2" d="M160,-921.0314C160,-921.0314 301.515,-921.0314 301.515,-921.0314 307.515,-921.0314 313.515,-927.0314 313.515,-933.0314 313.515,-933.0314 313.515,-962.0314 313.515,-962.0314 313.515,-968.0314 307.515,-974.0314 301.515,-974.0314 301.515,-974.0314 160,-974.0314 160,-974.0314 154,-974.0314 148,-968.0314 148,-962.0314 148,-962.0314 148,-933.0314 148,-933.0314 148,-927.0314 154,-921.0314 160,-921.0314"/>
<text text-anchor="middle" x="230.7575" y="-961.9314" font-family="Helvetica,sans-Serif" font-weight="bold" font-size="9.00" fill="#000000">Checkbox</text>
</g>
<g id="clust7" class="cluster">
<title>cluster_src/components/CheckboxGroup</title>
<path fill="#ffffff" stroke="#000000" stroke-width="2" d="M160,-799.0314C160,-799.0314 314.0182,-799.0314 314.0182,-799.0314 320.0182,-799.0314 326.0182,-805.0314 326.0182,-811.0314 326.0182,-811.0314 326.0182,-840.0314 326.0182,-840.0314 326.0182,-846.0314 320.0182,-852.0314 314.0182,-852.0314 314.0182,-852.0314 160,-852.0314 160,-852.0314 154,-852.0314 148,-846.0314 148,-840.0314 148,-840.0314 148,-811.0314 148,-811.0314 148,-805.0314 154,-799.0314 160,-799.0314"/>
<text text-anchor="middle" x="237.0091" y="-839.9314" font-family="Helvetica,sans-Serif" font-weight="bold" font-size="9.00" fill="#000000">CheckboxGroup</text>
</g>
<g id="clust8" class="cluster">
<title>cluster_src/components/ColorPicker</title>
<path fill="#ffffff" stroke="#000000" stroke-width="2" d="M160,-982.0314C160,-982.0314 806.5511,-982.0314 806.5511,-982.0314 812.5511,-982.0314 818.5511,-988.0314 818.5511,-994.0314 818.5511,-994.0314 818.5511,-1098.0314 818.5511,-1098.0314 818.5511,-1104.0314 812.5511,-1110.0314 806.5511,-1110.0314 806.5511,-1110.0314 160,-1110.0314 160,-1110.0314 154,-1110.0314 148,-1104.0314 148,-1098.0314 148,-1098.0314 148,-994.0314 148,-994.0314 148,-988.0314 154,-982.0314 160,-982.0314"/>
<text text-anchor="middle" x="483.2756" y="-1097.9314" font-family="Helvetica,sans-Serif" font-weight="bold" font-size="9.00" fill="#000000">ColorPicker</text>
</g>
<g id="clust9" class="cluster">
<title>cluster_src/components/ColorPicker/components</title>
<path fill="#ffffff" stroke="#000000" stroke-width="2" d="M362.2736,-990.0314C362.2736,-990.0314 570.535,-990.0314 570.535,-990.0314 576.535,-990.0314 582.535,-996.0314 582.535,-1002.0314 582.535,-1002.0314 582.535,-1031.0314 582.535,-1031.0314 582.535,-1037.0314 576.535,-1043.0314 570.535,-1043.0314 570.535,-1043.0314 362.2736,-1043.0314 362.2736,-1043.0314 356.2736,-1043.0314 350.2736,-1037.0314 350.2736,-1031.0314 350.2736,-1031.0314 350.2736,-1002.0314 350.2736,-1002.0314 350.2736,-996.0314 356.2736,-990.0314 362.2736,-990.0314"/>
<text text-anchor="middle" x="466.4043" y="-1030.9314" font-family="Helvetica,sans-Serif" font-weight="bold" font-size="9.00" fill="#000000">components</text>
</g>
<g id="clust10" class="cluster">
<title>cluster_src/components/ColorPicker/styled</title>
<path fill="#ffffff" stroke="#000000" stroke-width="2" d="M636.5346,-990.0314C636.5346,-990.0314 798.5511,-990.0314 798.5511,-990.0314 804.5511,-990.0314 810.5511,-996.0314 810.5511,-1002.0314 810.5511,-1002.0314 810.5511,-1062.0314 810.5511,-1062.0314 810.5511,-1068.0314 804.5511,-1074.0314 798.5511,-1074.0314 798.5511,-1074.0314 636.5346,-1074.0314 636.5346,-1074.0314 630.5346,-1074.0314 624.5346,-1068.0314 624.5346,-1062.0314 624.5346,-1062.0314 624.5346,-1002.0314 624.5346,-1002.0314 624.5346,-996.0314 630.5346,-990.0314 636.5346,-990.0314"/>
<text text-anchor="middle" x="717.5429" y="-1061.9314" font-family="Helvetica,sans-Serif" font-weight="bold" font-size="9.00" fill="#000000">styled</text>
</g>
<g id="clust11" class="cluster">
<title>cluster_src/components/FieldsCombiner</title>
<path fill="#ffffff" stroke="#000000" stroke-width="2" d="M160,-1118.0314C160,-1118.0314 604.5346,-1118.0314 604.5346,-1118.0314 610.5346,-1118.0314 616.5346,-1124.0314 616.5346,-1130.0314 616.5346,-1130.0314 616.5346,-1251.0314 616.5346,-1251.0314 616.5346,-1257.0314 610.5346,-1263.0314 604.5346,-1263.0314 604.5346,-1263.0314 160,-1263.0314 160,-1263.0314 154,-1263.0314 148,-1257.0314 148,-1251.0314 148,-1251.0314 148,-1130.0314 148,-1130.0314 148,-1124.0314 154,-1118.0314 160,-1118.0314"/>
<text text-anchor="middle" x="382.2673" y="-1250.9314" font-family="Helvetica,sans-Serif" font-weight="bold" font-size="9.00" fill="#000000">FieldsCombiner</text>
</g>
<g id="clust12" class="cluster">
<title>cluster_src/components/FieldsCombiner/styled</title>
<path fill="#ffffff" stroke="#000000" stroke-width="2" d="M362.2736,-1152.0314C362.2736,-1152.0314 596.5346,-1152.0314 596.5346,-1152.0314 602.5346,-1152.0314 608.5346,-1158.0314 608.5346,-1164.0314 608.5346,-1164.0314 608.5346,-1224.0314 608.5346,-1224.0314 608.5346,-1230.0314 602.5346,-1236.0314 596.5346,-1236.0314 596.5346,-1236.0314 362.2736,-1236.0314 362.2736,-1236.0314 356.2736,-1236.0314 350.2736,-1230.0314 350.2736,-1224.0314 350.2736,-1224.0314 350.2736,-1164.0314 350.2736,-1164.0314 350.2736,-1158.0314 356.2736,-1152.0314 362.2736,-1152.0314"/>
<text text-anchor="middle" x="479.4041" y="-1223.9314" font-family="Helvetica,sans-Serif" font-weight="bold" font-size="9.00" fill="#000000">styled</text>
</g>
<g id="clust13" class="cluster">
<title>cluster_src/components/Input</title>
<path fill="#ffffff" stroke="#000000" stroke-width="2" d="M160,-860.0314C160,-860.0314 293.5091,-860.0314 293.5091,-860.0314 299.5091,-860.0314 305.5091,-866.0314 305.5091,-872.0314 305.5091,-872.0314 305.5091,-901.0314 305.5091,-901.0314 305.5091,-907.0314 299.5091,-913.0314 293.5091,-913.0314 293.5091,-913.0314 160,-913.0314 160,-913.0314 154,-913.0314 148,-907.0314 148,-901.0314 148,-901.0314 148,-872.0314 148,-872.0314 148,-866.0314 154,-860.0314 160,-860.0314"/>
<text text-anchor="middle" x="226.7546" y="-900.9314" font-family="Helvetica,sans-Serif" font-weight="bold" font-size="9.00" fill="#000000">Input</text>
</g>
<g id="clust14" class="cluster">
<title>cluster_src/components/Radio</title>
<path fill="#ffffff" stroke="#000000" stroke-width="2" d="M160,-646.0314C160,-646.0314 293.5091,-646.0314 293.5091,-646.0314 299.5091,-646.0314 305.5091,-652.0314 305.5091,-658.0314 305.5091,-658.0314 305.5091,-687.0314 305.5091,-687.0314 305.5091,-693.0314 299.5091,-699.0314 293.5091,-699.0314 293.5091,-699.0314 160,-699.0314 160,-699.0314 154,-699.0314 148,-693.0314 148,-687.0314 148,-687.0314 148,-658.0314 148,-658.0314 148,-652.0314 154,-646.0314 160,-646.0314"/>
<text text-anchor="middle" x="226.7546" y="-686.9314" font-family="Helvetica,sans-Serif" font-weight="bold" font-size="9.00" fill="#000000">Radio</text>
</g>
<g id="clust15" class="cluster">
<title>cluster_src/components/RadioGroup</title>
<path fill="#ffffff" stroke="#000000" stroke-width="2" d="M160,-585.0314C160,-585.0314 305.7652,-585.0314 305.7652,-585.0314 311.7652,-585.0314 317.7652,-591.0314 317.7652,-597.0314 317.7652,-597.0314 317.7652,-626.0314 317.7652,-626.0314 317.7652,-632.0314 311.7652,-638.0314 305.7652,-638.0314 305.7652,-638.0314 160,-638.0314 160,-638.0314 154,-638.0314 148,-632.0314 148,-626.0314 148,-626.0314 148,-597.0314 148,-597.0314 148,-591.0314 154,-585.0314 160,-585.0314"/>
<text text-anchor="middle" x="232.8826" y="-625.9314" font-family="Helvetica,sans-Serif" font-weight="bold" font-size="9.00" fill="#000000">RadioGroup</text>
</g>
<g id="clust16" class="cluster">
<title>cluster_src/components/Select</title>
<path fill="#ffffff" stroke="#000000" stroke-width="2" d="M160,-524.0314C160,-524.0314 294.0135,-524.0314 294.0135,-524.0314 300.0135,-524.0314 306.0135,-530.0314 306.0135,-536.0314 306.0135,-536.0314 306.0135,-565.0314 306.0135,-565.0314 306.0135,-571.0314 300.0135,-577.0314 294.0135,-577.0314 294.0135,-577.0314 160,-577.0314 160,-577.0314 154,-577.0314 148,-571.0314 148,-565.0314 148,-565.0314 148,-536.0314 148,-536.0314 148,-530.0314 154,-524.0314 160,-524.0314"/>
<text text-anchor="middle" x="227.0067" y="-564.9314" font-family="Helvetica,sans-Serif" font-weight="bold" font-size="9.00" fill="#000000">Select</text>
</g>
<g id="clust17" class="cluster">
<title>cluster_src/components/Switch</title>
<path fill="#ffffff" stroke="#000000" stroke-width="2" d="M160,-463.0314C160,-463.0314 294.7605,-463.0314 294.7605,-463.0314 300.7605,-463.0314 306.7605,-469.0314 306.7605,-475.0314 306.7605,-475.0314 306.7605,-504.0314 306.7605,-504.0314 306.7605,-510.0314 300.7605,-516.0314 294.7605,-516.0314 294.7605,-516.0314 160,-516.0314 160,-516.0314 154,-516.0314 148,-510.0314 148,-504.0314 148,-504.0314 148,-475.0314 148,-475.0314 148,-469.0314 154,-463.0314 160,-463.0314"/>
<text text-anchor="middle" x="227.3802" y="-503.9314" font-family="Helvetica,sans-Serif" font-weight="bold" font-size="9.00" fill="#000000">Switch</text>
</g>
<g id="clust18" class="cluster">
<title>cluster_src/components/Textarea</title>
<path fill="#ffffff" stroke="#000000" stroke-width="2" d="M160,-402.0314C160,-402.0314 299.2641,-402.0314 299.2641,-402.0314 305.2641,-402.0314 311.2641,-408.0314 311.2641,-414.0314 311.2641,-414.0314 311.2641,-443.0314 311.2641,-443.0314 311.2641,-449.0314 305.2641,-455.0314 299.2641,-455.0314 299.2641,-455.0314 160,-455.0314 160,-455.0314 154,-455.0314 148,-449.0314 148,-443.0314 148,-443.0314 148,-414.0314 148,-414.0314 148,-408.0314 154,-402.0314 160,-402.0314"/>
<text text-anchor="middle" x="229.632" y="-442.9314" font-family="Helvetica,sans-Serif" font-weight="bold" font-size="9.00" fill="#000000">Textarea</text>
</g>
<g id="clust19" class="cluster">
<title>cluster_src/components/UploadFiles</title>
<path fill="#ffffff" stroke="#000000" stroke-width="2" d="M160,-707.0314C160,-707.0314 432.5289,-707.0314 432.5289,-707.0314 438.5289,-707.0314 444.5289,-713.0314 444.5289,-719.0314 444.5289,-719.0314 444.5289,-779.0314 444.5289,-779.0314 444.5289,-785.0314 438.5289,-791.0314 432.5289,-791.0314 432.5289,-791.0314 160,-791.0314 160,-791.0314 154,-791.0314 148,-785.0314 148,-779.0314 148,-779.0314 148,-719.0314 148,-719.0314 148,-713.0314 154,-707.0314 160,-707.0314"/>
<text text-anchor="middle" x="296.2645" y="-778.9314" font-family="Helvetica,sans-Serif" font-weight="bold" font-size="9.00" fill="#000000">UploadFiles</text>
</g>
<g id="clust20" class="cluster">
<title>cluster_src/utils</title>
<path fill="#ffffff" stroke="#000000" stroke-width="2" d="M355.2685,-1298.0314C355.2685,-1298.0314 415.2786,-1298.0314 415.2786,-1298.0314 421.2786,-1298.0314 427.2786,-1304.0314 427.2786,-1310.0314 427.2786,-1310.0314 427.2786,-1339.0314 427.2786,-1339.0314 427.2786,-1345.0314 421.2786,-1351.0314 415.2786,-1351.0314 415.2786,-1351.0314 355.2685,-1351.0314 355.2685,-1351.0314 349.2685,-1351.0314 343.2685,-1345.0314 343.2685,-1339.0314 343.2685,-1339.0314 343.2685,-1310.0314 343.2685,-1310.0314 343.2685,-1304.0314 349.2685,-1298.0314 355.2685,-1298.0314"/>
<text text-anchor="middle" x="385.2736" y="-1338.9314" font-family="Helvetica,sans-Serif" font-weight="bold" font-size="9.00" fill="#000000">utils</text>
</g>
<!-- @devoinc/genesys&#45;ui -->
<g id="node1" class="node">
<title>@devoinc/genesys&#45;ui</title>
<g id="a_node1"><a xlink:title="genesys&#45;ui">
<path fill="#ffffcc" stroke="#000000" d="M903.6155,-193.3324C903.6155,-193.3324 856.9954,-193.3324 856.9954,-193.3324 853.8951,-193.3324 850.7947,-190.2321 850.7947,-187.1317 850.7947,-187.1317 850.7947,-180.931 850.7947,-180.931 850.7947,-177.8306 853.8951,-174.7303 856.9954,-174.7303 856.9954,-174.7303 903.6155,-174.7303 903.6155,-174.7303 906.7158,-174.7303 909.8162,-177.8306 909.8162,-180.931 909.8162,-180.931 909.8162,-187.1317 909.8162,-187.1317 909.8162,-190.2321 906.7158,-193.3324 903.6155,-193.3324"/>
<text text-anchor="start" x="858.5511" y="-181.3314" font-family="Helvetica,sans-Serif" font-size="9.00" fill="#000000">genesys&#45;ui</text>
</a>
</g>
</g>
<!-- node_modules/@devoinc/genesys&#45;icons/ -->
<g id="node2" class="node">
<title>node_modules/@devoinc/genesys&#45;icons/</title>
<g id="a_node2"><a xlink:href="node_modules/@devoinc/genesys-icons/" xlink:title="genesys&#45;icons">
<polygon fill="#c40b0a" fill-opacity="0.101961" stroke="#000000" points="563.0452,-324.3324 492.0852,-324.3324 490.0183,-322.2655 490.0183,-305.7303 560.9783,-305.7303 563.0452,-307.7972 563.0452,-324.3324"/>
<polyline fill="none" stroke="#000000" points="560.9783,-322.2655 490.0183,-322.2655 "/>
<polyline fill="none" stroke="#000000" points="560.9783,-322.2655 560.9783,-305.7303 "/>
<polyline fill="none" stroke="#000000" points="560.9783,-322.2655 563.0452,-324.3324 "/>
<text text-anchor="start" x="497.7759" y="-312.3314" font-family="Helvetica,sans-Serif" font-size="9.00" fill="#c40b0a">genesys&#45;icons</text>
</a>
</g>
</g>
<!-- src/components/Checkbox/Checkbox.tsx -->
<g id="node3" class="node">
<title>src/components/Checkbox/Checkbox.tsx</title>
<g id="a_node3"><a xlink:href="src/components/Checkbox/Checkbox.tsx" xlink:title="Checkbox.tsx">
<path fill="#bbfeff" stroke="#000000" d="M299.3201,-947.3324C299.3201,-947.3324 241.6981,-947.3324 241.6981,-947.3324 238.5977,-947.3324 235.4974,-944.2321 235.4974,-941.1317 235.4974,-941.1317 235.4974,-934.931 235.4974,-934.931 235.4974,-931.8306 238.5977,-928.7303 241.6981,-928.7303 241.6981,-928.7303 299.3201,-928.7303 299.3201,-928.7303 302.4205,-928.7303 305.5208,-931.8306 305.5208,-934.931 305.5208,-934.931 305.5208,-941.1317 305.5208,-941.1317 305.5208,-944.2321 302.4205,-947.3324 299.3201,-947.3324"/>
<text text-anchor="start" x="243.5033" y="-935.3314" font-family="Helvetica,sans-Serif" font-size="9.00" fill="#000000">Checkbox.tsx</text>
</a>
</g>
</g>
<!-- src/components/Checkbox/Checkbox.tsx&#45;&gt;@devoinc/genesys&#45;ui -->
<g id="edge1" class="edge">
<title>src/components/Checkbox/Checkbox.tsx&#45;&gt;@devoinc/genesys&#45;ui</title>
<path fill="none" stroke="#000000" stroke-width="2" stroke-opacity="0.200000" d="M305.6153,-931.1809C313.5918,-927.9243 321.1413,-923.1197 326.0182,-916.0314 336.6782,-900.5374 321.2008,-252.7941 334.0182,-239.0314 363.2749,-207.6167 483.6035,-223.0314 526.5318,-223.0314 526.5318,-223.0314 526.5318,-223.0314 659.5346,-223.0314 737.8777,-223.0314 758.5879,-221.1945 834.5511,-202.0314 841.0147,-200.4008 847.7926,-198.09 854.0916,-195.6657"/>
<polygon fill="#000000" fill-opacity="0.200000" stroke="#000000" stroke-width="2" stroke-opacity="0.200000" points="854.9223,-197.5954 859.719,-193.4237 853.3678,-193.6936 854.9223,-197.5954"/>
</g>
<!-- src/components/Checkbox/index.ts -->
<g id="node4" class="node">
<title>src/components/Checkbox/index.ts</title>
<g id="a_node4"><a xlink:href="src/components/Checkbox/index.ts" xlink:title="index.ts">
<path fill="#ddfeff" stroke="#000000" d="M203.7993,-947.3324C203.7993,-947.3324 162.2007,-947.3324 162.2007,-947.3324 159.1004,-947.3324 156,-944.2321 156,-941.1317 156,-941.1317 156,-934.931 156,-934.931 156,-931.8306 159.1004,-928.7303 162.2007,-928.7303 162.2007,-928.7303 203.7993,-928.7303 203.7993,-928.7303 206.8996,-928.7303 210,-931.8306 210,-934.931 210,-934.931 210,-941.1317 210,-941.1317 210,-944.2321 206.8996,-947.3324 203.7993,-947.3324"/>
<text text-anchor="start" x="167.4957" y="-935.3314" font-family="Helvetica,sans-Serif" font-size="9.00" fill="#000000">index.ts</text>
</a>
</g>
</g>
<!-- src/components/Checkbox/index.ts&#45;&gt;src/components/Checkbox/Checkbox.tsx -->
<g id="edge2" class="edge">
<title>src/components/Checkbox/index.ts&#45;&gt;src/components/Checkbox/Checkbox.tsx</title>
<path fill="none" stroke="#000000" stroke-width="2" stroke-opacity="0.200000" d="M210.2087,-938.0314C216.1542,-938.0314 222.5777,-938.0314 228.9394,-938.0314"/>
<polygon fill="#000000" fill-opacity="0.200000" stroke="#000000" stroke-width="2" stroke-opacity="0.200000" points="229.2606,-940.1314 235.2606,-938.0314 229.2606,-935.9314 229.2606,-940.1314"/>
</g>
<!-- src/components/CheckboxGroup/CheckboxGroup.tsx -->
<g id="node5" class="node">
<title>src/components/CheckboxGroup/CheckboxGroup.tsx</title>
<g id="a_node5"><a xlink:href="src/components/CheckboxGroup/CheckboxGroup.tsx" xlink:title="CheckboxGroup.tsx">
<path fill="#bbfeff" stroke="#000000" d="M311.8266,-825.3324C311.8266,-825.3324 229.1916,-825.3324 229.1916,-825.3324 226.0912,-825.3324 222.9909,-822.2321 222.9909,-819.1317 222.9909,-819.1317 222.9909,-812.931 222.9909,-812.931 222.9909,-809.8306 226.0912,-806.7303 229.1916,-806.7303 229.1916,-806.7303 311.8266,-806.7303 311.8266,-806.7303 314.927,-806.7303 318.0273,-809.8306 318.0273,-812.931 318.0273,-812.931 318.0273,-819.1317 318.0273,-819.1317 318.0273,-822.2321 314.927,-825.3324 311.8266,-825.3324"/>
<text text-anchor="start" x="231" y="-813.3314" font-family="Helvetica,sans-Serif" font-size="9.00" fill="#000000">CheckboxGroup.tsx</text>
</a>
</g>
</g>
<!-- src/components/CheckboxGroup/CheckboxGroup.tsx&#45;&gt;@devoinc/genesys&#45;ui -->
<g id="edge3" class="edge">
<title>src/components/CheckboxGroup/CheckboxGroup.tsx&#45;&gt;@devoinc/genesys&#45;ui</title>
<path fill="none" stroke="#000000" stroke-width="2" stroke-opacity="0.200000" d="M310.9928,-806.6879C316.9025,-803.6011 322.254,-799.4945 326.0182,-794.0314 335.5856,-780.1457 322.5175,-199.3634 334.0182,-187.0314 363.2963,-155.6366 483.6035,-171.0314 526.5318,-171.0314 526.5318,-171.0314 526.5318,-171.0314 659.5346,-171.0314 724.8565,-171.0314 800.8625,-176.773 844.501,-180.6248"/>
<polygon fill="#000000" fill-opacity="0.200000" stroke="#000000" stroke-width="2" stroke-opacity="0.200000" points="844.5364,-182.7362 850.6995,-181.1784 844.9102,-178.5529 844.5364,-182.7362"/>
</g>
<!-- src/components/CheckboxGroup/index.ts -->
<g id="node6" class="node">
<title>src/components/CheckboxGroup/index.ts</title>
<g id="a_node6"><a xlink:href="src/components/CheckboxGroup/index.ts" xlink:title="index.ts">
<path fill="#ddfeff" stroke="#000000" d="M203.7993,-825.3324C203.7993,-825.3324 162.2007,-825.3324 162.2007,-825.3324 159.1004,-825.3324 156,-822.2321 156,-819.1317 156,-819.1317 156,-812.931 156,-812.931 156,-809.8306 159.1004,-806.7303 162.2007,-806.7303 162.2007,-806.7303 203.7993,-806.7303 203.7993,-806.7303 206.8996,-806.7303 210,-809.8306 210,-812.931 210,-812.931 210,-819.1317 210,-819.1317 210,-822.2321 206.8996,-825.3324 203.7993,-825.3324"/>
<text text-anchor="start" x="167.4957" y="-813.3314" font-family="Helvetica,sans-Serif" font-size="9.00" fill="#000000">index.ts</text>
</a>
</g>
</g>
<!-- src/components/CheckboxGroup/index.ts&#45;&gt;src/components/CheckboxGroup/CheckboxGroup.tsx -->
<g id="edge4" class="edge">
<title>src/components/CheckboxGroup/index.ts&#45;&gt;src/components/CheckboxGroup/CheckboxGroup.tsx</title>
<path fill="none" stroke="#000000" stroke-width="2" stroke-opacity="0.200000" d="M210.2087,-816.0314C212.2156,-816.0314 214.277,-816.0314 216.3721,-816.0314"/>
<polygon fill="#000000" fill-opacity="0.200000" stroke="#000000" stroke-width="2" stroke-opacity="0.200000" points="216.7377,-818.1314 222.7377,-816.0314 216.7377,-813.9314 216.7377,-818.1314"/>
</g>
<!-- src/components/ColorPicker/ColorPicker.tsx -->
<g id="node7" class="node">
<title>src/components/ColorPicker/ColorPicker.tsx</title>
<g id="a_node7"><a xlink:href="src/components/ColorPicker/ColorPicker.tsx" xlink:title="ColorPicker.tsx">
<path fill="#bbfeff" stroke="#000000" d="M302.8071,-1016.3324C302.8071,-1016.3324 238.2111,-1016.3324 238.2111,-1016.3324 235.1107,-1016.3324 232.0104,-1013.2321 232.0104,-1010.1317 232.0104,-1010.1317 232.0104,-1003.931 232.0104,-1003.931 232.0104,-1000.8306 235.1107,-997.7303 238.2111,-997.7303 238.2111,-997.7303 302.8071,-997.7303 302.8071,-997.7303 305.9075,-997.7303 309.0078,-1000.8306 309.0078,-1003.931 309.0078,-1003.931 309.0078,-1010.1317 309.0078,-1010.1317 309.0078,-1013.2321 305.9075,-1016.3324 302.8071,-1016.3324"/>
<text text-anchor="start" x="240.2606" y="-1004.3314" font-family="Helvetica,sans-Serif" font-size="9.00" fill="#000000">ColorPicker.tsx</text>
</a>
</g>
</g>
<!-- src/components/ColorPicker/ColorPicker.tsx&#45;&gt;@devoinc/genesys&#45;ui -->
<g id="edge8" class="edge">
<title>src/components/ColorPicker/ColorPicker.tsx&#45;&gt;@devoinc/genesys&#45;ui</title>
<path fill="none" stroke="#000000" stroke-width="2" stroke-opacity="0.200000" d="M300.9169,-997.6343C310.6467,-993.0374 320.3554,-986.4085 326.0182,-977.0314 336.2428,-960.1001 320.5425,-279.5094 334.0182,-265.0314 363.2658,-233.6082 483.6035,-249.0314 526.5318,-249.0314 526.5318,-249.0314 526.5318,-249.0314 659.5346,-249.0314 738.2399,-249.0314 762.7851,-254.3448 834.5511,-222.0314 847.103,-216.3797 858.9898,-206.3094 867.5004,-197.955"/>
<polygon fill="#000000" fill-opacity="0.200000" stroke="#000000" stroke-width="2" stroke-opacity="0.200000" points="869.1468,-199.2762 871.8639,-193.5292 866.156,-196.3274 869.1468,-199.2762"/>
</g>
<!-- src/components/ColorPicker/components/index.ts -->
<g id="node8" class="node">
<title>src/components/ColorPicker/components/index.ts</title>
<g id="a_node8"><a xlink:href="src/components/ColorPicker/components/index.ts" xlink:title="index.ts">
<path fill="#ddfeff" stroke="#000000" d="M406.0728,-1016.3324C406.0728,-1016.3324 364.4743,-1016.3324 364.4743,-1016.3324 361.3739,-1016.3324 358.2736,-1013.2321 358.2736,-1010.1317 358.2736,-1010.1317 358.2736,-1003.931 358.2736,-1003.931 358.2736,-1000.8306 361.3739,-997.7303 364.4743,-997.7303 364.4743,-997.7303 406.0728,-997.7303 406.0728,-997.7303 409.1732,-997.7303 412.2736,-1000.8306 412.2736,-1003.931 412.2736,-1003.931 412.2736,-1010.1317 412.2736,-1010.1317 412.2736,-1013.2321 409.1732,-1016.3324 406.0728,-1016.3324"/>
<text text-anchor="start" x="369.7693" y="-1004.3314" font-family="Helvetica,sans-Serif" font-size="9.00" fill="#000000">index.ts</text>
</a>
</g>
</g>
<!-- src/components/ColorPicker/ColorPicker.tsx&#45;&gt;src/components/ColorPicker/components/index.ts -->
<g id="edge5" class="edge">
<title>src/components/ColorPicker/ColorPicker.tsx&#45;&gt;src/components/ColorPicker/components/index.ts</title>
<path fill="none" stroke="#000000" stroke-width="2" stroke-opacity="0.200000" d="M309.0433,-1007.0314C323.0476,-1007.0314 338.737,-1007.0314 352.2248,-1007.0314"/>
<polygon fill="#000000" fill-opacity="0.200000" stroke="#000000" stroke-width="2" stroke-opacity="0.200000" points="352.2531,-1009.1315 358.2531,-1007.0314 352.253,-1004.9315 352.2531,-1009.1315"/>
</g>
<!-- src/components/ColorPicker/styled/index.ts -->
<g id="node9" class="node">
<title>src/components/ColorPicker/styled/index.ts</title>
<g id="a_node9"><a xlink:href="src/components/ColorPicker/styled/index.ts" xlink:title="index.ts">
<path fill="#ddfeff" stroke="#000000" d="M680.3339,-1031.3324C680.3339,-1031.3324 638.7353,-1031.3324 638.7353,-1031.3324 635.635,-1031.3324 632.5346,-1028.2321 632.5346,-1025.1317 632.5346,-1025.1317 632.5346,-1018.931 632.5346,-1018.931 632.5346,-1015.8306 635.635,-1012.7303 638.7353,-1012.7303 638.7353,-1012.7303 680.3339,-1012.7303 680.3339,-1012.7303 683.4342,-1012.7303 686.5346,-1015.8306 686.5346,-1018.931 686.5346,-1018.931 686.5346,-1025.1317 686.5346,-1025.1317 686.5346,-1028.2321 683.4342,-1031.3324 680.3339,-1031.3324"/>
<text text-anchor="start" x="644.0303" y="-1019.3314" font-family="Helvetica,sans-Serif" font-size="9.00" fill="#000000">index.ts</text>
</a>
</g>
</g>
<!-- src/components/ColorPicker/ColorPicker.tsx&#45;&gt;src/components/ColorPicker/styled/index.ts -->
<g id="edge6" class="edge">
<title>src/components/ColorPicker/ColorPicker.tsx&#45;&gt;src/components/ColorPicker/styled/index.ts</title>
<path fill="none" stroke="#000000" stroke-width="2" stroke-opacity="0.200000" d="M275.8248,-1016.5656C285.1951,-1032.2603 306.3116,-1062.9969 334.0182,-1075.0314 449.7913,-1125.3179 497.4558,-1087.8928 616.5346,-1046.0314 624.6329,-1043.1845 632.9933,-1038.8788 640.1646,-1034.6966"/>
<polygon fill="#000000" fill-opacity="0.200000" stroke="#000000" stroke-width="2" stroke-opacity="0.200000" points="641.3357,-1036.4428 645.3927,-1031.5488 639.1692,-1032.8447 641.3357,-1036.4428"/>
</g>
<!-- src/components/ColorPicker/utils.ts -->
<g id="node10" class="node">
<title>src/components/ColorPicker/utils.ts</title>
<g id="a_node10"><a xlink:href="src/components/ColorPicker/utils.ts" xlink:title="utils.ts">
<path fill="#ddfeff" stroke="#000000" d="M406.0728,-1069.3324C406.0728,-1069.3324 364.4743,-1069.3324 364.4743,-1069.3324 361.3739,-1069.3324 358.2736,-1066.2321 358.2736,-1063.1317 358.2736,-1063.1317 358.2736,-1056.931 358.2736,-1056.931 358.2736,-1053.8306 361.3739,-1050.7303 364.4743,-1050.7303 364.4743,-1050.7303 406.0728,-1050.7303 406.0728,-1050.7303 409.1732,-1050.7303 412.2736,-1053.8306 412.2736,-1056.931 412.2736,-1056.931 412.2736,-1063.1317 412.2736,-1063.1317 412.2736,-1066.2321 409.1732,-1069.3324 406.0728,-1069.3324"/>
<text text-anchor="start" x="372.5233" y="-1057.3314" font-family="Helvetica,sans-Serif" font-size="9.00" fill="#000000">utils.ts</text>
</a>
</g>
</g>
<!-- src/components/ColorPicker/ColorPicker.tsx&#45;&gt;src/components/ColorPicker/utils.ts -->
<g id="edge7" class="edge">
<title>src/components/ColorPicker/ColorPicker.tsx&#45;&gt;src/components/ColorPicker/utils.ts</title>
<path fill="none" stroke="#000000" stroke-width="2" stroke-opacity="0.200000" d="M283.5315,-1016.5631C295.9642,-1025.2826 315.4958,-1038.0101 334.0182,-1046.0314 339.732,-1048.5057 345.996,-1050.6486 352.1229,-1052.4627"/>
<polygon fill="#000000" fill-opacity="0.200000" stroke="#000000" stroke-width="2" stroke-opacity="0.200000" points="351.8341,-1054.563 358.1787,-1054.1674 352.9722,-1050.5201 351.8341,-1054.563"/>
</g>
<!-- src/components/ColorPicker/components/DropdownPicker.tsx -->
<g id="node11" class="node">
<title>src/components/ColorPicker/components/DropdownPicker.tsx</title>
<g id="a_node11"><a xlink:href="src/components/ColorPicker/components/DropdownPicker.tsx" xlink:title="DropdownPicker.tsx">
<path fill="#bbfeff" stroke="#000000" d="M568.3374,-1016.3324C568.3374,-1016.3324 484.7261,-1016.3324 484.7261,-1016.3324 481.6257,-1016.3324 478.5253,-1013.2321 478.5253,-1010.1317 478.5253,-1010.1317 478.5253,-1003.931 478.5253,-1003.931 478.5253,-1000.8306 481.6257,-997.7303 484.7261,-997.7303 484.7261,-997.7303 568.3374,-997.7303 568.3374,-997.7303 571.4378,-997.7303 574.5382,-1000.8306 574.5382,-1003.931 574.5382,-1003.931 574.5382,-1010.1317 574.5382,-1010.1317 574.5382,-1013.2321 571.4378,-1016.3324 568.3374,-1016.3324"/>
<text text-anchor="start" x="486.5286" y="-1004.3314" font-family="Helvetica,sans-Serif" font-size="9.00" fill="#000000">DropdownPicker.tsx</text>
</a>
</g>
</g>
<!-- src/components/ColorPicker/components/index.ts&#45;&gt;src/components/ColorPicker/components/DropdownPicker.tsx -->
<g id="edge10" class="edge">
<title>src/components/ColorPicker/components/index.ts&#45;&gt;src/components/ColorPicker/components/DropdownPicker.tsx</title>
<path fill="none" stroke="#000000" stroke-width="2" stroke-opacity="0.200000" d="M412.5096,-1007.0314C429.5113,-1007.0314 451.9902,-1007.0314 472.4923,-1007.0314"/>
<polygon fill="#000000" fill-opacity="0.200000" stroke="#000000" stroke-width="2" stroke-opacity="0.200000" points="472.4988,-1009.1315 478.4987,-1007.0314 472.4987,-1004.9315 472.4988,-1009.1315"/>
</g>
<!-- src/components/ColorPicker/styled/StyledColorPicker.ts -->
<g id="node13" class="node">
<title>src/components/ColorPicker/styled/StyledColorPicker.ts</title>
<g id="a_node13"><a xlink:href="src/components/ColorPicker/styled/StyledColorPicker.ts" xlink:title="StyledColorPicker.ts">
<path fill="#ddfeff" stroke="#000000" d="M793.3457,-1016.3324C793.3457,-1016.3324 708.74,-1016.3324 708.74,-1016.3324 705.6396,-1016.3324 702.5392,-1013.2321 702.5392,-1010.1317 702.5392,-1010.1317 702.5392,-1003.931 702.5392,-1003.931 702.5392,-1000.8306 705.6396,-997.7303 708.74,-997.7303 708.74,-997.7303 793.3457,-997.7303 793.3457,-997.7303 796.4461,-997.7303 799.5465,-1000.8306 799.5465,-1003.931 799.5465,-1003.931 799.5465,-1010.1317 799.5465,-1010.1317 799.5465,-1013.2321 796.4461,-1016.3324 793.3457,-1016.3324"/>
<text text-anchor="start" x="710.5411" y="-1004.3314" font-family="Helvetica,sans-Serif" font-size="9.00" fill="#000000">StyledColorPicker.ts</text>
</a>
</g>
</g>
<!-- src/components/ColorPicker/styled/index.ts&#45;&gt;src/components/ColorPicker/styled/StyledColorPicker.ts -->
<g id="edge14" class="edge">
<title>src/components/ColorPicker/styled/index.ts&#45;&gt;src/components/ColorPicker/styled/StyledColorPicker.ts</title>
<path fill="none" stroke="#000000" stroke-width="2" stroke-opacity="0.200000" d="M686.9901,-1017.5309C689.8658,-1017.0595 692.857,-1016.5691 695.9063,-1016.0693"/>
<polygon fill="#000000" fill-opacity="0.200000" stroke="#000000" stroke-width="2" stroke-opacity="0.200000" points="696.6474,-1018.0759 702.2287,-1015.033 695.968,-1013.9313 696.6474,-1018.0759"/>
</g>
<!-- src/components/ColorPicker/styled/StyledSketchPicker.ts -->
<g id="node14" class="node">
<title>src/components/ColorPicker/styled/StyledSketchPicker.ts</title>
<g id="a_node14"><a xlink:href="src/components/ColorPicker/styled/StyledSketchPicker.ts" xlink:title="StyledSketchPicker.ts">
<path fill="#ddfeff" stroke="#000000" d="M796.3586,-1047.3324C796.3586,-1047.3324 705.7271,-1047.3324 705.7271,-1047.3324 702.6267,-1047.3324 699.5263,-1044.2321 699.5263,-1041.1317 699.5263,-1041.1317 699.5263,-1034.931 699.5263,-1034.931 699.5263,-1031.8306 702.6267,-1028.7303 705.7271,-1028.7303 705.7271,-1028.7303 796.3586,-1028.7303 796.3586,-1028.7303 799.459,-1028.7303 802.5594,-1031.8306 802.5594,-1034.931 802.5594,-1034.931 802.5594,-1041.1317 802.5594,-1041.1317 802.5594,-1044.2321 799.459,-1047.3324 796.3586,-1047.3324"/>
<text text-anchor="start" x="707.5346" y="-1035.3314" font-family="Helvetica,sans-Serif" font-size="9.00" fill="#000000">StyledSketchPicker.ts</text>
</a>
</g>
</g>
<!-- src/components/ColorPicker/styled/index.ts&#45;&gt;src/components/ColorPicker/styled/StyledSketchPicker.ts -->
<g id="edge15" class="edge">
<title>src/components/ColorPicker/styled/index.ts&#45;&gt;src/components/ColorPicker/styled/StyledSketchPicker.ts</title>
<path fill="none" stroke="#000000" stroke-width="2" stroke-opacity="0.200000" d="M686.9901,-1026.8319C689.1156,-1027.2035 691.3043,-1027.5862 693.5328,-1027.9759"/>
<polygon fill="#000000" fill-opacity="0.200000" stroke="#000000" stroke-width="2" stroke-opacity="0.200000" points="693.2372,-1030.0559 699.5092,-1029.0208 693.9606,-1025.9187 693.2372,-1030.0559"/>
</g>
<!-- src/components/ColorPicker/components/DropdownPicker.tsx&#45;&gt;src/components/ColorPicker/styled/index.ts -->
<g id="edge9" class="edge">
<title>src/components/ColorPicker/components/DropdownPicker.tsx&#45;&gt;src/components/ColorPicker/styled/index.ts</title>
<path fill="none" stroke="#000000" stroke-width="2" stroke-opacity="0.200000" d="M574.5488,-1012.4467C591.7592,-1014.3877 610.7639,-1016.531 626.4293,-1018.2978"/>
<polygon fill="#000000" fill-opacity="0.200000" stroke="#000000" stroke-width="2" stroke-opacity="0.200000" points="626.2817,-1020.3943 632.4792,-1018.9801 626.7524,-1016.2208 626.2817,-1020.3943"/>
</g>
<!-- src/components/ColorPicker/index.ts -->
<g id="node12" class="node">
<title>src/components/ColorPicker/index.ts</title>
<g id="a_node12"><a xlink:href="src/components/ColorPicker/index.ts" xlink:title="index.ts">
<path fill="#ddfeff" stroke="#000000" d="M203.7993,-1012.3324C203.7993,-1012.3324 162.2007,-1012.3324 162.2007,-1012.3324 159.1004,-1012.3324 156,-1009.2321 156,-1006.1317 156,-1006.1317 156,-999.931 156,-999.931 156,-996.8306 159.1004,-993.7303 162.2007,-993.7303 162.2007,-993.7303 203.7993,-993.7303 203.7993,-993.7303 206.8996,-993.7303 210,-996.8306 210,-999.931 210,-999.931 210,-1006.1317 210,-1006.1317 210,-1009.2321 206.8996,-1012.3324 203.7993,-1012.3324"/>
<text text-anchor="start" x="167.4957" y="-1000.3314" font-family="Helvetica,sans-Serif" font-size="9.00" fill="#000000">index.ts</text>
</a>
</g>
</g>
<!-- src/components/ColorPicker/index.ts&#45;&gt;src/components/ColorPicker/ColorPicker.tsx -->
<g id="edge11" class="edge">
<title>src/components/ColorPicker/index.ts&#45;&gt;src/components/ColorPicker/ColorPicker.tsx</title>
<path fill="none" stroke="#000000" stroke-width="2" stroke-opacity="0.200000" d="M210.2087,-1004.2751C215.1853,-1004.5025 220.4967,-1004.7453 225.8264,-1004.9889"/>
<polygon fill="#000000" fill-opacity="0.200000" stroke="#000000" stroke-width="2" stroke-opacity="0.200000" points="225.983,-1007.0982 232.0726,-1005.2744 226.1748,-1002.9026 225.983,-1007.0982"/>
</g>
<!-- src/components/ColorPicker/styled/StyledColorPicker.ts&#45;&gt;@devoinc/genesys&#45;ui -->
<g id="edge12" class="edge">
<title>src/components/ColorPicker/styled/StyledColorPicker.ts&#45;&gt;@devoinc/genesys&#45;ui</title>
<path fill="none" stroke="#000000" stroke-width="2" stroke-opacity="0.200000" d="M753.211,-997.5517C763.5703,-951.9855 808.5919,-750.8211 834.5511,-584.0314 857.7453,-435.0071 874.345,-253.0318 878.9893,-199.5196"/>
<polygon fill="#000000" fill-opacity="0.200000" stroke="#000000" stroke-width="2" stroke-opacity="0.200000" points="881.0961,-199.5293 879.5191,-193.3711 876.9116,-199.1686 881.0961,-199.5293"/>
</g>
<!-- src/components/ColorPicker/styled/StyledSketchPicker.ts&#45;&gt;@devoinc/genesys&#45;ui -->
<g id="edge13" class="edge">
<title>src/components/ColorPicker/styled/StyledSketchPicker.ts&#45;&gt;@devoinc/genesys&#45;ui</title>
<path fill="none" stroke="#000000" stroke-width="2" stroke-opacity="0.200000" d="M802.8652,-1038.6281C814.8784,-1036.1844 826.4905,-1031.2586 834.5511,-1022.0314 862.6891,-989.8209 877.7051,-311.552 879.9959,-199.6101"/>
<polygon fill="#000000" fill-opacity="0.200000" stroke="#000000" stroke-width="2" stroke-opacity="0.200000" points="882.101,-199.3761 880.123,-193.3348 877.9018,-199.291 882.101,-199.3761"/>
</g>
<!-- src/components/FieldsCombiner/FieldsCombiner.tsx -->
<g id="node15" class="node">
<title>src/components/FieldsCombiner/FieldsCombiner.tsx</title>
<g id="a_node15"><a xlink:href="src/components/FieldsCombiner/FieldsCombiner.tsx" xlink:title="FieldsCombiner.tsx">
<path fill="#bbfeff" stroke="#000000" d="M310.8079,-1144.3324C310.8079,-1144.3324 230.2103,-1144.3324 230.2103,-1144.3324 227.11,-1144.3324 224.0096,-1141.2321 224.0096,-1138.1317 224.0096,-1138.1317 224.0096,-1131.931 224.0096,-1131.931 224.0096,-1128.8306 227.11,-1125.7303 230.2103,-1125.7303 230.2103,-1125.7303 310.8079,-1125.7303 310.8079,-1125.7303 313.9082,-1125.7303 317.0086,-1128.8306 317.0086,-1131.931 317.0086,-1131.931 317.0086,-1138.1317 317.0086,-1138.1317 317.0086,-1141.2321 313.9082,-1144.3324 310.8079,-1144.3324"/>
<text text-anchor="start" x="232.0094" y="-1132.3314" font-family="Helvetica,sans-Serif" font-size="9.00" fill="#000000">FieldsCombiner.tsx</text>
</a>
</g>
</g>
<!-- src/components/FieldsCombiner/FieldsCombiner.tsx&#45;&gt;@devoinc/genesys&#45;ui -->
<g id="edge18" class="edge">
<title>src/components/FieldsCombiner/FieldsCombiner.tsx&#45;&gt;@devoinc/genesys&#45;ui</title>
<path fill="none" stroke="#000000" stroke-width="2" stroke-opacity="0.200000" d="M310.9634,-1125.6676C316.8764,-1122.5831 322.2366,-1118.4825 326.0182,-1113.0314 338.9724,-1094.3582 330.6041,-726.5 334.0182,-704.0314 365.4128,-497.4183 317.5472,-275.0314 526.5318,-275.0314 526.5318,-275.0314 526.5318,-275.0314 659.5346,-275.0314 738.4542,-275.0314 767.2087,-286.1811 834.5511,-245.0314 852.3428,-234.1597 865.561,-213.576 873.0988,-199.3456"/>
<polygon fill="#000000" fill-opacity="0.200000" stroke="#000000" stroke-width="2" stroke-opacity="0.200000" points="875.1307,-199.9829 875.9784,-193.6827 871.3869,-198.0792 875.1307,-199.9829"/>
</g>
<!-- src/components/FieldsCombiner/helpers.ts -->
<g id="node16" class="node">
<title>src/components/FieldsCombiner/helpers.ts</title>
<g id="a_node16"><a xlink:href="src/components/FieldsCombiner/helpers.ts" xlink:title="helpers.ts">
<path fill="#ddfeff" stroke="#000000" d="M406.5806,-1144.3324C406.5806,-1144.3324 363.9665,-1144.3324 363.9665,-1144.3324 360.8661,-1144.3324 357.7657,-1141.2321 357.7657,-1138.1317 357.7657,-1138.1317 357.7657,-1131.931 357.7657,-1131.931 357.7657,-1128.8306 360.8661,-1125.7303 363.9665,-1125.7303 363.9665,-1125.7303 406.5806,-1125.7303 406.5806,-1125.7303 409.681,-1125.7303 412.7814,-1128.8306 412.7814,-1131.931 412.7814,-1131.931 412.7814,-1138.1317 412.7814,-1138.1317 412.7814,-1141.2321 409.681,-1144.3324 406.5806,-1144.3324"/>
<text text-anchor="start" x="365.7697" y="-1132.3314" font-family="Helvetica,sans-Serif" font-size="9.00" fill="#000000">helpers.ts</text>
</a>
</g>
</g>
<!-- src/components/FieldsCombiner/FieldsCombiner.tsx&#45;&gt;src/components/FieldsCombiner/helpers.ts -->
<g id="edge16" class="edge">
<title>src/components/FieldsCombiner/FieldsCombiner.tsx&#45;&gt;src/components/FieldsCombiner/helpers.ts</title>
<path fill="none" stroke="#000000" stroke-width="2" stroke-opacity="0.200000" d="M317.1882,-1135.0314C328.7046,-1135.0314 340.8173,-1135.0314 351.5811,-1135.0314"/>
<polygon fill="#000000" fill-opacity="0.200000" stroke="#000000" stroke-width="2" stroke-opacity="0.200000" points="351.7481,-1137.1314 357.7481,-1135.0314 351.7481,-1132.9314 351.7481,-1137.1314"/>
</g>
<!-- src/components/FieldsCombiner/styled/index.ts -->
<g id="node17" class="node">
<title>src/components/FieldsCombiner/styled/index.ts</title>
<g id="a_node17"><a xlink:href="src/components/FieldsCombiner/styled/index.ts" xlink:title="index.ts">
<path fill="#ddfeff" stroke="#000000" d="M406.0728,-1178.3324C406.0728,-1178.3324 364.4743,-1178.3324 364.4743,-1178.3324 361.3739,-1178.3324 358.2736,-1175.2321 358.2736,-1172.1317 358.2736,-1172.1317 358.2736,-1165.931 358.2736,-1165.931 358.2736,-1162.8306 361.3739,-1159.7303 364.4743,-1159.7303 364.4743,-1159.7303 406.0728,-1159.7303 406.0728,-1159.7303 409.1732,-1159.7303 412.2736,-1162.8306 412.2736,-1165.931 412.2736,-1165.931 412.2736,-1172.1317 412.2736,-1172.1317 412.2736,-1175.2321 409.1732,-1178.3324 406.0728,-1178.3324"/>
<text text-anchor="start" x="369.7693" y="-1166.3314" font-family="Helvetica,sans-Serif" font-size="9.00" fill="#000000">index.ts</text>
</a>
</g>
</g>
<!-- src/components/FieldsCombiner/FieldsCombiner.tsx&#45;&gt;src/components/FieldsCombiner/styled/index.ts -->
<g id="edge17" class="edge">
<title>src/components/FieldsCombiner/FieldsCombiner.tsx&#45;&gt;src/components/FieldsCombiner/styled/index.ts</title>
<path fill="none" stroke="#000000" stroke-width="2" stroke-opacity="0.200000" d="M297.2619,-1144.3452C308.5493,-1148.1528 321.8666,-1152.4861 334.0182,-1156.0314 339.8347,-1157.7283 346.0588,-1159.4143 352.0939,-1160.9823"/>
<polygon fill="#000000" fill-opacity="0.200000" stroke="#000000" stroke-width="2" stroke-opacity="0.200000" points="351.7102,-1163.0518 358.0437,-1162.5069 352.7528,-1158.9832 351.7102,-1163.0518"/>
</g>
<!-- src/components/FieldsCombiner/styled/StyledFieldsCombinerElem.ts -->
<g id="node19" class="node">
<title>src/components/FieldsCombiner/styled/StyledFieldsCombinerElem.ts</title>
<g id="a_node19"><a xlink:href="src/components/FieldsCombiner/styled/StyledFieldsCombinerElem.ts" xlink:title="StyledFieldsCombinerElem.ts">
<path fill="#ddfeff" stroke="#000000" d="M587.3354,-1209.3324C587.3354,-1209.3324 465.7281,-1209.3324 465.7281,-1209.3324 462.6277,-1209.3324 459.5273,-1206.2321 459.5273,-1203.1317 459.5273,-1203.1317 459.5273,-1196.931 459.5273,-1196.931 459.5273,-1193.8306 462.6277,-1190.7303 465.7281,-1190.7303 465.7281,-1190.7303 587.3354,-1190.7303 587.3354,-1190.7303 590.4358,-1190.7303 593.5362,-1193.8306 593.5362,-1196.931 593.5362,-1196.931 593.5362,-1203.1317 593.5362,-1203.1317 593.5362,-1206.2321 590.4358,-1209.3324 587.3354,-1209.3324"/>
<text text-anchor="start" x="467.5296" y="-1197.3314" font-family="Helvetica,sans-Serif" font-size="9.00" fill="#000000">StyledFieldsCombinerElem.ts</text>
</a>
</g>
</g>
<!-- src/components/FieldsCombiner/styled/index.ts&#45;&gt;src/components/FieldsCombiner/styled/StyledFieldsCombinerElem.ts -->
<g id="edge20" class="edge">
<title>src/components/FieldsCombiner/styled/index.ts&#45;&gt;src/components/FieldsCombiner/styled/StyledFieldsCombinerElem.ts</title>
<path fill="none" stroke="#000000" stroke-width="2" stroke-opacity="0.200000" d="M412.4256,-1175.1293C424.6739,-1177.8692 439.3252,-1181.1316 452.5289,-1184.0314 460.4066,-1185.7614 468.7593,-1187.5813 476.9068,-1189.3486"/>
<polygon fill="#000000" fill-opacity="0.200000" stroke="#000000" stroke-width="2" stroke-opacity="0.200000" points="476.7774,-1191.4692 483.086,-1190.6875 477.6668,-1187.3645 476.7774,-1191.4692"/>
</g>
<!-- src/components/FieldsCombiner/styled/StyledFieldsCombinerWrapper.ts -->
<g id="node20" class="node">
<title>src/components/FieldsCombiner/styled/StyledFieldsCombinerWrapper.ts</title>
<g id="a_node20"><a xlink:href="src/components/FieldsCombiner/styled/StyledFieldsCombinerWrapper.ts" xlink:title="StyledFieldsCombinerWrapper.ts">
<path fill="#ddfeff" stroke="#000000" d="M594.3367,-1178.3324C594.3367,-1178.3324 458.7268,-1178.3324 458.7268,-1178.3324 455.6264,-1178.3324 452.526,-1175.2321 452.526,-1172.1317 452.526,-1172.1317 452.526,-1165.931 452.526,-1165.931 452.526,-1162.8306 455.6264,-1159.7303 458.7268,-1159.7303 458.7268,-1159.7303 594.3367,-1159.7303 594.3367,-1159.7303 597.4371,-1159.7303 600.5375,-1162.8306 600.5375,-1165.931 600.5375,-1165.931 600.5375,-1172.1317 600.5375,-1172.1317 600.5375,-1175.2321 597.4371,-1178.3324 594.3367,-1178.3324"/>
<text text-anchor="start" x="460.5289" y="-1166.3314" font-family="Helvetica,sans-Serif" font-size="9.00" fill="#000000">StyledFieldsCombinerWrapper.ts</text>
</a>
</g>
</g>
<!-- src/components/FieldsCombiner/styled/index.ts&#45;&gt;src/components/FieldsCombiner/styled/StyledFieldsCombinerWrapper.ts -->
<g id="edge21" class="edge">
<title>src/components/FieldsCombiner/styled/index.ts&#45;&gt;src/components/FieldsCombiner/styled/StyledFieldsCombinerWrapper.ts</title>
<path fill="none" stroke="#000000" stroke-width="2" stroke-opacity="0.200000" d="M412.5096,-1169.0314C422.3406,-1169.0314 434.003,-1169.0314 446.0556,-1169.0314"/>
<polygon fill="#000000" fill-opacity="0.200000" stroke="#000000" stroke-width="2" stroke-opacity="0.200000" points="446.3863,-1171.1314 452.3863,-1169.0314 446.3862,-1166.9314 446.3863,-1171.1314"/>
</g>
<!-- src/components/FieldsCombiner/index.ts -->
<g id="node18" class="node">
<title>src/components/FieldsCombiner/index.ts</title>
<g id="a_node18"><a xlink:href="src/components/FieldsCombiner/index.ts" xlink:title="index.ts">
<path fill="#ddfeff" stroke="#000000" d="M203.7993,-1144.3324C203.7993,-1144.3324 162.2007,-1144.3324 162.2007,-1144.3324 159.1004,-1144.3324 156,-1141.2321 156,-1138.1317 156,-1138.1317 156,-1131.931 156,-1131.931 156,-1128.8306 159.1004,-1125.7303 162.2007,-1125.7303 162.2007,-1125.7303 203.7993,-1125.7303 203.7993,-1125.7303 206.8996,-1125.7303 210,-1128.8306 210,-1131.931 210,-1131.931 210,-1138.1317 210,-1138.1317 210,-1141.2321 206.8996,-1144.3324 203.7993,-1144.3324"/>
<text text-anchor="start" x="167.4957" y="-1132.3314" font-family="Helvetica,sans-Serif" font-size="9.00" fill="#000000">index.ts</text>
</a>
</g>
</g>
<!-- src/components/FieldsCombiner/index.ts&#45;&gt;src/components/FieldsCombiner/FieldsCombiner.tsx -->
<g id="edge19" class="edge">
<title>src/components/FieldsCombiner/index.ts&#45;&gt;src/components/FieldsCombiner/FieldsCombiner.tsx</title>
<path fill="none" stroke="#000000" stroke-width="2" stroke-opacity="0.200000" d="M210.2087,-1135.0314C212.6358,-1135.0314 215.1426,-1135.0314 217.6923,-1135.0314"/>
<polygon fill="#000000" fill-opacity="0.200000" stroke="#000000" stroke-width="2" stroke-opacity="0.200000" points="217.7023,-1137.1315 223.7023,-1135.0314 217.7023,-1132.9315 217.7023,-1137.1315"/>
</g>
<!-- src/components/Input/Input.tsx -->
<g id="node21" class="node">
<title>src/components/Input/Input.tsx</title>
<g id="a_node21"><a xlink:href="src/components/Input/Input.tsx" xlink:title="Input.tsx">
<path fill="#bbfeff" stroke="#000000" d="M291.3084,-886.3324C291.3084,-886.3324 249.7098,-886.3324 249.7098,-886.3324 246.6095,-886.3324 243.5091,-883.2321 243.5091,-880.1317 243.5091,-880.1317 243.5091,-873.931 243.5091,-873.931 243.5091,-870.8306 246.6095,-867.7303 249.7098,-867.7303 249.7098,-867.7303 291.3084,-867.7303 291.3084,-867.7303 294.4087,-867.7303 297.5091,-870.8306 297.5091,-873.931 297.5091,-873.931 297.5091,-880.1317 297.5091,-880.1317 297.5091,-883.2321 294.4087,-886.3324 291.3084,-886.3324"/>
<text text-anchor="start" x="253.5023" y="-874.3314" font-family="Helvetica,sans-Serif" font-size="9.00" fill="#000000">Input.tsx</text>
</a>
</g>
</g>
<!-- src/components/Input/Input.tsx&#45;&gt;@devoinc/genesys&#45;ui -->
<g id="edge23" class="edge">
<title>src/components/Input/Input.tsx&#45;&gt;@devoinc/genesys&#45;ui</title>
<path fill="none" stroke="#000000" stroke-width="2" stroke-opacity="0.200000" d="M297.7698,-872.8909C308.3938,-869.8062 319.5518,-864.4235 326.0182,-855.0314 336.1319,-840.3416 321.8592,-226.0788 334.0182,-213.0314 363.2851,-181.6261 483.6035,-197.0314 526.5318,-197.0314 526.5318,-197.0314 526.5318,-197.0314 659.5346,-197.0314 724.8565,-197.0314 800.8625,-191.2897 844.501,-187.4379"/>
<polygon fill="#000000" fill-opacity="0.200000" stroke="#000000" stroke-width="2" stroke-opacity="0.200000" points="844.9102,-189.5098 850.6995,-186.8843 844.5364,-185.3265 844.9102,-189.5098"/>
</g>
<!-- src/utils/validations.ts -->
<g id="node22" class="node">
<title>src/utils/validations.ts</title>
<g id="a_node22"><a xlink:href="src/utils/validations.ts" xlink:title="validations.ts">
<path fill="#ddfeff" stroke="#000000" d="M413.0829,-1324.3324C413.0829,-1324.3324 357.4642,-1324.3324 357.4642,-1324.3324 354.3638,-1324.3324 351.2634,-1321.2321 351.2634,-1318.1317 351.2634,-1318.1317 351.2634,-1311.931 351.2634,-1311.931 351.2634,-1308.8306 354.3638,-1305.7303 357.4642,-1305.7303 357.4642,-1305.7303 413.0829,-1305.7303 413.0829,-1305.7303 416.1833,-1305.7303 419.2837,-1308.8306 419.2837,-1311.931 419.2837,-1311.931 419.2837,-1318.1317 419.2837,-1318.1317 419.2837,-1321.2321 416.1833,-1324.3324 413.0829,-1324.3324"/>
<text text-anchor="start" x="359.2685" y="-1312.3314" font-family="Helvetica,sans-Serif" font-size="9.00" fill="#000000">validations.ts</text>
</a>
</g>
</g>
<!-- src/components/Input/Input.tsx&#45;&gt;src/utils/validations.ts -->
<g id="edge22" class="edge">
<title>src/components/Input/Input.tsx&#45;&gt;src/utils/validations.ts</title>
<path fill="none" stroke="#000000" stroke-width="2" stroke-opacity="0.200000" d="M291.2648,-886.3876C303.7466,-893.2238 318.608,-903.7896 326.0182,-918.0314 342.4861,-949.6811 323.1639,-1205.0448 334.0182,-1239.0314 341.7612,-1263.276 359.8323,-1286.8881 372.3059,-1301.1967"/>
<polygon fill="#000000" fill-opacity="0.200000" stroke="#000000" stroke-width="2" stroke-opacity="0.200000" points="370.7399,-1302.5959 376.2986,-1305.68 373.8764,-1299.8026 370.7399,-1302.5959"/>
</g>
<!-- src/components/Input/index.ts -->
<g id="node23" class="node">
<title>src/components/Input/index.ts</title>
<g id="a_node23"><a xlink:href="src/components/Input/index.ts" xlink:title="index.ts">
<path fill="#ddfeff" stroke="#000000" d="M203.7993,-886.3324C203.7993,-886.3324 162.2007,-886.3324 162.2007,-886.3324 159.1004,-886.3324 156,-883.2321 156,-880.1317 156,-880.1317 156,-873.931 156,-873.931 156,-870.8306 159.1004,-867.7303 162.2007,-867.7303 162.2007,-867.7303 203.7993,-867.7303 203.7993,-867.7303 206.8996,-867.7303 210,-870.8306 210,-873.931 210,-873.931 210,-880.1317 210,-880.1317 210,-883.2321 206.8996,-886.3324 203.7993,-886.3324"/>
<text text-anchor="start" x="167.4957" y="-874.3314" font-family="Helvetica,sans-Serif" font-size="9.00" fill="#000000">index.ts</text>
</a>
</g>
</g>
<!-- src/components/Input/index.ts&#45;&gt;src/components/Input/Input.tsx -->
<g id="edge24" class="edge">
<title>src/components/Input/index.ts&#45;&gt;src/components/Input/Input.tsx</title>
<path fill="none" stroke="#000000" stroke-width="2" stroke-opacity="0.200000" d="M210.2087,-877.0314C218.7695,-877.0314 228.3212,-877.0314 237.2527,-877.0314"/>
<polygon fill="#000000" fill-opacity="0.200000" stroke="#000000" stroke-width="2" stroke-opacity="0.200000" points="237.3172,-879.1315 243.3172,-877.0314 237.3172,-874.9315 237.3172,-879.1315"/>
</g>
<!-- src/components/Radio/Radio.tsx -->
<g id="node24" class="node">
<title>src/components/Radio/Radio.tsx</title>
<g id="a_node24"><a xlink:href="src/components/Radio/Radio.tsx" xlink:title="Radio.tsx">
<path fill="#bbfeff" stroke="#000000" d="M291.3084,-672.3324C291.3084,-672.3324 249.7098,-672.3324 249.7098,-672.3324 246.6095,-672.3324 243.5091,-669.2321 243.5091,-666.1317 243.5091,-666.1317 243.5091,-659.931 243.5091,-659.931 243.5091,-656.8306 246.6095,-653.7303 249.7098,-653.7303 249.7098,-653.7303 291.3084,-653.7303 291.3084,-653.7303 294.4087,-653.7303 297.5091,-656.8306 297.5091,-659.931 297.5091,-659.931 297.5091,-666.1317 297.5091,-666.1317 297.5091,-669.2321 294.4087,-672.3324 291.3084,-672.3324"/>
<text text-anchor="start" x="251.7563" y="-660.3314" font-family="Helvetica,sans-Serif" font-size="9.00" fill="#000000">Radio.tsx</text>
</a>
</g>
</g>
<!-- src/components/Radio/Radio.tsx&#45;&gt;@devoinc/genesys&#45;ui -->
<g id="edge25" class="edge">
<title>src/components/Radio/Radio.tsx&#45;&gt;@devoinc/genesys&#45;ui</title>
<path fill="none" stroke="#000000" stroke-width="2" stroke-opacity="0.200000" d="M297.7545,-658.8803C308.3758,-655.7938 319.5361,-650.4127 326.0182,-641.0314 342.0002,-617.9011 314.8163,-155.5672 334.0182,-135.0314 363.3376,-103.6752 483.6035,-119.0314 526.5318,-119.0314 526.5318,-119.0314 526.5318,-119.0314 659.5346,-119.0314 737.6441,-119.0314 764.4022,-100.677 834.5511,-135.0314 850.1421,-142.6668 863.0975,-158.0389 871.1958,-169.5402"/>
<polygon fill="#000000" fill-opacity="0.200000" stroke="#000000" stroke-width="2" stroke-opacity="0.200000" points="869.4609,-170.7237 874.5668,-174.5105 872.9369,-168.3661 869.4609,-170.7237"/>
</g>
<!-- src/components/Radio/index.ts -->
<g id="node25" class="node">
<title>src/components/Radio/index.ts</title>
<g id="a_node25"><a xlink:href="src/components/Radio/index.ts" xlink:title="index.ts">
<path fill="#ddfeff" stroke="#000000" d="M203.7993,-672.3324C203.7993,-672.3324 162.2007,-672.3324 162.2007,-672.3324 159.1004,-672.3324 156,-669.2321 156,-666.1317 156,-666.1317 156,-659.931 156,-659.931 156,-656.8306 159.1004,-653.7303 162.2007,-653.7303 162.2007,-653.7303 203.7993,-653.7303 203.7993,-653.7303 206.8996,-653.7303 210,-656.8306 210,-659.931 210,-659.931 210,-666.1317 210,-666.1317 210,-669.2321 206.8996,-672.3324 203.7993,-672.3324"/>
<text text-anchor="start" x="167.4957" y="-660.3314" font-family="Helvetica,sans-Serif" font-size="9.00" fill="#000000">index.ts</text>
</a>
</g>
</g>
<!-- src/components/Radio/index.ts&#45;&gt;src/components/Radio/Radio.tsx -->
<g id="edge26" class="edge">
<title>src/components/Radio/index.ts&#45;&gt;src/components/Radio/Radio.tsx</title>
<path fill="none" stroke="#000000" stroke-width="2" stroke-opacity="0.200000" d="M210.2087,-663.0314C218.7695,-663.0314 228.3212,-663.0314 237.2527,-663.0314"/>
<polygon fill="#000000" fill-opacity="0.200000" stroke="#000000" stroke-width="2" stroke-opacity="0.200000" points="237.3172,-665.1315 243.3172,-663.0314 237.3172,-660.9315 237.3172,-665.1315"/>
</g>
<!-- src/components/RadioGroup/RadioGroup.tsx -->
<g id="node26" class="node">
<title>src/components/RadioGroup/RadioGroup.tsx</title>
<g id="a_node26"><a xlink:href="src/components/RadioGroup/RadioGroup.tsx" xlink:title="RadioGroup.tsx">
<path fill="#bbfeff" stroke="#000000" d="M303.3221,-611.3324C303.3221,-611.3324 237.6961,-611.3324 237.6961,-611.3324 234.5957,-611.3324 231.4954,-608.2321 231.4954,-605.1317 231.4954,-605.1317 231.4954,-598.931 231.4954,-598.931 231.4954,-595.8306 234.5957,-592.7303 237.6961,-592.7303 237.6961,-592.7303 303.3221,-592.7303 303.3221,-592.7303 306.4225,-592.7303 309.5228,-595.8306 309.5228,-598.931 309.5228,-598.931 309.5228,-605.1317 309.5228,-605.1317 309.5228,-608.2321 306.4225,-611.3324 303.3221,-611.3324"/>
<text text-anchor="start" x="239.253" y="-599.3314" font-family="Helvetica,sans-Serif" font-size="9.00" fill="#000000">RadioGroup.tsx</text>
</a>
</g>
</g>
<!-- src/components/RadioGroup/RadioGroup.tsx&#45;&gt;@devoinc/genesys&#45;ui -->
<g id="edge27" class="edge">
<title>src/components/RadioGroup/RadioGroup.tsx&#45;&gt;@devoinc/genesys&#45;ui</title>
<path fill="none" stroke="#000000" stroke-width="2" stroke-opacity="0.200000" d="M309.58,-593.3805C316.0403,-590.2232 321.9487,-585.9136 326.0182,-580.0314 340.9077,-558.5094 316.1329,-128.1366 334.0182,-109.0314 363.356,-77.6924 483.6035,-93.0314 526.5318,-93.0314 526.5318,-93.0314 526.5318,-93.0314 659.5346,-93.0314 737.6441,-93.0314 768.252,-67.7334 834.5511,-109.0314 856.4587,-122.6777 869.3957,-151.0534 875.6492,-168.7234"/>
<polygon fill="#000000" fill-opacity="0.200000" stroke="#000000" stroke-width="2" stroke-opacity="0.200000" points="873.7555,-169.6815 877.6549,-174.7019 877.7374,-168.3455 873.7555,-169.6815"/>
</g>
<!-- src/components/RadioGroup/index.ts -->
<g id="node27" class="node">
<title>src/components/RadioGroup/index.ts</title>
<g id="a_node27"><a xlink:href="src/components/RadioGroup/index.ts" xlink:title="index.ts">
<path fill="#ddfeff" stroke="#000000" d="M203.7993,-611.3324C203.7993,-611.3324 162.2007,-611.3324 162.2007,-611.3324 159.1004,-611.3324 156,-608.2321 156,-605.1317 156,-605.1317 156,-598.931 156,-598.931 156,-595.8306 159.1004,-592.7303 162.2007,-592.7303 162.2007,-592.7303 203.7993,-592.7303 203.7993,-592.7303 206.8996,-592.7303 210,-595.8306 210,-598.931 210,-598.931 210,-605.1317 210,-605.1317 210,-608.2321 206.8996,-611.3324 203.7993,-611.3324"/>
<text text-anchor="start" x="167.4957" y="-599.3314" font-family="Helvetica,sans-Serif" font-size="9.00" fill="#000000">index.ts</text>
</a>
</g>
</g>
<!-- src/components/RadioGroup/index.ts&#45;&gt;src/components/RadioGroup/RadioGroup.tsx -->
<g id="edge28" class="edge">
<title>src/components/RadioGroup/index.ts&#45;&gt;src/components/RadioGroup/RadioGroup.tsx</title>
<path fill="none" stroke="#000000" stroke-width="2" stroke-opacity="0.200000" d="M210.2087,-602.0314C215.041,-602.0314 220.189,-602.0314 225.363,-602.0314"/>
<polygon fill="#000000" fill-opacity="0.200000" stroke="#000000" stroke-width="2" stroke-opacity="0.200000" points="225.4315,-604.1315 231.4314,-602.0314 225.4314,-599.9315 225.4315,-604.1315"/>
</g>
<!-- src/components/Select/Select.tsx -->
<g id="node28" class="node">
<title>src/components/Select/Select.tsx</title>
<g id="a_node28"><a xlink:href="src/components/Select/Select.tsx" xlink:title="Select.tsx">
<path fill="#bbfeff" stroke="#000000" d="M291.8171,-550.3324C291.8171,-550.3324 249.2011,-550.3324 249.2011,-550.3324 246.1008,-550.3324 243.0004,-547.2321 243.0004,-544.1317 243.0004,-544.1317 243.0004,-537.931 243.0004,-537.931 243.0004,-534.8306 246.1008,-531.7303 249.2011,-531.7303 249.2011,-531.7303 291.8171,-531.7303 291.8171,-531.7303 294.9174,-531.7303 298.0178,-534.8306 298.0178,-537.931 298.0178,-537.931 298.0178,-544.1317 298.0178,-544.1317 298.0178,-547.2321 294.9174,-550.3324 291.8171,-550.3324"/>
<text text-anchor="start" x="251.0048" y="-538.3314" font-family="Helvetica,sans-Serif" font-size="9.00" fill="#000000">Select.tsx</text>
</a>
</g>
</g>
<!-- src/components/Select/Select.tsx&#45;&gt;@devoinc/genesys&#45;ui -->
<g id="edge29" class="edge">
<title>src/components/Select/Select.tsx&#45;&gt;@devoinc/genesys&#45;ui</title>
<path fill="none" stroke="#000000" stroke-width="2" stroke-opacity="0.200000" d="M298.0326,-536.7875C308.5648,-533.6863 319.5832,-528.3192 326.0182,-519.0314 339.8152,-499.1176 317.4495,-100.706 334.0182,-83.0314 363.3774,-51.7124 483.6035,-67.0314 526.5318,-67.0314 526.5318,-67.0314 526.5318,-67.0314 659.5346,-67.0314 737.6441,-67.0314 770.9025,-37.7549 834.5511,-83.0314 862.9621,-103.2415 874.0742,-145.4109 878.144,-168.3506"/>
<polygon fill="#000000" fill-opacity="0.200000" stroke="#000000" stroke-width="2" stroke-opacity="0.200000" points="876.1152,-168.9582 879.1532,-174.5421 880.2605,-168.2824 876.1152,-168.9582"/>
</g>
<!-- src/components/Select/index.ts -->
<g id="node29" class="node">
<title>src/components/Select/index.ts</title>
<g id="a_node29"><a xlink:href="src/components/Select/index.ts" xlink:title="index.ts">
<path fill="#ddfeff" stroke="#000000" d="M203.7993,-550.3324C203.7993,-550.3324 162.2007,-550.3324 162.2007,-550.3324 159.1004,-550.3324 156,-547.2321 156,-544.1317 156,-544.1317 156,-537.931 156,-537.931 156,-534.8306 159.1004,-531.7303 162.2007,-531.7303 162.2007,-531.7303 203.7993,-531.7303 203.7993,-531.7303 206.8996,-531.7303 210,-534.8306 210,-537.931 210,-537.931 210,-544.1317 210,-544.1317 210,-547.2321 206.8996,-550.3324 203.7993,-550.3324"/>
<text text-anchor="start" x="167.4957" y="-538.3314" font-family="Helvetica,sans-Serif" font-size="9.00" fill="#000000">index.ts</text>
</a>
</g>
</g>
<!-- src/components/Select/index.ts&#45;&gt;src/components/Select/Select.tsx -->
<g id="edge30" class="edge">
<title>src/components/Select/index.ts&#45;&gt;src/components/Select/Select.tsx</title>
<path fill="none" stroke="#000000" stroke-width="2" stroke-opacity="0.200000" d="M210.2087,-541.0314C218.5257,-541.0314 227.778,-541.0314 236.4882,-541.0314"/>
<polygon fill="#000000" fill-opacity="0.200000" stroke="#000000" stroke-width="2" stroke-opacity="0.200000" points="236.7136,-543.1314 242.7136,-541.0314 236.7136,-538.9314 236.7136,-543.1314"/>
</g>
<!-- src/components/Switch/Switch.tsx -->
<g id="node30" class="node">
<title>src/components/Switch/Switch.tsx</title>
<g id="a_node30"><a xlink:href="src/components/Switch/Switch.tsx" xlink:title="Switch.tsx">
<path fill="#bbfeff" stroke="#000000" d="M292.3133,-489.3324C292.3133,-489.3324 248.7049,-489.3324 248.7049,-489.3324 245.6046,-489.3324 242.5042,-486.2321 242.5042,-483.1317 242.5042,-483.1317 242.5042,-476.931 242.5042,-476.931 242.5042,-473.8306 245.6046,-470.7303 248.7049,-470.7303 248.7049,-470.7303 292.3133,-470.7303 292.3133,-470.7303 295.4136,-470.7303 298.514,-473.8306 298.514,-476.931 298.514,-476.931 298.514,-483.1317 298.514,-483.1317 298.514,-486.2321 295.4136,-489.3324 292.3133,-489.3324"/>
<text text-anchor="start" x="250.2578" y="-477.3314" font-family="Helvetica,sans-Serif" font-size="9.00" fill="#000000">Switch.tsx</text>
</a>
</g>
</g>
<!-- src/components/Switch/Switch.tsx&#45;&gt;@devoinc/genesys&#45;ui -->
<g id="edge31" class="edge">
<title>src/components/Switch/Switch.tsx&#45;&gt;@devoinc/genesys&#45;ui</title>
<path fill="none" stroke="#000000" stroke-width="2" stroke-opacity="0.200000" d="M298.6054,-475.6093C308.9591,-472.4821 319.694,-467.1437 326.0182,-458.0314 338.7227,-439.7258 318.7661,-73.2755 334.0182,-57.0314 363.4024,-25.7359 483.6035,-41.0314 526.5318,-41.0314 526.5318,-41.0314 526.5318,-41.0314 659.5346,-41.0314 737.6441,-41.0314 772.7536,-9.2594 834.5511,-57.0314 852.727,-71.082 869.8986,-138.0982 876.9439,-168.713"/>
<polygon fill="#000000" fill-opacity="0.200000" stroke="#000000" stroke-width="2" stroke-opacity="0.200000" points="874.9174,-169.2729 878.2903,-174.6612 879.0138,-168.3456 874.9174,-169.2729"/>
</g>
<!-- src/components/Switch/index.ts -->
<g id="node31" class="node">
<title>src/components/Switch/index.ts</title>
<g id="a_node31"><a xlink:href="src/components/Switch/index.ts" xlink:title="index.ts">
<path fill="#ddfeff" stroke="#000000" d="M203.7993,-489.3324C203.7993,-489.3324 162.2007,-489.3324 162.2007,-489.3324 159.1004,-489.3324 156,-486.2321 156,-483.1317 156,-483.1317 156,-476.931 156,-476.931 156,-473.8306 159.1004,-470.7303 162.2007,-470.7303 162.2007,-470.7303 203.7993,-470.7303 203.7993,-470.7303 206.8996,-470.7303 210,-473.8306 210,-476.931 210,-476.931 210,-483.1317 210,-483.1317 210,-486.2321 206.8996,-489.3324 203.7993,-489.3324"/>
<text text-anchor="start" x="167.4957" y="-477.3314" font-family="Helvetica,sans-Serif" font-size="9.00" fill="#000000">index.ts</text>
</a>
</g>
</g>
<!-- src/components/Switch/index.ts&#45;&gt;src/components/Switch/Switch.tsx -->
<g id="edge32" class="edge">
<title>src/components/Switch/index.ts&#45;&gt;src/components/Switch/Switch.tsx</title>
<path fill="none" stroke="#000000" stroke-width="2" stroke-opacity="0.200000" d="M210.2087,-480.0314C218.4449,-480.0314 227.5984,-480.0314 236.2343,-480.0314"/>
<polygon fill="#000000" fill-opacity="0.200000" stroke="#000000" stroke-width="2" stroke-opacity="0.200000" points="236.4106,-482.1314 242.4106,-480.0314 236.4106,-477.9314 236.4106,-482.1314"/>
</g>
<!-- src/components/Textarea/Textarea.tsx -->
<g id="node32" class="node">
<title>src/components/Textarea/Textarea.tsx</title>
<g id="a_node32"><a xlink:href="src/components/Textarea/Textarea.tsx" xlink:title="Textarea.tsx">
<path fill="#bbfeff" stroke="#000000" d="M296.8201,-428.3324C296.8201,-428.3324 244.1981,-428.3324 244.1981,-428.3324 241.0977,-428.3324 237.9974,-425.2321 237.9974,-422.1317 237.9974,-422.1317 237.9974,-415.931 237.9974,-415.931 237.9974,-412.8306 241.0977,-409.7303 244.1981,-409.7303 244.1981,-409.7303 296.8201,-409.7303 296.8201,-409.7303 299.9205,-409.7303 303.0208,-412.8306 303.0208,-415.931 303.0208,-415.931 303.0208,-422.1317 303.0208,-422.1317 303.0208,-425.2321 299.9205,-428.3324 296.8201,-428.3324"/>
<text text-anchor="start" x="245.7542" y="-416.3314" font-family="Helvetica,sans-Serif" font-size="9.00" fill="#000000">Textarea.tsx</text>
</a>
</g>
</g>
<!-- src/components/Textarea/Textarea.tsx&#45;&gt;@devoinc/genesys&#45;ui -->
<g id="edge33" class="edge">
<title>src/components/Textarea/Textarea.tsx&#45;&gt;@devoinc/genesys&#45;ui</title>
<path fill="none" stroke="#000000" stroke-width="2" stroke-opacity="0.200000" d="M271.3794,-409.4185C276.652,-352.1742 305.0617,-57.7775 334.0182,-31.0314 397.0875,27.2234 440.6752,-15.0314 526.5318,-15.0314 526.5318,-15.0314 526.5318,-15.0314 659.5346,-15.0314 737.6441,-15.0314 774.0957,18.4281 834.5511,-31.0314 856.1664,-48.7151 872.0968,-133.3192 877.9035,-168.5653"/>
<polygon fill="#000000" fill-opacity="0.200000" stroke="#000000" stroke-width="2" stroke-opacity="0.200000" points="875.8393,-168.9563 878.869,-174.5448 879.9856,-168.2867 875.8393,-168.9563"/>
</g>
<!-- src/components/Textarea/index.ts -->
<g id="node33" class="node">
<title>src/components/Textarea/index.ts</title>
<g id="a_node33"><a xlink:href="src/components/Textarea/index.ts" xlink:title="index.ts">
<path fill="#ddfeff" stroke="#000000" d="M203.7993,-428.3324C203.7993,-428.3324 162.2007,-428.3324 162.2007,-428.3324 159.1004,-428.3324 156,-425.2321 156,-422.1317 156,-422.1317 156,-415.931 156,-415.931 156,-412.8306 159.1004,-409.7303 162.2007,-409.7303 162.2007,-409.7303 203.7993,-409.7303 203.7993,-409.7303 206.8996,-409.7303 210,-412.8306 210,-415.931 210,-415.931 210,-422.1317 210,-422.1317 210,-425.2321 206.8996,-428.3324 203.7993,-428.3324"/>
<text text-anchor="start" x="167.4957" y="-416.3314" font-family="Helvetica,sans-Serif" font-size="9.00" fill="#000000">index.ts</text>
</a>
</g>
</g>
<!-- src/components/Textarea/index.ts&#45;&gt;src/components/Textarea/Textarea.tsx -->
<g id="edge34" class="edge">
<title>src/components/Textarea/index.ts&#45;&gt;src/components/Textarea/Textarea.tsx</title>
<path fill="none" stroke="#000000" stroke-width="2" stroke-opacity="0.200000" d="M210.2087,-419.0314C217.0291,-419.0314 224.4785,-419.0314 231.7421,-419.0314"/>
<polygon fill="#000000" fill-opacity="0.200000" stroke="#000000" stroke-width="2" stroke-opacity="0.200000" points="231.782,-421.1315 237.782,-419.0314 231.782,-416.9315 231.782,-421.1315"/>
</g>
<!-- src/components/UploadFiles/StyledUploadFiles.tsx -->
<g id="node34" class="node">
<title>src/components/UploadFiles/StyledUploadFiles.tsx</title>
<g id="a_node34"><a xlink:href="src/components/UploadFiles/StyledUploadFiles.tsx" xlink:title="StyledUploadFiles.tsx">
<path fill="#bbfeff" stroke="#000000" d="M430.0847,-764.3324C430.0847,-764.3324 340.4624,-764.3324 340.4624,-764.3324 337.362,-764.3324 334.2617,-761.2321 334.2617,-758.1317 334.2617,-758.1317 334.2617,-751.931 334.2617,-751.931 334.2617,-748.8306 337.362,-745.7303 340.4624,-745.7303 340.4624,-745.7303 430.0847,-745.7303 430.0847,-745.7303 433.1851,-745.7303 436.2854,-748.8306 436.2854,-751.931 436.2854,-751.931 436.2854,-758.1317 436.2854,-758.1317 436.2854,-761.2321 433.1851,-764.3324 430.0847,-764.3324"/>
<text text-anchor="start" x="342.0182" y="-752.3314" font-family="Helvetica,sans-Serif" font-size="9.00" fill="#000000">StyledUploadFiles.tsx</text>
</a>
</g>
</g>
<!-- src/components/UploadFiles/StyledUploadFiles.tsx&#45;&gt;@devoinc/genesys&#45;ui -->
<g id="edge36" class="edge">
<title>src/components/UploadFiles/StyledUploadFiles.tsx&#45;&gt;@devoinc/genesys&#45;ui</title>
<path fill="none" stroke="#000000" stroke-width="2" stroke-opacity="0.200000" d="M431.1057,-745.6717C435.8125,-743.8359 440.3822,-741.645 444.5289,-739.0314 669.57,-597.1911 691.552,-509.3378 834.5511,-285.0314 852.7445,-256.4934 867.5287,-219.5167 875.0054,-199.1521"/>
<polygon fill="#000000" fill-opacity="0.200000" stroke="#000000" stroke-width="2" stroke-opacity="0.200000" points="877.0223,-199.7497 877.0868,-193.3931 873.0724,-198.322 877.0223,-199.7497"/>
</g>
<!-- src/components/UploadFiles/StyledUploadFiles.tsx&#45;&gt;node_modules/@devoinc/genesys&#45;icons/ -->
<g id="edge35" class="edge">
<title>src/components/UploadFiles/StyledUploadFiles.tsx&#45;&gt;node_modules/@devoinc/genesys&#45;icons/</title>
<path fill="none" stroke="#000000" stroke-opacity="0.200000" d="M436.2894,-746.3494C439.3905,-744.3521 442.1943,-741.9398 444.5289,-739.0314 456.7133,-723.8518 449.2879,-583.2244 452.5289,-564.0314 467.8614,-473.2324 505.8142,-368.8691 520.5489,-330.3437"/>
<polygon fill="#000000" fill-opacity="0.200000" stroke="#000000" stroke-opacity="0.200000" points="522.6668,-330.6877 522.8642,-324.3339 518.7475,-329.1778 522.6668,-330.6877"/>
</g>
<!-- src/components/UploadFiles/UploadFiles.tsx -->
<g id="node35" class="node">
<title>src/components/UploadFiles/UploadFiles.tsx</title>
<g id="a_node35"><a xlink:href="src/components/UploadFiles/UploadFiles.tsx" xlink:title="UploadFiles.tsx">
<path fill="#bbfeff" stroke="#000000" d="M302.8142,-733.3324C302.8142,-733.3324 238.204,-733.3324 238.204,-733.3324 235.1037,-733.3324 232.0033,-730.2321 232.0033,-727.1317 232.0033,-727.1317 232.0033,-720.931 232.0033,-720.931 232.0033,-717.8306 235.1037,-714.7303 238.204,-714.7303 238.204,-714.7303 302.8142,-714.7303 302.8142,-714.7303 305.9145,-714.7303 309.0149,-717.8306 309.0149,-720.931 309.0149,-720.931 309.0149,-727.1317 309.0149,-727.1317 309.0149,-730.2321 305.9145,-733.3324 302.8142,-733.3324"/>
<text text-anchor="start" x="239.757" y="-721.3314" font-family="Helvetica,sans-Serif" font-size="9.00" fill="#000000">UploadFiles.tsx</text>
</a>
</g>
</g>
<!-- src/components/UploadFiles/UploadFiles.tsx&#45;&gt;@devoinc/genesys&#45;ui -->
<g id="edge39" class="edge">
<title>src/components/UploadFiles/UploadFiles.tsx&#45;&gt;@devoinc/genesys&#45;ui</title>
<path fill="none" stroke="#000000" stroke-width="2" stroke-opacity="0.200000" d="M309.0273,-715.6594C315.7059,-712.4783 321.8374,-708.0887 326.0182,-702.0314 343.0928,-677.2929 313.4997,-182.9978 334.0182,-161.0314 363.3216,-129.6602 483.6035,-145.0314 526.5318,-145.0314 526.5318,-145.0314 526.5318,-145.0314 659.5346,-145.0314 737.6441,-145.0314 759.4508,-139.5595 834.5511,-161.0314 843.1339,-163.4853 852.0226,-167.5524 859.6569,-171.5897"/>
<polygon fill="#000000" fill-opacity="0.200000" stroke="#000000" stroke-width="2" stroke-opacity="0.200000" points="858.954,-173.5994 865.2245,-174.6441 860.9742,-169.9171 858.954,-173.5994"/>
</g>
<!-- src/components/UploadFiles/UploadFiles.tsx&#45;&gt;src/components/UploadFiles/StyledUploadFiles.tsx -->
<g id="edge37" class="edge">
<title>src/components/UploadFiles/UploadFiles.tsx&#45;&gt;src/components/UploadFiles/StyledUploadFiles.tsx</title>
<path fill="none" stroke="#000000" stroke-width="2" stroke-opacity="0.200000" d="M305.2537,-733.4165C317.7256,-736.7854 331.8968,-740.6133 344.812,-744.102"/>
<polygon fill="#000000" fill-opacity="0.200000" stroke="#000000" stroke-width="2" stroke-opacity="0.200000" points="344.307,-746.1407 350.6471,-745.6781 345.4023,-742.0861 344.307,-746.1407"/>
</g>
<!-- src/components/UploadFiles/utils.ts -->
<g id="node36" class="node">
<title>src/components/UploadFiles/utils.ts</title>
<g id="a_node36"><a xlink:href="src/components/UploadFiles/utils.ts" xlink:title="utils.ts">
<path fill="#ddfeff" stroke="#000000" d="M406.0728,-733.3324C406.0728,-733.3324 364.4743,-733.3324 364.4743,-733.3324 361.3739,-733.3324 358.2736,-730.2321 358.2736,-727.1317 358.2736,-727.1317 358.2736,-720.931 358.2736,-720.931 358.2736,-717.8306 361.3739,-714.7303 364.4743,-714.7303 364.4743,-714.7303 406.0728,-714.7303 406.0728,-714.7303 409.1732,-714.7303 412.2736,-717.8306 412.2736,-720.931 412.2736,-720.931 412.2736,-727.1317 412.2736,-727.1317 412.2736,-730.2321 409.1732,-733.3324 406.0728,-733.3324"/>
<text text-anchor="start" x="372.5233" y="-721.3314" font-family="Helvetica,sans-Serif" font-size="9.00" fill="#000000">utils.ts</text>
</a>
</g>
</g>
<!-- src/components/UploadFiles/UploadFiles.tsx&#45;&gt;src/components/UploadFiles/utils.ts -->
<g id="edge38" class="edge">
<title>src/components/UploadFiles/UploadFiles.tsx&#45;&gt;src/components/UploadFiles/utils.ts</title>
<path fill="none" stroke="#000000" stroke-width="2" stroke-opacity="0.200000" d="M309.0433,-724.0314C323.0476,-724.0314 338.737,-724.0314 352.2248,-724.0314"/>
<polygon fill="#000000" fill-opacity="0.200000" stroke="#000000" stroke-width="2" stroke-opacity="0.200000" points="352.2531,-726.1315 358.2531,-724.0314 352.253,-721.9315 352.2531,-726.1315"/>
</g>
<!-- src/components/UploadFiles/index.ts -->
<g id="node37" class="node">
<title>src/components/UploadFiles/index.ts</title>
<g id="a_node37"><a xlink:href="src/components/UploadFiles/index.ts" xlink:title="index.ts">
<path fill="#ddfeff" stroke="#000000" d="M203.7993,-733.3324C203.7993,-733.3324 162.2007,-733.3324 162.2007,-733.3324 159.1004,-733.3324 156,-730.2321 156,-727.1317 156,-727.1317 156,-720.931 156,-720.931 156,-717.8306 159.1004,-714.7303 162.2007,-714.7303 162.2007,-714.7303 203.7993,-714.7303 203.7993,-714.7303 206.8996,-714.7303 210,-717.8306 210,-720.931 210,-720.931 210,-727.1317 210,-727.1317 210,-730.2321 206.8996,-733.3324 203.7993,-733.3324"/>
<text text-anchor="start" x="167.4957" y="-721.3314" font-family="Helvetica,sans-Serif" font-size="9.00" fill="#000000">index.ts</text>
</a>
</g>
</g>
<!-- src/components/UploadFiles/index.ts&#45;&gt;src/components/UploadFiles/UploadFiles.tsx -->
<g id="edge40" class="edge">
<title>src/components/UploadFiles/index.ts&#45;&gt;src/components/UploadFiles/UploadFiles.tsx</title>
<path fill="none" stroke="#000000" stroke-width="2" stroke-opacity="0.200000" d="M210.2087,-724.0314C215.1131,-724.0314 220.3428,-724.0314 225.5947,-724.0314"/>
<polygon fill="#000000" fill-opacity="0.200000" stroke="#000000" stroke-width="2" stroke-opacity="0.200000" points="225.7522,-726.1314 231.7521,-724.0314 225.7521,-721.9314 225.7522,-726.1314"/>
</g>
<!-- src/components/index.ts -->
<g id="node38" class="node">
<title>src/components/index.ts</title>
<g id="a_node38"><a xlink:href="src/components/index.ts" xlink:title="index.ts">
<path fill="#ddfeff" stroke="#000000" d="M133.7993,-733.3324C133.7993,-733.3324 92.2007,-733.3324 92.2007,-733.3324 89.1004,-733.3324 86,-730.2321 86,-727.1317 86,-727.1317 86,-720.931 86,-720.931 86,-717.8306 89.1004,-714.7303 92.2007,-714.7303 92.2007,-714.7303 133.7993,-714.7303 133.7993,-714.7303 136.8996,-714.7303 140,-717.8306 140,-720.931 140,-720.931 140,-727.1317 140,-727.1317 140,-730.2321 136.8996,-733.3324 133.7993,-733.3324"/>
<text text-anchor="start" x="97.4957" y="-721.3314" font-family="Helvetica,sans-Serif" font-size="9.00" fill="#000000">index.ts</text>
</a>
</g>
</g>
<!-- src/components/index.ts&#45;&gt;src/components/Checkbox/index.ts -->
<g id="edge41" class="edge">
<title>src/components/index.ts&#45;&gt;src/components/Checkbox/index.ts</title>
<path fill="none" stroke="#000000" stroke-width="2" stroke-opacity="0.200000" d="M113.7163,-733.4451C116.4742,-767.7207 127.3001,-885.4455 148,-916.0314 150.2703,-919.3859 153.2406,-922.3306 156.492,-924.8831"/>
<polygon fill="#000000" fill-opacity="0.200000" stroke="#000000" stroke-width="2" stroke-opacity="0.200000" points="155.6516,-926.8578 161.7725,-928.574 158.0578,-923.4154 155.6516,-926.8578"/>
</g>
<!-- src/components/index.ts&#45;&gt;src/components/CheckboxGroup/index.ts -->
<g id="edge42" class="edge">
<title>src/components/index.ts&#45;&gt;src/components/CheckboxGroup/index.ts</title>
<path fill="none" stroke="#000000" stroke-width="2" stroke-opacity="0.200000" d="M115.9184,-733.6053C120.7056,-748.0614 131.3872,-775.714 148,-794.0314 151.0497,-797.3939 154.7289,-800.4378 158.5404,-803.1153"/>
<polygon fill="#000000" fill-opacity="0.200000" stroke="#000000" stroke-width="2" stroke-opacity="0.200000" points="157.6018,-805.0106 163.7733,-806.5349 159.8994,-801.4947 157.6018,-805.0106"/>
</g>
<!-- src/components/index.ts&#45;&gt;src/components/ColorPicker/index.ts -->
<g id="edge43" class="edge">
<title>src/components/index.ts&#45;&gt;src/components/ColorPicker/index.ts</title>
<path fill="none" stroke="#000000" stroke-width="2" stroke-opacity="0.200000" d="M113.3389,-733.439C114.9467,-774.0863 122.8067,-934.4904 148,-977.0314 150.9459,-982.0057 155.2493,-986.3262 159.8379,-989.9401"/>
<polygon fill="#000000" fill-opacity="0.200000" stroke="#000000" stroke-width="2" stroke-opacity="0.200000" points="158.7851,-991.7701 164.8784,-993.5818 161.2448,-988.3657 158.7851,-991.7701"/>
</g>
<!-- src/components/index.ts&#45;&gt;src/components/FieldsCombiner/index.ts -->
<g id="edge44" class="edge">
<title>src/components/index.ts&#45;&gt;src/components/FieldsCombiner/index.ts</title>
<path fill="none" stroke="#000000" stroke-width="2" stroke-opacity="0.200000" d="M113.3509,-733.4809C115.5066,-789.7766 127.5428,-1079.641 148,-1113.0314 150.0669,-1116.4049 152.8665,-1119.3457 155.9875,-1121.8837"/>
<polygon fill="#000000" fill-opacity="0.200000" stroke="#000000" stroke-width="2" stroke-opacity="0.200000" points="154.9968,-1123.7572 161.0972,-1125.5446 157.4429,-1120.343 154.9968,-1123.7572"/>
</g>
<!-- src/components/index.ts&#45;&gt;src/components/Input/index.ts -->
<g id="edge45" class="edge">
<title>src/components/index.ts&#45;&gt;src/components/Input/index.ts</title>
<path fill="none" stroke="#000000" stroke-width="2" stroke-opacity="0.200000" d="M114.6297,-733.6546C119.3112,-760.4471 133.4007,-835.2317 148,-855.0314 150.4598,-858.3673 153.5909,-861.3177 156.9653,-863.8868"/>
<polygon fill="#000000" fill-opacity="0.200000" stroke="#000000" stroke-width="2" stroke-opacity="0.200000" points="156.269,-865.955 162.4066,-867.6106 158.6411,-862.489 156.269,-865.955"/>
</g>
<!-- src/components/index.ts&#45;&gt;src/components/Radio/index.ts -->
<g id="edge46" class="edge">
<title>src/components/index.ts&#45;&gt;src/components/Radio/index.ts</title>
<path fill="none" stroke="#000000" stroke-width="2" stroke-opacity="0.200000" d="M123.9375,-714.5001C135.5813,-704.3534 154.1116,-688.2055 167.3097,-676.7043"/>
<polygon fill="#000000" fill-opacity="0.200000" stroke="#000000" stroke-width="2" stroke-opacity="0.200000" points="168.7645,-678.2221 171.9083,-672.697 166.0051,-675.0557 168.7645,-678.2221"/>
</g>
<!-- src/components/index.ts&#45;&gt;src/components/RadioGroup/index.ts -->
<g id="edge47" class="edge">
<title>src/components/index.ts&#45;&gt;src/components/RadioGroup/index.ts</title>
<path fill="none" stroke="#000000" stroke-width="2" stroke-opacity="0.200000" d="M116.0396,-714.5991C121.283,-699.0158 132.9312,-667.2144 148,-643.0314 154.0661,-633.2961 162.3462,-623.4849 169.3299,-615.9019"/>
<polygon fill="#000000" fill-opacity="0.200000" stroke="#000000" stroke-width="2" stroke-opacity="0.200000" points="170.8991,-617.2987 173.4793,-611.489 167.8393,-614.4216 170.8991,-617.2987"/>
</g>
<!-- src/components/index.ts&#45;&gt;src/components/Select/index.ts -->
<g id="edge48" class="edge">
<title>src/components/index.ts&#45;&gt;src/components/Select/index.ts</title>
<path fill="none" stroke="#000000" stroke-width="2" stroke-opacity="0.200000" d="M113.8184,-714.539C116.1673,-690.9239 124.351,-628.1143 148,-582.0314 153.1663,-571.9641 161.2597,-562.2608 168.3629,-554.8232"/>
<polygon fill="#000000" fill-opacity="0.200000" stroke="#000000" stroke-width="2" stroke-opacity="0.200000" points="169.9059,-556.2493 172.6226,-550.5021 166.9149,-553.3008 169.9059,-556.2493"/>
</g>
<!-- src/components/index.ts&#45;&gt;src/components/Switch/index.ts -->
<g id="edge49" class="edge">
<title>src/components/index.ts&#45;&gt;src/components/Switch/index.ts</title>
<path fill="none" stroke="#000000" stroke-width="2" stroke-opacity="0.200000" d="M113.9902,-714.2735C117.7041,-678.7155 131.4429,-556.3221 148,-521.0314 152.8061,-510.7872 160.8795,-501.0741 168.0619,-493.6755"/>
<polygon fill="#000000" fill-opacity="0.200000" stroke="#000000" stroke-width="2" stroke-opacity="0.200000" points="169.6053,-495.1024 172.3817,-489.3838 166.6451,-492.1229 169.6053,-495.1024"/>
</g>
<!-- src/components/index.ts&#45;&gt;src/components/Textarea/index.ts -->
<g id="edge50" class="edge">
<title>src/components/index.ts&#45;&gt;src/components/Textarea/index.ts</title>
<path fill="none" stroke="#000000" stroke-width="2" stroke-opacity="0.200000" d="M113.5322,-714.6288C115.9829,-673.2376 126.9695,-507.2244 148,-460.0314 152.5428,-449.8372 160.4479,-440.2438 167.5972,-432.9035"/>
<polygon fill="#000000" fill-opacity="0.200000" stroke="#000000" stroke-width="2" stroke-opacity="0.200000" points="169.1214,-434.3497 171.9141,-428.6391 166.1697,-431.3617 169.1214,-434.3497"/>
</g>
<!-- src/components/index.ts&#45;&gt;src/components/UploadFiles/index.ts -->
<g id="edge51" class="edge">
<title>src/components/index.ts&#45;&gt;src/components/UploadFiles/index.ts</title>
<path fill="none" stroke="#000000" stroke-width="2" stroke-opacity="0.200000" d="M140.2643,-724.0314C143.273,-724.0314 146.3619,-724.0314 149.4361,-724.0314"/>
<polygon fill="#000000" fill-opacity="0.200000" stroke="#000000" stroke-width="2" stroke-opacity="0.200000" points="149.695,-726.1314 155.695,-724.0314 149.695,-721.9314 149.695,-726.1314"/>
</g>
<!-- src/index.ts -->
<g id="node39" class="node">
<title>src/index.ts</title>
<g id="a_node39"><a xlink:href="src/index.ts" xlink:title="index.ts">
<path fill="#ddfeff" stroke="#000000" d="M63.7993,-733.3324C63.7993,-733.3324 22.2007,-733.3324 22.2007,-733.3324 19.1004,-733.3324 16,-730.2321 16,-727.1317 16,-727.1317 16,-720.931 16,-720.931 16,-717.8306 19.1004,-714.7303 22.2007,-714.7303 22.2007,-714.7303 63.7993,-714.7303 63.7993,-714.7303 66.8996,-714.7303 70,-717.8306 70,-720.931 70,-720.931 70,-727.1317 70,-727.1317 70,-730.2321 66.8996,-733.3324 63.7993,-733.3324"/>
<text text-anchor="start" x="27.4957" y="-721.3314" font-family="Helvetica,sans-Serif" font-size="9.00" fill="#000000">index.ts</text>
</a>
</g>
</g>
<!-- src/index.ts&#45;&gt;src/components/index.ts -->
<g id="edge52" class="edge">
<title>src/index.ts&#45;&gt;src/components/index.ts</title>
<path fill="none" stroke="#000000" stroke-width="2" stroke-opacity="0.200000" d="M70.2643,-724.0314C73.273,-724.0314 76.3619,-724.0314 79.4361,-724.0314"/>
<polygon fill="#000000" fill-opacity="0.200000" stroke="#000000" stroke-width="2" stroke-opacity="0.200000" points="79.695,-726.1314 85.695,-724.0314 79.695,-721.9314 79.695,-726.1314"/>
</g>
</g>
</svg>
