<?xml version="1.0" encoding="UTF-8" standalone="no"?>
<!DOCTYPE svg PUBLIC "-//W3C//DTD SVG 1.1//EN"
 "http://www.w3.org/Graphics/SVG/1.1/DTD/svg11.dtd">
<!-- Generated by graphviz version 2.40.1 (20161225.0304)
 -->
<!-- Title: dependency&#45;cruiser output Pages: 1 -->
<svg width="400pt" height="126pt"
 viewBox="0.00 0.00 400.01 126.00" xmlns="http://www.w3.org/2000/svg" xmlns:xlink="http://www.w3.org/1999/xlink">
<g id="graph0" class="graph" transform="scale(1 1) rotate(0) translate(4 122)">
<title>dependency&#45;cruiser output</title>
<polygon fill="#ffffff" stroke="transparent" points="-4,4 -4,-122 396.0066,-122 396.0066,4 -4,4"/>
<g id="clust1" class="cluster">
<title>cluster_@devoinc</title>
<path fill="#ffffff" stroke="#000000" stroke-width="2" d="M319.249,-36C319.249,-36 370.7577,-36 370.7577,-36 376.7577,-36 382.7577,-42 382.7577,-48 382.7577,-48 382.7577,-77 382.7577,-77 382.7577,-83 376.7577,-89 370.7577,-89 370.7577,-89 319.249,-89 319.249,-89 313.249,-89 307.249,-83 307.249,-77 307.249,-77 307.249,-48 307.249,-48 307.249,-42 313.249,-36 319.249,-36"/>
<text text-anchor="middle" x="345.0033" y="-76.9" font-family="Helvetica,sans-Serif" font-weight="bold" font-size="9.00" fill="#000000">@devoinc</text>
</g>
<g id="clust2" class="cluster">
<title>cluster_src</title>
<path fill="#ffffff" stroke="#000000" stroke-width="2" d="M20,-8C20,-8 278,-8 278,-8 284,-8 290,-14 290,-20 290,-20 290,-98 290,-98 290,-104 284,-110 278,-110 278,-110 20,-110 20,-110 14,-110 8,-104 8,-98 8,-98 8,-20 8,-20 8,-14 14,-8 20,-8"/>
<text text-anchor="middle" x="149" y="-97.9" font-family="Helvetica,sans-Serif" font-weight="bold" font-size="9.00" fill="#000000">src</text>
</g>
<g id="clust3" class="cluster">
<title>cluster_src/components</title>
<path fill="#ffffff" stroke="#000000" stroke-width="2" d="M90,-16C90,-16 270,-16 270,-16 276,-16 282,-22 282,-28 282,-28 282,-71 282,-71 282,-77 276,-83 270,-83 270,-83 90,-83 90,-83 84,-83 78,-77 78,-71 78,-71 78,-28 78,-28 78,-22 84,-16 90,-16"/>
<text text-anchor="middle" x="180" y="-70.9" font-family="Helvetica,sans-Serif" font-weight="bold" font-size="9.00" fill="#000000">components</text>
</g>
<!-- @devoinc/genesys&#45;ui -->
<g id="node1" class="node">
<title>@devoinc/genesys&#45;ui</title>
<g id="a_node1"><a xlink:title="genesys&#45;ui">
<path fill="#ffffcc" stroke="#000000" d="M368.3133,-62.3011C368.3133,-62.3011 321.6933,-62.3011 321.6933,-62.3011 318.5929,-62.3011 315.4926,-59.2007 315.4926,-56.1004 315.4926,-56.1004 315.4926,-49.8996 315.4926,-49.8996 315.4926,-46.7993 318.5929,-43.6989 321.6933,-43.6989 321.6933,-43.6989 368.3133,-43.6989 368.3133,-43.6989 371.4137,-43.6989 374.514,-46.7993 374.514,-49.8996 374.514,-49.8996 374.514,-56.1004 374.514,-56.1004 374.514,-59.2007 371.4137,-62.3011 368.3133,-62.3011"/>
<text text-anchor="start" x="323.249" y="-50.3" font-family="Helvetica,sans-Serif" font-size="9.00" fill="#000000">genesys&#45;ui</text>
</a>
</g>
</g>
<!-- monaco&#45;editor&#45;core -->
<g id="node2" class="node">
<title>monaco&#45;editor&#45;core</title>
<g id="a_node2"><a xlink:title="monaco&#45;editor&#45;core">
<path fill="#ffffcc" stroke="#000000" d="M385.8092,-28.3011C385.8092,-28.3011 304.1974,-28.3011 304.1974,-28.3011 301.0971,-28.3011 297.9967,-25.2007 297.9967,-22.1004 297.9967,-22.1004 297.9967,-15.8996 297.9967,-15.8996 297.9967,-12.7993 301.0971,-9.6989 304.1974,-9.6989 304.1974,-9.6989 385.8092,-9.6989 385.8092,-9.6989 388.9095,-9.6989 392.0099,-12.7993 392.0099,-15.8996 392.0099,-15.8996 392.0099,-22.1004 392.0099,-22.1004 392.0099,-25.2007 388.9095,-28.3011 385.8092,-28.3011"/>
<text text-anchor="middle" x="345.0033" y="-16.3" font-family="Helvetica,sans-Serif" font-size="9.00" fill="#000000">monaco&#45;editor&#45;core</text>
</a>
</g>
</g>
<!-- src/components/DiffEditor/ -->
<g id="node3" class="node">
<title>src/components/DiffEditor/</title>
<g id="a_node3"><a xlink:href="src/components/DiffEditor/" xlink:title="DiffEditor">
<polygon fill="#ffffcc" stroke="#000000" points="207,-42.3011 155.0669,-42.3011 153,-40.2342 153,-23.6989 204.9331,-23.6989 207,-25.7658 207,-42.3011"/>
<polyline fill="none" stroke="#000000" points="204.9331,-40.2342 153,-40.2342 "/>
<polyline fill="none" stroke="#000000" points="204.9331,-40.2342 204.9331,-23.6989 "/>
<polyline fill="none" stroke="#000000" points="204.9331,-40.2342 207,-42.3011 "/>
<text text-anchor="start" x="161.5005" y="-30.3" font-family="Helvetica,sans-Serif" font-size="9.00" fill="#000000">DiffEditor</text>
</a>
</g>
</g>
<!-- src/components/DiffEditor/&#45;&gt;monaco&#45;editor&#45;core -->
<g id="edge2" class="edge">
<title>src/components/DiffEditor/&#45;&gt;monaco&#45;editor&#45;core</title>
<path fill="none" stroke="#000000" stroke-width="2" stroke-opacity="0.200000" d="M207.2469,-30.6882C230.0533,-28.7531 263.2853,-25.9335 291.3953,-23.5485"/>
<polygon fill="#000000" fill-opacity="0.200000" stroke="#000000" stroke-width="2" stroke-opacity="0.200000" points="291.8776,-25.6152 297.6785,-23.0154 291.5225,-21.4302 291.8776,-25.6152"/>
</g>
<!-- src/components/Editor/ -->
<g id="node4" class="node">
<title>src/components/Editor/</title>
<g id="a_node4"><a xlink:href="src/components/Editor/" xlink:title="Editor">
<polygon fill="#ffffcc" stroke="#000000" points="274,-56.3011 222.0669,-56.3011 220,-54.2342 220,-37.6989 271.9331,-37.6989 274,-39.7658 274,-56.3011"/>
<polyline fill="none" stroke="#000000" points="271.9331,-54.2342 220,-54.2342 "/>
<polyline fill="none" stroke="#000000" points="271.9331,-54.2342 271.9331,-37.6989 "/>
<polyline fill="none" stroke="#000000" points="271.9331,-54.2342 274,-56.3011 "/>
<text text-anchor="start" x="235.2487" y="-44.3" font-family="Helvetica,sans-Serif" font-size="9.00" fill="#000000">Editor</text>
</a>
</g>
</g>
<!-- src/components/DiffEditor/&#45;&gt;src/components/Editor/ -->
<g id="edge1" class="edge">
<title>src/components/DiffEditor/&#45;&gt;src/components/Editor/</title>
<path fill="none" stroke="#000000" stroke-width="2" stroke-opacity="0.200000" d="M207.2515,-38.6943C209.4841,-39.1609 211.7551,-39.6354 214.0229,-40.1093"/>
<polygon fill="#000000" fill-opacity="0.200000" stroke="#000000" stroke-width="2" stroke-opacity="0.200000" points="213.6872,-42.1844 219.9899,-41.3561 214.5463,-38.0732 213.6872,-42.1844"/>
</g>
<!-- src/components/Editor/&#45;&gt;@devoinc/genesys&#45;ui -->
<g id="edge3" class="edge">
<title>src/components/Editor/&#45;&gt;@devoinc/genesys&#45;ui</title>
<path fill="none" stroke="#000000" stroke-width="2" stroke-opacity="0.200000" d="M274.0393,-48.6554C284.843,-49.3168 297.4427,-50.0882 309.002,-50.7959"/>
<polygon fill="#000000" fill-opacity="0.200000" stroke="#000000" stroke-width="2" stroke-opacity="0.200000" points="309.1816,-52.9108 315.2988,-51.1814 309.4384,-48.7186 309.1816,-52.9108"/>
</g>
<!-- src/components/Editor/&#45;&gt;monaco&#45;editor&#45;core -->
<g id="edge4" class="edge">
<title>src/components/Editor/&#45;&gt;monaco&#45;editor&#45;core</title>
<path fill="none" stroke="#000000" stroke-width="2" stroke-opacity="0.200000" d="M274.0393,-39.2748C283.9826,-36.4339 295.4471,-33.1584 306.2217,-30.0801"/>
<polygon fill="#000000" fill-opacity="0.200000" stroke="#000000" stroke-width="2" stroke-opacity="0.200000" points="306.9303,-32.0617 312.1226,-28.3942 305.7765,-28.0233 306.9303,-32.0617"/>
</g>
<!-- src/components/index.ts -->
<g id="node5" class="node">
<title>src/components/index.ts</title>
<g id="a_node5"><a xlink:href="src/components/index.ts" xlink:title="index.ts">
<path fill="#ddfeff" stroke="#000000" d="M133.7993,-49.3011C133.7993,-49.3011 92.2007,-49.3011 92.2007,-49.3011 89.1004,-49.3011 86,-46.2007 86,-43.1004 86,-43.1004 86,-36.8996 86,-36.8996 86,-33.7993 89.1004,-30.6989 92.2007,-30.6989 92.2007,-30.6989 133.7993,-30.6989 133.7993,-30.6989 136.8996,-30.6989 140,-33.7993 140,-36.8996 140,-36.8996 140,-43.1004 140,-43.1004 140,-46.2007 136.8996,-49.3011 133.7993,-49.3011"/>
<text text-anchor="start" x="97.4957" y="-37.3" font-family="Helvetica,sans-Serif" font-size="9.00" fill="#000000">index.ts</text>
</a>
</g>
</g>
<!-- src/components/index.ts&#45;&gt;src/components/DiffEditor/ -->
<g id="edge5" class="edge">
<title>src/components/index.ts&#45;&gt;src/components/DiffEditor/</title>
<path fill="none" stroke="#000000" stroke-width="2" stroke-opacity="0.200000" d="M140.2515,-37.1528C142.3528,-36.9333 144.488,-36.7102 146.6227,-36.4872"/>
<polygon fill="#000000" fill-opacity="0.200000" stroke="#000000" stroke-width="2" stroke-opacity="0.200000" points="147.2406,-38.5341 152.9899,-35.8219 146.8041,-34.3569 147.2406,-38.5341"/>
</g>
<!-- src/components/index.ts&#45;&gt;src/components/Editor/ -->
<g id="edge6" class="edge">
<title>src/components/index.ts&#45;&gt;src/components/Editor/</title>
<path fill="none" stroke="#000000" stroke-width="2" stroke-opacity="0.200000" d="M140.0022,-46.1513C144.3278,-46.9194 148.7715,-47.5813 153,-48 172.9611,-49.9765 195.4223,-49.8247 213.382,-49.1326"/>
<polygon fill="#000000" fill-opacity="0.200000" stroke="#000000" stroke-width="2" stroke-opacity="0.200000" points="213.8784,-51.2132 219.7821,-48.8561 213.697,-47.0171 213.8784,-51.2132"/>
</g>
<!-- src/index.ts -->
<g id="node6" class="node">
<title>src/index.ts</title>
<g id="a_node6"><a xlink:href="src/index.ts" xlink:title="index.ts">
<path fill="#ddfeff" stroke="#000000" d="M63.7993,-49.3011C63.7993,-49.3011 22.2007,-49.3011 22.2007,-49.3011 19.1004,-49.3011 16,-46.2007 16,-43.1004 16,-43.1004 16,-36.8996 16,-36.8996 16,-33.7993 19.1004,-30.6989 22.2007,-30.6989 22.2007,-30.6989 63.7993,-30.6989 63.7993,-30.6989 66.8996,-30.6989 70,-33.7993 70,-36.8996 70,-36.8996 70,-43.1004 70,-43.1004 70,-46.2007 66.8996,-49.3011 63.7993,-49.3011"/>
<text text-anchor="start" x="27.4957" y="-37.3" font-family="Helvetica,sans-Serif" font-size="9.00" fill="#000000">index.ts</text>
</a>
</g>
</g>
<!-- src/index.ts&#45;&gt;src/components/index.ts -->
<g id="edge7" class="edge">
<title>src/index.ts&#45;&gt;src/components/index.ts</title>
<path fill="none" stroke="#000000" stroke-width="2" stroke-opacity="0.200000" d="M70.2643,-40C73.273,-40 76.3619,-40 79.4361,-40"/>
<polygon fill="#000000" fill-opacity="0.200000" stroke="#000000" stroke-width="2" stroke-opacity="0.200000" points="79.695,-42.1001 85.695,-40 79.695,-37.9001 79.695,-42.1001"/>
</g>
</g>
</svg>
