<?xml version="1.0" encoding="UTF-8" standalone="no"?>
<!DOCTYPE svg PUBLIC "-//W3C//DTD SVG 1.1//EN"
 "http://www.w3.org/Graphics/SVG/1.1/DTD/svg11.dtd">
<!-- Generated by graphviz version 2.40.1 (20161225.0304)
 -->
<!-- Title: dependency&#45;cruiser output Pages: 1 -->
<svg width="373pt" height="579pt"
 viewBox="0.00 0.00 373.04 579.00" xmlns="http://www.w3.org/2000/svg" xmlns:xlink="http://www.w3.org/1999/xlink">
<g id="graph0" class="graph" transform="scale(1 1) rotate(0) translate(4 575)">
<title>dependency&#45;cruiser output</title>
<polygon fill="#ffffff" stroke="transparent" points="-4,4 -4,-575 369.0371,-575 369.0371,4 -4,4"/>
<g id="clust1" class="cluster">
<title>cluster_..</title>
<path fill="#ffffff" stroke="#000000" stroke-width="2" d="M262.016,-8C262.016,-8 345.0371,-8 345.0371,-8 351.0371,-8 357.0371,-14 357.0371,-20 357.0371,-20 357.0371,-84 357.0371,-84 357.0371,-90 351.0371,-96 345.0371,-96 345.0371,-96 262.016,-96 262.016,-96 256.016,-96 250.016,-90 250.016,-84 250.016,-84 250.016,-20 250.016,-20 250.016,-14 256.016,-8 262.016,-8"/>
<text text-anchor="middle" x="303.5266" y="-83.9" font-family="Helvetica,sans-Serif" font-weight="bold" font-size="9.00" fill="#000000">..</text>
</g>
<g id="clust2" class="cluster">
<title>cluster_../..</title>
<path fill="#ffffff" stroke="#000000" stroke-width="2" d="M270.016,-16C270.016,-16 337.0371,-16 337.0371,-16 343.0371,-16 349.0371,-22 349.0371,-28 349.0371,-28 349.0371,-57 349.0371,-57 349.0371,-63 343.0371,-69 337.0371,-69 337.0371,-69 270.016,-69 270.016,-69 264.016,-69 258.016,-63 258.016,-57 258.016,-57 258.016,-28 258.016,-28 258.016,-22 264.016,-16 270.016,-16"/>
<text text-anchor="middle" x="303.5266" y="-56.9" font-family="Helvetica,sans-Serif" font-weight="bold" font-size="9.00" fill="#000000">..</text>
</g>
<g id="clust3" class="cluster">
<title>cluster_@devoinc</title>
<path fill="#ffffff" stroke="#000000" stroke-width="2" d="M277.7722,-104C277.7722,-104 329.2809,-104 329.2809,-104 335.2809,-104 341.2809,-110 341.2809,-116 341.2809,-116 341.2809,-145 341.2809,-145 341.2809,-151 335.2809,-157 329.2809,-157 329.2809,-157 277.7722,-157 277.7722,-157 271.7722,-157 265.7722,-151 265.7722,-145 265.7722,-145 265.7722,-116 265.7722,-116 265.7722,-110 271.7722,-104 277.7722,-104"/>
<text text-anchor="middle" x="303.5266" y="-144.9" font-family="Helvetica,sans-Serif" font-weight="bold" font-size="9.00" fill="#000000">@devoinc</text>
</g>
<g id="clust4" class="cluster">
<title>cluster_src</title>
<path fill="#ffffff" stroke="#000000" stroke-width="2" d="M20,-165C20,-165 341.5316,-165 341.5316,-165 347.5316,-165 353.5316,-171 353.5316,-177 353.5316,-177 353.5316,-551 353.5316,-551 353.5316,-557 347.5316,-563 341.5316,-563 341.5316,-563 20,-563 20,-563 14,-563 8,-557 8,-551 8,-551 8,-177 8,-177 8,-171 14,-165 20,-165"/>
<text text-anchor="middle" x="180.7658" y="-550.9" font-family="Helvetica,sans-Serif" font-weight="bold" font-size="9.00" fill="#000000">src</text>
</g>
<g id="clust5" class="cluster">
<title>cluster_src/components</title>
<path fill="#ffffff" stroke="#000000" stroke-width="2" d="M90,-173C90,-173 230.016,-173 230.016,-173 236.016,-173 242.016,-179 242.016,-185 242.016,-185 242.016,-524 242.016,-524 242.016,-530 236.016,-536 230.016,-536 230.016,-536 90,-536 90,-536 84,-536 78,-530 78,-524 78,-524 78,-185 78,-185 78,-179 84,-173 90,-173"/>
<text text-anchor="middle" x="160.008" y="-523.9" font-family="Helvetica,sans-Serif" font-weight="bold" font-size="9.00" fill="#000000">components</text>
</g>
<g id="clust6" class="cluster">
<title>cluster_src/utils</title>
<path fill="#ffffff" stroke="#000000" stroke-width="2" d="M273.5215,-483C273.5215,-483 333.5316,-483 333.5316,-483 339.5316,-483 345.5316,-489 345.5316,-495 345.5316,-495 345.5316,-524 345.5316,-524 345.5316,-530 339.5316,-536 333.5316,-536 333.5316,-536 273.5215,-536 273.5215,-536 267.5215,-536 261.5215,-530 261.5215,-524 261.5215,-524 261.5215,-495 261.5215,-495 261.5215,-489 267.5215,-483 273.5215,-483"/>
<text text-anchor="middle" x="303.5266" y="-523.9" font-family="Helvetica,sans-Serif" font-weight="bold" font-size="9.00" fill="#000000">utils</text>
</g>
<!-- ../../node_modules/ -->
<g id="node1" class="node">
<title>../../node_modules/</title>
<g id="a_node1"><a xlink:href="../../node_modules/" xlink:title="node_modules">
<polygon fill="#c40b0a" fill-opacity="0.101961" stroke="#000000" points="341.0477,-42.3011 268.0723,-42.3011 266.0054,-40.2342 266.0054,-23.6989 338.9808,-23.6989 341.0477,-25.7658 341.0477,-42.3011"/>
<polyline fill="none" stroke="#000000" points="338.9808,-40.2342 266.0054,-40.2342 "/>
<polyline fill="none" stroke="#000000" points="338.9808,-40.2342 338.9808,-23.6989 "/>
<polyline fill="none" stroke="#000000" points="338.9808,-40.2342 341.0477,-42.3011 "/>
<text text-anchor="start" x="274.016" y="-30.3" font-family="Helvetica,sans-Serif" font-size="9.00" fill="#c40b0a">node_modules</text>
</a>
</g>
</g>
<!-- @devoinc/genesys&#45;ui -->
<g id="node2" class="node">
<title>@devoinc/genesys&#45;ui</title>
<g id="a_node2"><a xlink:title="genesys&#45;ui">
<path fill="#ffffcc" stroke="#000000" d="M326.8366,-130.3011C326.8366,-130.3011 280.2165,-130.3011 280.2165,-130.3011 277.1162,-130.3011 274.0158,-127.2007 274.0158,-124.1004 274.0158,-124.1004 274.0158,-117.8996 274.0158,-117.8996 274.0158,-114.7993 277.1162,-111.6989 280.2165,-111.6989 280.2165,-111.6989 326.8366,-111.6989 326.8366,-111.6989 329.9369,-111.6989 333.0373,-114.7993 333.0373,-117.8996 333.0373,-117.8996 333.0373,-124.1004 333.0373,-124.1004 333.0373,-127.2007 329.9369,-130.3011 326.8366,-130.3011"/>
<text text-anchor="start" x="281.7722" y="-118.3" font-family="Helvetica,sans-Serif" font-size="9.00" fill="#000000">genesys&#45;ui</text>
</a>
</g>
</g>
<!-- src/components/Checkbox/ -->
<g id="node3" class="node">
<title>src/components/Checkbox/</title>
<g id="a_node3"><a xlink:href="src/components/Checkbox/" xlink:title="Checkbox">
<polygon fill="#ffffcc" stroke="#000000" points="221.5175,-292.3011 167.5654,-292.3011 165.4985,-290.2342 165.4985,-273.6989 219.4506,-273.6989 221.5175,-275.7658 221.5175,-292.3011"/>
<polyline fill="none" stroke="#000000" points="219.4506,-290.2342 165.4985,-290.2342 "/>
<polyline fill="none" stroke="#000000" points="219.4506,-290.2342 219.4506,-273.6989 "/>
<polyline fill="none" stroke="#000000" points="219.4506,-290.2342 221.5175,-292.3011 "/>
<text text-anchor="start" x="173.5033" y="-280.3" font-family="Helvetica,sans-Serif" font-size="9.00" fill="#000000">Checkbox</text>
</a>
</g>
</g>
<!-- src/components/Checkbox/&#45;&gt;@devoinc/genesys&#45;ui -->
<g id="edge1" class="edge">
<title>src/components/Checkbox/&#45;&gt;@devoinc/genesys&#45;ui</title>
<path fill="none" stroke="#000000" stroke-width="2" stroke-opacity="0.200000" d="M221.6044,-278.1287C228.9282,-275.7564 236.3465,-272.2324 242.016,-267 281.1016,-230.9273 296.236,-166.0457 301.3016,-136.4605"/>
<polygon fill="#000000" fill-opacity="0.200000" stroke="#000000" stroke-width="2" stroke-opacity="0.200000" points="303.3998,-136.6396 302.2841,-130.3813 299.2536,-135.9694 303.3998,-136.6396"/>
</g>
<!-- src/components/CheckboxGroup/ -->
<g id="node4" class="node">
<title>src/components/CheckboxGroup/</title>
<g id="a_node4"><a xlink:href="src/components/CheckboxGroup/" xlink:title="CheckboxGroup">
<polygon fill="#ffffcc" stroke="#000000" points="234.024,-478.3011 155.0589,-478.3011 152.992,-476.2342 152.992,-459.6989 231.9571,-459.6989 234.024,-461.7658 234.024,-478.3011"/>
<polyline fill="none" stroke="#000000" points="231.9571,-476.2342 152.992,-476.2342 "/>
<polyline fill="none" stroke="#000000" points="231.9571,-476.2342 231.9571,-459.6989 "/>
<polyline fill="none" stroke="#000000" points="231.9571,-476.2342 234.024,-478.3011 "/>
<text text-anchor="start" x="161" y="-466.3" font-family="Helvetica,sans-Serif" font-size="9.00" fill="#000000">CheckboxGroup</text>
</a>
</g>
</g>
<!-- src/components/CheckboxGroup/&#45;&gt;@devoinc/genesys&#45;ui -->
<g id="edge2" class="edge">
<title>src/components/CheckboxGroup/&#45;&gt;@devoinc/genesys&#45;ui</title>
<path fill="none" stroke="#000000" stroke-width="2" stroke-opacity="0.200000" d="M234.3057,-459.4755C237.1729,-457.676 239.7999,-455.5385 242.016,-453 284.2407,-404.6324 299.2413,-195.9461 302.6914,-136.7239"/>
<polygon fill="#000000" fill-opacity="0.200000" stroke="#000000" stroke-width="2" stroke-opacity="0.200000" points="304.7977,-136.6694 303.0397,-130.5605 300.6044,-136.4324 304.7977,-136.6694"/>
</g>
<!-- src/components/ColorPicker/ -->
<g id="node5" class="node">
<title>src/components/ColorPicker/</title>
<g id="a_node5"><a xlink:href="src/components/ColorPicker/" xlink:title="ColorPicker">
<polygon fill="#ffffcc" stroke="#000000" points="225.0049,-230.3011 164.078,-230.3011 162.0111,-228.2342 162.0111,-211.6989 222.938,-211.6989 225.0049,-213.7658 225.0049,-230.3011"/>
<polyline fill="none" stroke="#000000" points="222.938,-228.2342 162.0111,-228.2342 "/>
<polyline fill="none" stroke="#000000" points="222.938,-228.2342 222.938,-211.6989 "/>
<polyline fill="none" stroke="#000000" points="222.938,-228.2342 225.0049,-230.3011 "/>
<text text-anchor="start" x="170.2606" y="-218.3" font-family="Helvetica,sans-Serif" font-size="9.00" fill="#000000">ColorPicker</text>
</a>
</g>
</g>
<!-- src/components/ColorPicker/&#45;&gt;@devoinc/genesys&#45;ui -->
<g id="edge3" class="edge">
<title>src/components/ColorPicker/&#45;&gt;@devoinc/genesys&#45;ui</title>
<path fill="none" stroke="#000000" stroke-width="2" stroke-opacity="0.200000" d="M224.9138,-213.8103C230.9247,-211.5821 236.9236,-208.7026 242.016,-205 267.3212,-186.601 286.5274,-154.6801 296.3134,-135.9345"/>
<polygon fill="#000000" fill-opacity="0.200000" stroke="#000000" stroke-width="2" stroke-opacity="0.200000" points="298.1939,-136.8693 299.0443,-130.5695 294.4509,-134.964 298.1939,-136.8693"/>
</g>
<!-- src/components/FieldsCombiner/ -->
<g id="node6" class="node">
<title>src/components/FieldsCombiner/</title>
<g id="a_node6"><a xlink:href="src/components/FieldsCombiner/" xlink:title="FieldsCombiner">
<polygon fill="#ffffcc" stroke="#000000" points="233.0053,-261.3011 156.0776,-261.3011 154.0107,-259.2342 154.0107,-242.6989 230.9384,-242.6989 233.0053,-244.7658 233.0053,-261.3011"/>
<polyline fill="none" stroke="#000000" points="230.9384,-259.2342 154.0107,-259.2342 "/>
<polyline fill="none" stroke="#000000" points="230.9384,-259.2342 230.9384,-242.6989 "/>
<polyline fill="none" stroke="#000000" points="230.9384,-259.2342 233.0053,-261.3011 "/>
<text text-anchor="start" x="162.0094" y="-249.3" font-family="Helvetica,sans-Serif" font-size="9.00" fill="#000000">FieldsCombiner</text>
</a>
</g>
</g>
<!-- src/components/FieldsCombiner/&#45;&gt;@devoinc/genesys&#45;ui -->
<g id="edge4" class="edge">
<title>src/components/FieldsCombiner/&#45;&gt;@devoinc/genesys&#45;ui</title>
<path fill="none" stroke="#000000" stroke-width="2" stroke-opacity="0.200000" d="M231.5772,-242.6636C235.3274,-240.8235 238.8938,-238.6252 242.016,-236 273.9922,-209.1147 291.8282,-161.2444 299.2961,-136.6053"/>
<polygon fill="#000000" fill-opacity="0.200000" stroke="#000000" stroke-width="2" stroke-opacity="0.200000" points="301.3872,-136.9361 301.0525,-130.588 297.3554,-135.7593 301.3872,-136.9361"/>
</g>
<!-- src/components/Input/ -->
<g id="node7" class="node">
<title>src/components/Input/</title>
<g id="a_node7"><a xlink:href="src/components/Input/" xlink:title="Input">
<polygon fill="#ffffcc" stroke="#000000" points="220.508,-509.3011 168.5749,-509.3011 166.508,-507.2342 166.508,-490.6989 218.4411,-490.6989 220.508,-492.7658 220.508,-509.3011"/>
<polyline fill="none" stroke="#000000" points="218.4411,-507.2342 166.508,-507.2342 "/>
<polyline fill="none" stroke="#000000" points="218.4411,-507.2342 218.4411,-490.6989 "/>
<polyline fill="none" stroke="#000000" points="218.4411,-507.2342 220.508,-509.3011 "/>
<text text-anchor="start" x="183.5023" y="-497.3" font-family="Helvetica,sans-Serif" font-size="9.00" fill="#000000">Input</text>
</a>
</g>
</g>
<!-- src/components/Input/&#45;&gt;@devoinc/genesys&#45;ui -->
<g id="edge6" class="edge">
<title>src/components/Input/&#45;&gt;@devoinc/genesys&#45;ui</title>
<path fill="none" stroke="#000000" stroke-width="2" stroke-opacity="0.200000" d="M220.6707,-496.4817C228.5988,-494.1577 236.5823,-490.3214 242.016,-484 288.0462,-430.4497 300.4406,-198.933 302.9717,-136.5397"/>
<polygon fill="#000000" fill-opacity="0.200000" stroke="#000000" stroke-width="2" stroke-opacity="0.200000" points="305.0753,-136.4869 303.2103,-130.4098 300.8784,-136.3236 305.0753,-136.4869"/>
</g>
<!-- src/utils/validations.ts -->
<g id="node8" class="node">
<title>src/utils/validations.ts</title>
<g id="a_node8"><a xlink:href="src/utils/validations.ts" xlink:title="validations.ts">
<path fill="#ddfeff" stroke="#000000" d="M331.3359,-509.3011C331.3359,-509.3011 275.7172,-509.3011 275.7172,-509.3011 272.6168,-509.3011 269.5164,-506.2007 269.5164,-503.1004 269.5164,-503.1004 269.5164,-496.8996 269.5164,-496.8996 269.5164,-493.7993 272.6168,-490.6989 275.7172,-490.6989 275.7172,-490.6989 331.3359,-490.6989 331.3359,-490.6989 334.4363,-490.6989 337.5367,-493.7993 337.5367,-496.8996 337.5367,-496.8996 337.5367,-503.1004 337.5367,-503.1004 337.5367,-506.2007 334.4363,-509.3011 331.3359,-509.3011"/>
<text text-anchor="start" x="277.5215" y="-497.3" font-family="Helvetica,sans-Serif" font-size="9.00" fill="#000000">validations.ts</text>
</a>
</g>
</g>
<!-- src/components/Input/&#45;&gt;src/utils/validations.ts -->
<g id="edge5" class="edge">
<title>src/components/Input/&#45;&gt;src/utils/validations.ts</title>
<path fill="none" stroke="#000000" stroke-width="2" stroke-opacity="0.200000" d="M220.7036,-500C233.3952,-500 248.7674,-500 262.8056,-500"/>
<polygon fill="#000000" fill-opacity="0.200000" stroke="#000000" stroke-width="2" stroke-opacity="0.200000" points="263.1474,-502.1001 269.1474,-500 263.1473,-497.9001 263.1474,-502.1001"/>
</g>
<!-- src/components/Radio/ -->
<g id="node9" class="node">
<title>src/components/Radio/</title>
<g id="a_node9"><a xlink:href="src/components/Radio/" xlink:title="Radio">
<polygon fill="#ffffcc" stroke="#000000" points="220.508,-323.3011 168.5749,-323.3011 166.508,-321.2342 166.508,-304.6989 218.4411,-304.6989 220.508,-306.7658 220.508,-323.3011"/>
<polyline fill="none" stroke="#000000" points="218.4411,-321.2342 166.508,-321.2342 "/>
<polyline fill="none" stroke="#000000" points="218.4411,-321.2342 218.4411,-304.6989 "/>
<polyline fill="none" stroke="#000000" points="218.4411,-321.2342 220.508,-323.3011 "/>
<text text-anchor="start" x="181.7563" y="-311.3" font-family="Helvetica,sans-Serif" font-size="9.00" fill="#000000">Radio</text>
</a>
</g>
</g>
<!-- src/components/Radio/&#45;&gt;@devoinc/genesys&#45;ui -->
<g id="edge7" class="edge">
<title>src/components/Radio/&#45;&gt;@devoinc/genesys&#45;ui</title>
<path fill="none" stroke="#000000" stroke-width="2" stroke-opacity="0.200000" d="M220.5657,-309.7601C228.3015,-307.3989 236.2016,-303.7229 242.016,-298 288.0964,-252.6445 299.7014,-171.028 302.5874,-136.792"/>
<polygon fill="#000000" fill-opacity="0.200000" stroke="#000000" stroke-width="2" stroke-opacity="0.200000" points="304.697,-136.7428 303.056,-130.6014 300.509,-136.4257 304.697,-136.7428"/>
</g>
<!-- src/components/RadioGroup/ -->
<g id="node10" class="node">
<title>src/components/RadioGroup/</title>
<g id="a_node10"><a xlink:href="src/components/RadioGroup/" xlink:title="RadioGroup">
<polygon fill="#ffffcc" stroke="#000000" points="225.5198,-354.3011 163.5631,-354.3011 161.4962,-352.2342 161.4962,-335.6989 223.4529,-335.6989 225.5198,-337.7658 225.5198,-354.3011"/>
<polyline fill="none" stroke="#000000" points="223.4529,-352.2342 161.4962,-352.2342 "/>
<polyline fill="none" stroke="#000000" points="223.4529,-352.2342 223.4529,-335.6989 "/>
<polyline fill="none" stroke="#000000" points="223.4529,-352.2342 225.5198,-354.3011 "/>
<text text-anchor="start" x="169.253" y="-342.3" font-family="Helvetica,sans-Serif" font-size="9.00" fill="#000000">RadioGroup</text>
</a>
</g>
</g>
<!-- src/components/RadioGroup/&#45;&gt;@devoinc/genesys&#45;ui -->
<g id="edge8" class="edge">
<title>src/components/RadioGroup/&#45;&gt;@devoinc/genesys&#45;ui</title>
<path fill="none" stroke="#000000" stroke-width="2" stroke-opacity="0.200000" d="M225.525,-339.2865C231.6298,-336.9463 237.5102,-333.648 242.016,-329 269.4399,-300.7104 293.1296,-179.6912 300.8663,-136.4413"/>
<polygon fill="#000000" fill-opacity="0.200000" stroke="#000000" stroke-width="2" stroke-opacity="0.200000" points="302.9543,-136.6923 301.9299,-130.4185 298.8183,-135.9618 302.9543,-136.6923"/>
</g>
<!-- src/components/Select/ -->
<g id="node11" class="node">
<title>src/components/Select/</title>
<g id="a_node11"><a xlink:href="src/components/Select/" xlink:title="Select">
<polygon fill="#ffffcc" stroke="#000000" points="220.508,-385.3011 168.5749,-385.3011 166.508,-383.2342 166.508,-366.6989 218.4411,-366.6989 220.508,-368.7658 220.508,-385.3011"/>
<polyline fill="none" stroke="#000000" points="218.4411,-383.2342 166.508,-383.2342 "/>
<polyline fill="none" stroke="#000000" points="218.4411,-383.2342 218.4411,-366.6989 "/>
<polyline fill="none" stroke="#000000" points="218.4411,-383.2342 220.508,-385.3011 "/>
<text text-anchor="start" x="181.0048" y="-373.3" font-family="Helvetica,sans-Serif" font-size="9.00" fill="#000000">Select</text>
</a>
</g>
</g>
<!-- src/components/Select/&#45;&gt;@devoinc/genesys&#45;ui -->
<g id="edge9" class="edge">
<title>src/components/Select/&#45;&gt;@devoinc/genesys&#45;ui</title>
<path fill="none" stroke="#000000" stroke-width="2" stroke-opacity="0.200000" d="M220.6099,-372.1256C228.4399,-369.7812 236.3821,-366.0228 242.016,-360 273.115,-326.7541 294.9682,-184.0172 301.4963,-136.4741"/>
<polygon fill="#000000" fill-opacity="0.200000" stroke="#000000" stroke-width="2" stroke-opacity="0.200000" points="303.592,-136.646 302.3151,-130.4186 299.4299,-136.0831 303.592,-136.646"/>
</g>
<!-- src/components/Switch/ -->
<g id="node12" class="node">
<title>src/components/Switch/</title>
<g id="a_node12"><a xlink:href="src/components/Switch/" xlink:title="Switch">
<polygon fill="#ffffcc" stroke="#000000" points="220.508,-416.3011 168.5749,-416.3011 166.508,-414.2342 166.508,-397.6989 218.4411,-397.6989 220.508,-399.7658 220.508,-416.3011"/>
<polyline fill="none" stroke="#000000" points="218.4411,-414.2342 166.508,-414.2342 "/>
<polyline fill="none" stroke="#000000" points="218.4411,-414.2342 218.4411,-397.6989 "/>
<polyline fill="none" stroke="#000000" points="218.4411,-414.2342 220.508,-416.3011 "/>
<text text-anchor="start" x="180.2578" y="-404.3" font-family="Helvetica,sans-Serif" font-size="9.00" fill="#000000">Switch</text>
</a>
</g>
</g>
<!-- src/components/Switch/&#45;&gt;@devoinc/genesys&#45;ui -->
<g id="edge10" class="edge">
<title>src/components/Switch/&#45;&gt;@devoinc/genesys&#45;ui</title>
<path fill="none" stroke="#000000" stroke-width="2" stroke-opacity="0.200000" d="M220.7128,-403.2205C228.5476,-400.8806 236.4667,-397.1008 242.016,-391 276.7678,-352.7943 296.5138,-188.5368 301.9635,-136.7221"/>
<polygon fill="#000000" fill-opacity="0.200000" stroke="#000000" stroke-width="2" stroke-opacity="0.200000" points="304.0843,-136.6284 302.6112,-130.4445 299.9064,-136.1973 304.0843,-136.6284"/>
</g>
<!-- src/components/Textarea/ -->
<g id="node13" class="node">
<title>src/components/Textarea/</title>
<g id="a_node13"><a xlink:href="src/components/Textarea/" xlink:title="Textarea">
<polygon fill="#ffffcc" stroke="#000000" points="220.508,-447.3011 168.5749,-447.3011 166.508,-445.2342 166.508,-428.6989 218.4411,-428.6989 220.508,-430.7658 220.508,-447.3011"/>
<polyline fill="none" stroke="#000000" points="218.4411,-445.2342 166.508,-445.2342 "/>
<polyline fill="none" stroke="#000000" points="218.4411,-445.2342 218.4411,-428.6989 "/>
<polyline fill="none" stroke="#000000" points="218.4411,-445.2342 220.508,-447.3011 "/>
<text text-anchor="start" x="175.7542" y="-435.3" font-family="Helvetica,sans-Serif" font-size="9.00" fill="#000000">Textarea</text>
</a>
</g>
</g>
<!-- src/components/Textarea/&#45;&gt;@devoinc/genesys&#45;ui -->
<g id="edge11" class="edge">
<title>src/components/Textarea/&#45;&gt;@devoinc/genesys&#45;ui</title>
<path fill="none" stroke="#000000" stroke-width="2" stroke-opacity="0.200000" d="M220.5435,-434.3706C228.4649,-432.0406 236.4765,-428.2289 242.016,-422 280.5041,-378.7221 297.9578,-192.2543 302.3669,-136.6858"/>
<polygon fill="#000000" fill-opacity="0.200000" stroke="#000000" stroke-width="2" stroke-opacity="0.200000" points="304.4704,-136.7209 302.8405,-130.5765 300.283,-136.3963 304.4704,-136.7209"/>
</g>
<!-- src/components/UploadFiles/ -->
<g id="node14" class="node">
<title>src/components/UploadFiles/</title>
<g id="a_node14"><a xlink:href="src/components/UploadFiles/" xlink:title="UploadFiles">
<polygon fill="#ffffcc" stroke="#000000" points="225.0119,-199.3011 164.071,-199.3011 162.0041,-197.2342 162.0041,-180.6989 222.945,-180.6989 225.0119,-182.7658 225.0119,-199.3011"/>
<polyline fill="none" stroke="#000000" points="222.945,-197.2342 162.0041,-197.2342 "/>
<polyline fill="none" stroke="#000000" points="222.945,-197.2342 222.945,-180.6989 "/>
<polyline fill="none" stroke="#000000" points="222.945,-197.2342 225.0119,-199.3011 "/>
<text text-anchor="start" x="169.757" y="-187.3" font-family="Helvetica,sans-Serif" font-size="9.00" fill="#000000">UploadFiles</text>
</a>
</g>
</g>
<!-- src/components/UploadFiles/&#45;&gt;../../node_modules/ -->
<g id="edge13" class="edge">
<title>src/components/UploadFiles/&#45;&gt;../../node_modules/</title>
<path fill="none" stroke="#000000" stroke-opacity="0.200000" d="M199.1416,-180.4412C208.9761,-163.916 230.1294,-129.0805 250.016,-101 263.5059,-81.9518 280.3325,-60.9765 291.4762,-47.4302"/>
<polygon fill="#000000" fill-opacity="0.200000" stroke="#000000" stroke-opacity="0.200000" points="293.3884,-48.4128 295.5924,-42.4502 290.1511,-45.737 293.3884,-48.4128"/>
</g>
<!-- src/components/UploadFiles/&#45;&gt;@devoinc/genesys&#45;ui -->
<g id="edge12" class="edge">
<title>src/components/UploadFiles/&#45;&gt;@devoinc/genesys&#45;ui</title>
<path fill="none" stroke="#000000" stroke-width="2" stroke-opacity="0.200000" d="M208.3456,-180.6944C227.7029,-168.5541 261.6527,-147.2619 283.3396,-133.6606"/>
<polygon fill="#000000" fill-opacity="0.200000" stroke="#000000" stroke-width="2" stroke-opacity="0.200000" points="284.6054,-135.3456 288.5727,-130.3786 282.3738,-131.7875 284.6054,-135.3456"/>
</g>
<!-- src/components/index.ts -->
<g id="node15" class="node">
<title>src/components/index.ts</title>
<g id="a_node15"><a xlink:href="src/components/index.ts" xlink:title="index.ts">
<path fill="#ddfeff" stroke="#000000" d="M133.7993,-354.3011C133.7993,-354.3011 92.2007,-354.3011 92.2007,-354.3011 89.1004,-354.3011 86,-351.2007 86,-348.1004 86,-348.1004 86,-341.8996 86,-341.8996 86,-338.7993 89.1004,-335.6989 92.2007,-335.6989 92.2007,-335.6989 133.7993,-335.6989 133.7993,-335.6989 136.8996,-335.6989 140,-338.7993 140,-341.8996 140,-341.8996 140,-348.1004 140,-348.1004 140,-351.2007 136.8996,-354.3011 133.7993,-354.3011"/>
<text text-anchor="start" x="97.4957" y="-342.3" font-family="Helvetica,sans-Serif" font-size="9.00" fill="#000000">index.ts</text>
</a>
</g>
</g>
<!-- src/components/index.ts&#45;&gt;src/components/Checkbox/ -->
<g id="edge14" class="edge">
<title>src/components/index.ts&#45;&gt;src/components/Checkbox/</title>
<path fill="none" stroke="#000000" stroke-width="2" stroke-opacity="0.200000" d="M119.2948,-335.3306C126.3992,-325.0822 138.8299,-309.0226 153,-299 155.0835,-297.5263 157.3216,-296.1632 159.6375,-294.9069"/>
<polygon fill="#000000" fill-opacity="0.200000" stroke="#000000" stroke-width="2" stroke-opacity="0.200000" points="160.7083,-296.7198 165.146,-292.1682 158.8385,-292.959 160.7083,-296.7198"/>
</g>
<!-- src/components/index.ts&#45;&gt;src/components/CheckboxGroup/ -->
<g id="edge15" class="edge">
<title>src/components/index.ts&#45;&gt;src/components/CheckboxGroup/</title>
<path fill="none" stroke="#000000" stroke-width="2" stroke-opacity="0.200000" d="M113.9267,-354.4491C116.4356,-375.0768 125.1682,-424.5642 153,-453 154.1107,-454.1348 155.3117,-455.1911 156.5808,-456.1741"/>
<polygon fill="#000000" fill-opacity="0.200000" stroke="#000000" stroke-width="2" stroke-opacity="0.200000" points="155.6053,-458.0469 161.7661,-459.6135 157.9269,-454.5469 155.6053,-458.0469"/>
</g>
<!-- src/components/index.ts&#45;&gt;src/components/ColorPicker/ -->
<g id="edge16" class="edge">
<title>src/components/index.ts&#45;&gt;src/components/ColorPicker/</title>
<path fill="none" stroke="#000000" stroke-width="2" stroke-opacity="0.200000" d="M113.9267,-335.5509C116.4356,-314.9232 125.1682,-265.4358 153,-237 154.2396,-235.7335 155.5918,-234.5648 157.0255,-233.4866"/>
<polygon fill="#000000" fill-opacity="0.200000" stroke="#000000" stroke-width="2" stroke-opacity="0.200000" points="158.2723,-235.1811 162.1693,-230.1588 155.9909,-231.6548 158.2723,-235.1811"/>
</g>
<!-- src/components/index.ts&#45;&gt;src/components/FieldsCombiner/ -->
<g id="edge17" class="edge">
<title>src/components/index.ts&#45;&gt;src/components/FieldsCombiner/</title>
<path fill="none" stroke="#000000" stroke-width="2" stroke-opacity="0.200000" d="M115.5162,-335.6028C120.2558,-319.6039 131.9705,-286.969 153,-268 154.3159,-266.813 155.7305,-265.7092 157.2145,-264.6834"/>
<polygon fill="#000000" fill-opacity="0.200000" stroke="#000000" stroke-width="2" stroke-opacity="0.200000" points="158.4432,-266.3943 162.4856,-261.4883 156.266,-262.8027 158.4432,-266.3943"/>
</g>
<!-- src/components/index.ts&#45;&gt;src/components/Input/ -->
<g id="edge18" class="edge">
<title>src/components/index.ts&#45;&gt;src/components/Input/</title>
<path fill="none" stroke="#000000" stroke-width="2" stroke-opacity="0.200000" d="M114.6222,-354.5572C119.5642,-382.6781 135.1872,-464.39 153,-484 155.2878,-486.5187 158.023,-488.6462 160.9775,-490.4424"/>
<polygon fill="#000000" fill-opacity="0.200000" stroke="#000000" stroke-width="2" stroke-opacity="0.200000" points="160.1945,-492.403 166.4834,-493.3304 162.1455,-488.6836 160.1945,-492.403"/>
</g>
<!-- src/components/index.ts&#45;&gt;src/components/Radio/ -->
<g id="edge19" class="edge">
<title>src/components/index.ts&#45;&gt;src/components/Radio/</title>
<path fill="none" stroke="#000000" stroke-width="2" stroke-opacity="0.200000" d="M137.5925,-335.5305C145.7831,-332.3767 154.9986,-328.8282 163.5497,-325.5356"/>
<polygon fill="#000000" fill-opacity="0.200000" stroke="#000000" stroke-width="2" stroke-opacity="0.200000" points="164.4981,-327.4208 169.3427,-323.305 162.9888,-323.5013 164.4981,-327.4208"/>
</g>
<!-- src/components/index.ts&#45;&gt;src/components/RadioGroup/ -->
<g id="edge20" class="edge">
<title>src/components/index.ts&#45;&gt;src/components/RadioGroup/</title>
<path fill="none" stroke="#000000" stroke-width="2" stroke-opacity="0.200000" d="M140.2563,-345C145.0034,-345 150.0206,-345 155.002,-345"/>
<polygon fill="#000000" fill-opacity="0.200000" stroke="#000000" stroke-width="2" stroke-opacity="0.200000" points="155.2697,-347.1001 161.2696,-345 155.2696,-342.9001 155.2697,-347.1001"/>
</g>
<!-- src/components/index.ts&#45;&gt;src/components/Select/ -->
<g id="edge21" class="edge">
<title>src/components/index.ts&#45;&gt;src/components/Select/</title>
<path fill="none" stroke="#000000" stroke-width="2" stroke-opacity="0.200000" d="M137.5925,-354.4695C145.7831,-357.6233 154.9986,-361.1718 163.5497,-364.4644"/>
<polygon fill="#000000" fill-opacity="0.200000" stroke="#000000" stroke-width="2" stroke-opacity="0.200000" points="162.9888,-366.4987 169.3427,-366.695 164.4981,-362.5792 162.9888,-366.4987"/>
</g>
<!-- src/components/index.ts&#45;&gt;src/components/Switch/ -->
<g id="edge22" class="edge">
<title>src/components/index.ts&#45;&gt;src/components/Switch/</title>
<path fill="none" stroke="#000000" stroke-width="2" stroke-opacity="0.200000" d="M119.2948,-354.6694C126.3992,-364.9178 138.8299,-380.9774 153,-391 155.4191,-392.7111 158.0468,-394.2732 160.7626,-395.6919"/>
<polygon fill="#000000" fill-opacity="0.200000" stroke="#000000" stroke-width="2" stroke-opacity="0.200000" points="160.1037,-397.7048 166.422,-398.4043 161.919,-393.9174 160.1037,-397.7048"/>
</g>
<!-- src/components/index.ts&#45;&gt;src/components/Textarea/ -->
<g id="edge23" class="edge">
<title>src/components/index.ts&#45;&gt;src/components/Textarea/</title>
<path fill="none" stroke="#000000" stroke-width="2" stroke-opacity="0.200000" d="M115.5162,-354.3972C120.2558,-370.3961 131.9705,-403.031 153,-422 155.2669,-424.0448 157.8264,-425.8426 160.5297,-427.4204"/>
<polygon fill="#000000" fill-opacity="0.200000" stroke="#000000" stroke-width="2" stroke-opacity="0.200000" points="159.9376,-429.4777 166.2331,-430.3589 161.8612,-425.7441 159.9376,-429.4777"/>
</g>
<!-- src/components/index.ts&#45;&gt;src/components/UploadFiles/ -->
<g id="edge24" class="edge">
<title>src/components/index.ts&#45;&gt;src/components/UploadFiles/</title>
<path fill="none" stroke="#000000" stroke-width="2" stroke-opacity="0.200000" d="M114.6222,-335.4428C119.5642,-307.3219 135.1872,-225.61 153,-206 154.1916,-204.6882 155.5045,-203.4825 156.9066,-202.3744"/>
<polygon fill="#000000" fill-opacity="0.200000" stroke="#000000" stroke-width="2" stroke-opacity="0.200000" points="158.1619,-204.061 161.9702,-198.9711 155.819,-200.5752 158.1619,-204.061"/>
</g>
<!-- src/index.ts -->
<g id="node16" class="node">
<title>src/index.ts</title>
<g id="a_node16"><a xlink:href="src/index.ts" xlink:title="index.ts">
<path fill="#ddfeff" stroke="#000000" d="M63.7993,-354.3011C63.7993,-354.3011 22.2007,-354.3011 22.2007,-354.3011 19.1004,-354.3011 16,-351.2007 16,-348.1004 16,-348.1004 16,-341.8996 16,-341.8996 16,-338.7993 19.1004,-335.6989 22.2007,-335.6989 22.2007,-335.6989 63.7993,-335.6989 63.7993,-335.6989 66.8996,-335.6989 70,-338.7993 70,-341.8996 70,-341.8996 70,-348.1004 70,-348.1004 70,-351.2007 66.8996,-354.3011 63.7993,-354.3011"/>
<text text-anchor="start" x="27.4957" y="-342.3" font-family="Helvetica,sans-Serif" font-size="9.00" fill="#000000">index.ts</text>
</a>
</g>
</g>
<!-- src/index.ts&#45;&gt;src/components/index.ts -->
<g id="edge25" class="edge">
<title>src/index.ts&#45;&gt;src/components/index.ts</title>
<path fill="none" stroke="#000000" stroke-width="2" stroke-opacity="0.200000" d="M70.2643,-345C73.273,-345 76.3619,-345 79.4361,-345"/>
<polygon fill="#000000" fill-opacity="0.200000" stroke="#000000" stroke-width="2" stroke-opacity="0.200000" points="79.695,-347.1001 85.695,-345 79.695,-342.9001 79.695,-347.1001"/>
</g>
</g>
</svg>
