<?xml version="1.0" encoding="UTF-8" standalone="no"?>
<!DOCTYPE svg PUBLIC "-//W3C//DTD SVG 1.1//EN"
 "http://www.w3.org/Graphics/SVG/1.1/DTD/svg11.dtd">
<!-- Generated by graphviz version 2.40.1 (20161225.0304)
 -->
<!-- Title: dependency&#45;cruiser output Pages: 1 -->
<svg width="1983pt" height="568pt"
 viewBox="0.00 0.00 1982.67 568.00" xmlns="http://www.w3.org/2000/svg" xmlns:xlink="http://www.w3.org/1999/xlink">
<g id="graph0" class="graph" transform="scale(1 1) rotate(0) translate(4 564)">
<title>dependency&#45;cruiser output</title>
<polygon fill="#ffffff" stroke="transparent" points="-4,4 -4,-564 1978.6682,-564 1978.6682,4 -4,4"/>
<g id="clust1" class="cluster">
<title>cluster_@devoinc</title>
<path fill="#ffffff" stroke="#000000" stroke-width="2" d="M1581.6142,-15C1581.6142,-15 1633.1229,-15 1633.1229,-15 1639.1229,-15 1645.1229,-21 1645.1229,-27 1645.1229,-27 1645.1229,-56 1645.1229,-56 1645.1229,-62 1639.1229,-68 1633.1229,-68 1633.1229,-68 1581.6142,-68 1581.6142,-68 1575.6142,-68 1569.6142,-62 1569.6142,-56 1569.6142,-56 1569.6142,-27 1569.6142,-27 1569.6142,-21 1575.6142,-15 1581.6142,-15"/>
<text text-anchor="middle" x="1607.3686" y="-55.9" font-family="Helvetica,sans-Serif" font-weight="bold" font-size="9.00" fill="#000000">@devoinc</text>
</g>
<g id="clust2" class="cluster">
<title>cluster_src</title>
<path fill="#ffffff" stroke="#000000" stroke-width="2" d="M20,-76C20,-76 1954.6682,-76 1954.6682,-76 1960.6682,-76 1966.6682,-82 1966.6682,-88 1966.6682,-88 1966.6682,-540 1966.6682,-540 1966.6682,-546 1960.6682,-552 1954.6682,-552 1954.6682,-552 20,-552 20,-552 14,-552 8,-546 8,-540 8,-540 8,-88 8,-88 8,-82 14,-76 20,-76"/>
<text text-anchor="middle" x="987.3341" y="-539.9" font-family="Helvetica,sans-Serif" font-weight="bold" font-size="9.00" fill="#000000">src</text>
</g>
<g id="clust3" class="cluster">
<title>cluster_src/components</title>
<path fill="#ffffff" stroke="#000000" stroke-width="2" d="M90,-84C90,-84 1946.6682,-84 1946.6682,-84 1952.6682,-84 1958.6682,-90 1958.6682,-96 1958.6682,-96 1958.6682,-513 1958.6682,-513 1958.6682,-519 1952.6682,-525 1946.6682,-525 1946.6682,-525 90,-525 90,-525 84,-525 78,-519 78,-513 78,-513 78,-96 78,-96 78,-90 84,-84 90,-84"/>
<text text-anchor="middle" x="1018.3341" y="-512.9" font-family="Helvetica,sans-Serif" font-weight="bold" font-size="9.00" fill="#000000">components</text>
</g>
<g id="clust4" class="cluster">
<title>cluster_src/components/DiffEditor</title>
<path fill="#ffffff" stroke="#000000" stroke-width="2" d="M160,-157C160,-157 891.0432,-157 891.0432,-157 897.0432,-157 903.0432,-163 903.0432,-169 903.0432,-169 903.0432,-486 903.0432,-486 903.0432,-492 897.0432,-498 891.0432,-498 891.0432,-498 160,-498 160,-498 154,-498 148,-492 148,-486 148,-486 148,-169 148,-169 148,-163 154,-157 160,-157"/>
<text text-anchor="middle" x="525.5216" y="-485.9" font-family="Helvetica,sans-Serif" font-weight="bold" font-size="9.00" fill="#000000">DiffEditor</text>
</g>
<g id="clust5" class="cluster">
<title>cluster_src/components/DiffEditor/components</title>
<path fill="#ffffff" stroke="#000000" stroke-width="2" d="M310.0012,-165C310.0012,-165 679.0323,-165 679.0323,-165 685.0323,-165 691.0323,-171 691.0323,-177 691.0323,-177 691.0323,-302 691.0323,-302 691.0323,-308 685.0323,-314 679.0323,-314 679.0323,-314 310.0012,-314 310.0012,-314 304.0012,-314 298.0012,-308 298.0012,-302 298.0012,-302 298.0012,-177 298.0012,-177 298.0012,-171 304.0012,-165 310.0012,-165"/>
<text text-anchor="middle" x="494.5168" y="-301.9" font-family="Helvetica,sans-Serif" font-weight="bold" font-size="9.00" fill="#000000">components</text>
</g>
<g id="clust6" class="cluster">
<title>cluster_src/components/DiffEditor/components/ActionsContainer</title>
<path fill="#ffffff" stroke="#000000" stroke-width="2" d="M380.0012,-173C380.0012,-173 537.5168,-173 537.5168,-173 543.5168,-173 549.5168,-179 549.5168,-185 549.5168,-185 549.5168,-214 549.5168,-214 549.5168,-220 543.5168,-226 537.5168,-226 537.5168,-226 380.0012,-226 380.0012,-226 374.0012,-226 368.0012,-220 368.0012,-214 368.0012,-214 368.0012,-185 368.0012,-185 368.0012,-179 374.0012,-173 380.0012,-173"/>
<text text-anchor="middle" x="458.759" y="-213.9" font-family="Helvetica,sans-Serif" font-weight="bold" font-size="9.00" fill="#000000">ActionsContainer</text>
</g>
<g id="clust7" class="cluster">
<title>cluster_src/components/DiffEditor/components/InternalDiffEditor</title>
<path fill="#ffffff" stroke="#000000" stroke-width="2" d="M380.0012,-234C380.0012,-234 671.0323,-234 671.0323,-234 677.0323,-234 683.0323,-240 683.0323,-246 683.0323,-246 683.0323,-275 683.0323,-275 683.0323,-281 677.0323,-287 671.0323,-287 671.0323,-287 380.0012,-287 380.0012,-287 374.0012,-287 368.0012,-281 368.0012,-275 368.0012,-275 368.0012,-246 368.0012,-246 368.0012,-240 374.0012,-234 380.0012,-234"/>
<text text-anchor="middle" x="525.5168" y="-274.9" font-family="Helvetica,sans-Serif" font-weight="bold" font-size="9.00" fill="#000000">InternalDiffEditor</text>
</g>
<g id="clust8" class="cluster">
<title>cluster_src/components/DiffEditor/hooks</title>
<path fill="#ffffff" stroke="#000000" stroke-width="2" d="M593.2746,-322C593.2746,-322 883.0432,-322 883.0432,-322 889.0432,-322 895.0432,-328 895.0432,-334 895.0432,-334 895.0432,-459 895.0432,-459 895.0432,-465 889.0432,-471 883.0432,-471 883.0432,-471 593.2746,-471 593.2746,-471 587.2746,-471 581.2746,-465 581.2746,-459 581.2746,-459 581.2746,-334 581.2746,-334 581.2746,-328 587.2746,-322 593.2746,-322"/>
<text text-anchor="middle" x="738.1589" y="-458.9" font-family="Helvetica,sans-Serif" font-weight="bold" font-size="9.00" fill="#000000">hooks</text>
</g>
<g id="clust9" class="cluster">
<title>cluster_src/components/DiffEditor/hooks/editor</title>
<path fill="#ffffff" stroke="#000000" stroke-width="2" d="M711.0323,-330C711.0323,-330 863.2915,-330 863.2915,-330 869.2915,-330 875.2915,-336 875.2915,-342 875.2915,-342 875.2915,-371 875.2915,-371 875.2915,-377 869.2915,-383 863.2915,-383 863.2915,-383 711.0323,-383 711.0323,-383 705.0323,-383 699.0323,-377 699.0323,-371 699.0323,-371 699.0323,-342 699.0323,-342 699.0323,-336 705.0323,-330 711.0323,-330"/>
<text text-anchor="middle" x="787.1619" y="-370.9" font-family="Helvetica,sans-Serif" font-weight="bold" font-size="9.00" fill="#000000">editor</text>
</g>
<g id="clust10" class="cluster">
<title>cluster_src/components/DiffEditor/hooks/theme</title>
<path fill="#ffffff" stroke="#000000" stroke-width="2" d="M711.0323,-391C711.0323,-391 875.0432,-391 875.0432,-391 881.0432,-391 887.0432,-397 887.0432,-403 887.0432,-403 887.0432,-432 887.0432,-432 887.0432,-438 881.0432,-444 875.0432,-444 875.0432,-444 711.0323,-444 711.0323,-444 705.0323,-444 699.0323,-438 699.0323,-432 699.0323,-432 699.0323,-403 699.0323,-403 699.0323,-397 705.0323,-391 711.0323,-391"/>
<text text-anchor="middle" x="793.0378" y="-431.9" font-family="Helvetica,sans-Serif" font-weight="bold" font-size="9.00" fill="#000000">theme</text>
</g>
<g id="clust11" class="cluster">
<title>cluster_src/components/Editor</title>
<path fill="#ffffff" stroke="#000000" stroke-width="2" d="M923.0432,-96C923.0432,-96 1938.6682,-96 1938.6682,-96 1944.6682,-96 1950.6682,-102 1950.6682,-108 1950.6682,-108 1950.6682,-486 1950.6682,-486 1950.6682,-492 1944.6682,-498 1938.6682,-498 1938.6682,-498 923.0432,-498 923.0432,-498 917.0432,-498 911.0432,-492 911.0432,-486 911.0432,-486 911.0432,-108 911.0432,-108 911.0432,-102 917.0432,-96 923.0432,-96"/>
<text text-anchor="middle" x="1430.8557" y="-485.9" font-family="Helvetica,sans-Serif" font-weight="bold" font-size="9.00" fill="#000000">Editor</text>
</g>
<g id="clust12" class="cluster">
<title>cluster_src/components/Editor/api</title>
<path fill="#ffffff" stroke="#000000" stroke-width="2" d="M993.0432,-346C993.0432,-346 1295.0765,-346 1295.0765,-346 1301.0765,-346 1307.0765,-352 1307.0765,-358 1307.0765,-358 1307.0765,-418 1307.0765,-418 1307.0765,-424 1301.0765,-430 1295.0765,-430 1295.0765,-430 993.0432,-430 993.0432,-430 987.0432,-430 981.0432,-424 981.0432,-418 981.0432,-418 981.0432,-358 981.0432,-358 981.0432,-352 987.0432,-346 993.0432,-346"/>
<text text-anchor="middle" x="1144.0599" y="-417.9" font-family="Helvetica,sans-Serif" font-weight="bold" font-size="9.00" fill="#000000">api</text>
</g>
<g id="clust13" class="cluster">
<title>cluster_src/components/Editor/components</title>
<path fill="#ffffff" stroke="#000000" stroke-width="2" d="M1080.8066,-104C1080.8066,-104 1549.6142,-104 1549.6142,-104 1555.6142,-104 1561.6142,-110 1561.6142,-116 1561.6142,-116 1561.6142,-302 1561.6142,-302 1561.6142,-308 1555.6142,-314 1549.6142,-314 1549.6142,-314 1080.8066,-314 1080.8066,-314 1074.8066,-314 1068.8066,-308 1068.8066,-302 1068.8066,-302 1068.8066,-116 1068.8066,-116 1068.8066,-110 1074.8066,-104 1080.8066,-104"/>
<text text-anchor="middle" x="1315.2104" y="-301.9" font-family="Helvetica,sans-Serif" font-weight="bold" font-size="9.00" fill="#000000">components</text>
</g>
<g id="clust14" class="cluster">
<title>cluster_src/components/Editor/components/Actions</title>
<path fill="#ffffff" stroke="#000000" stroke-width="2" d="M1208.8232,-173C1208.8232,-173 1541.6142,-173 1541.6142,-173 1547.6142,-173 1553.6142,-179 1553.6142,-185 1553.6142,-185 1553.6142,-214 1553.6142,-214 1553.6142,-220 1547.6142,-226 1541.6142,-226 1541.6142,-226 1208.8232,-226 1208.8232,-226 1202.8232,-226 1196.8232,-220 1196.8232,-214 1196.8232,-214 1196.8232,-185 1196.8232,-185 1196.8232,-179 1202.8232,-173 1208.8232,-173"/>
<text text-anchor="middle" x="1375.2187" y="-213.9" font-family="Helvetica,sans-Serif" font-weight="bold" font-size="9.00" fill="#000000">Actions</text>
</g>
<g id="clust15" class="cluster">
<title>cluster_src/components/Editor/components/Container</title>
<path fill="#ffffff" stroke="#000000" stroke-width="2" d="M1208.8232,-112C1208.8232,-112 1529.111,-112 1529.111,-112 1535.111,-112 1541.111,-118 1541.111,-124 1541.111,-124 1541.111,-153 1541.111,-153 1541.111,-159 1535.111,-165 1529.111,-165 1529.111,-165 1208.8232,-165 1208.8232,-165 1202.8232,-165 1196.8232,-159 1196.8232,-153 1196.8232,-153 1196.8232,-124 1196.8232,-124 1196.8232,-118 1202.8232,-112 1208.8232,-112"/>
<text text-anchor="middle" x="1368.9671" y="-152.9" font-family="Helvetica,sans-Serif" font-weight="bold" font-size="9.00" fill="#000000">Container</text>
</g>
<g id="clust16" class="cluster">
<title>cluster_src/components/Editor/components/InternalEditor</title>
<path fill="#ffffff" stroke="#000000" stroke-width="2" d="M1208.8232,-234C1208.8232,-234 1534.1127,-234 1534.1127,-234 1540.1127,-234 1546.1127,-240 1546.1127,-246 1546.1127,-246 1546.1127,-275 1546.1127,-275 1546.1127,-281 1540.1127,-287 1534.1127,-287 1534.1127,-287 1208.8232,-287 1208.8232,-287 1202.8232,-287 1196.8232,-281 1196.8232,-275 1196.8232,-275 1196.8232,-246 1196.8232,-246 1196.8232,-240 1202.8232,-234 1208.8232,-234"/>
<text text-anchor="middle" x="1371.468" y="-274.9" font-family="Helvetica,sans-Serif" font-weight="bold" font-size="9.00" fill="#000000">InternalEditor</text>
</g>
<g id="clust17" class="cluster">
<title>cluster_src/components/Editor/hooks</title>
<path fill="#ffffff" stroke="#000000" stroke-width="2" d="M1463.1032,-322C1463.1032,-322 1930.6682,-322 1930.6682,-322 1936.6682,-322 1942.6682,-328 1942.6682,-334 1942.6682,-334 1942.6682,-459 1942.6682,-459 1942.6682,-465 1936.6682,-471 1930.6682,-471 1930.6682,-471 1463.1032,-471 1463.1032,-471 1457.1032,-471 1451.1032,-465 1451.1032,-459 1451.1032,-459 1451.1032,-334 1451.1032,-334 1451.1032,-328 1457.1032,-322 1463.1032,-322"/>
<text text-anchor="middle" x="1696.8857" y="-458.9" font-family="Helvetica,sans-Serif" font-weight="bold" font-size="9.00" fill="#000000">hooks</text>
</g>
<g id="clust18" class="cluster">
<title>cluster_src/components/Editor/hooks/editor</title>
<path fill="#ffffff" stroke="#000000" stroke-width="2" d="M1584.3686,-330C1584.3686,-330 1922.6682,-330 1922.6682,-330 1928.6682,-330 1934.6682,-336 1934.6682,-342 1934.6682,-342 1934.6682,-371 1934.6682,-371 1934.6682,-377 1928.6682,-383 1922.6682,-383 1922.6682,-383 1584.3686,-383 1584.3686,-383 1578.3686,-383 1572.3686,-377 1572.3686,-371 1572.3686,-371 1572.3686,-342 1572.3686,-342 1572.3686,-336 1578.3686,-330 1584.3686,-330"/>
<text text-anchor="middle" x="1753.5184" y="-370.9" font-family="Helvetica,sans-Serif" font-weight="bold" font-size="9.00" fill="#000000">editor</text>
</g>
<g id="clust19" class="cluster">
<title>cluster_src/components/Editor/hooks/theme</title>
<path fill="#ffffff" stroke="#000000" stroke-width="2" d="M1584.3686,-391C1584.3686,-391 1849.6501,-391 1849.6501,-391 1855.6501,-391 1861.6501,-397 1861.6501,-403 1861.6501,-403 1861.6501,-432 1861.6501,-432 1861.6501,-438 1855.6501,-444 1849.6501,-444 1849.6501,-444 1584.3686,-444 1584.3686,-444 1578.3686,-444 1572.3686,-438 1572.3686,-432 1572.3686,-432 1572.3686,-403 1572.3686,-403 1572.3686,-397 1578.3686,-391 1584.3686,-391"/>
<text text-anchor="middle" x="1717.0093" y="-431.9" font-family="Helvetica,sans-Serif" font-weight="bold" font-size="9.00" fill="#000000">theme</text>
</g>
<!-- @devoinc/genesys&#45;ui -->
<g id="node1" class="node">
<title>@devoinc/genesys&#45;ui</title>
<g id="a_node1"><a xlink:title="genesys&#45;ui">
<path fill="#ffffcc" stroke="#000000" d="M1630.6786,-41.3011C1630.6786,-41.3011 1584.0585,-41.3011 1584.0585,-41.3011 1580.9582,-41.3011 1577.8578,-38.2007 1577.8578,-35.1004 1577.8578,-35.1004 1577.8578,-28.8996 1577.8578,-28.8996 1577.8578,-25.7993 1580.9582,-22.6989 1584.0585,-22.6989 1584.0585,-22.6989 1630.6786,-22.6989 1630.6786,-22.6989 1633.7789,-22.6989 1636.8793,-25.7993 1636.8793,-28.8996 1636.8793,-28.8996 1636.8793,-35.1004 1636.8793,-35.1004 1636.8793,-38.2007 1633.7789,-41.3011 1630.6786,-41.3011"/>
<text text-anchor="start" x="1585.6142" y="-29.3" font-family="Helvetica,sans-Serif" font-size="9.00" fill="#000000">genesys&#45;ui</text>
</a>
</g>
</g>
<!-- monaco&#45;editor&#45;core -->
<g id="node2" class="node">
<title>monaco&#45;editor&#45;core</title>
<g id="a_node2"><a xlink:title="monaco&#45;editor&#45;core">
<path fill="#ffffcc" stroke="#000000" d="M1847.9517,-38.3011C1847.9517,-38.3011 1766.34,-38.3011 1766.34,-38.3011 1763.2396,-38.3011 1760.1392,-35.2007 1760.1392,-32.1004 1760.1392,-32.1004 1760.1392,-25.8996 1760.1392,-25.8996 1760.1392,-22.7993 1763.2396,-19.6989 1766.34,-19.6989 1766.34,-19.6989 1847.9517,-19.6989 1847.9517,-19.6989 1851.0521,-19.6989 1854.1525,-22.7993 1854.1525,-25.8996 1854.1525,-25.8996 1854.1525,-32.1004 1854.1525,-32.1004 1854.1525,-35.2007 1851.0521,-38.3011 1847.9517,-38.3011"/>
<text text-anchor="middle" x="1807.1459" y="-26.3" font-family="Helvetica,sans-Serif" font-size="9.00" fill="#000000">monaco&#45;editor&#45;core</text>
</a>
</g>
</g>
<!-- src/components/DiffEditor/DiffEditor.tsx -->
<g id="node3" class="node">
<title>src/components/DiffEditor/DiffEditor.tsx</title>
<g id="a_node3"><a xlink:href="src/components/DiffEditor/DiffEditor.tsx" xlink:title="DiffEditor.tsx">
<path fill="#bbfeff" stroke="#000000" d="M283.8011,-271.3011C283.8011,-271.3011 229.2001,-271.3011 229.2001,-271.3011 226.0998,-271.3011 222.9994,-268.2007 222.9994,-265.1004 222.9994,-265.1004 222.9994,-258.8996 222.9994,-258.8996 222.9994,-255.7993 226.0998,-252.6989 229.2001,-252.6989 229.2001,-252.6989 283.8011,-252.6989 283.8011,-252.6989 286.9014,-252.6989 290.0018,-255.7993 290.0018,-258.8996 290.0018,-258.8996 290.0018,-265.1004 290.0018,-265.1004 290.0018,-268.2007 286.9014,-271.3011 283.8011,-271.3011"/>
<text text-anchor="start" x="231" y="-259.3" font-family="Helvetica,sans-Serif" font-size="9.00" fill="#000000">DiffEditor.tsx</text>
</a>
</g>
</g>
<!-- src/components/Editor/components/Container/Container.tsx -->
<g id="node4" class="node">
<title>src/components/Editor/components/Container/Container.tsx</title>
<g id="a_node4"><a xlink:href="src/components/Editor/components/Container/Container.tsx" xlink:title="Container.tsx">
<path fill="#bbfeff" stroke="#000000" d="M1392.6427,-138.3011C1392.6427,-138.3011 1336.0259,-138.3011 1336.0259,-138.3011 1332.9256,-138.3011 1329.8252,-135.2007 1329.8252,-132.1004 1329.8252,-132.1004 1329.8252,-125.8996 1329.8252,-125.8996 1329.8252,-122.7993 1332.9256,-119.6989 1336.0259,-119.6989 1336.0259,-119.6989 1392.6427,-119.6989 1392.6427,-119.6989 1395.743,-119.6989 1398.8434,-122.7993 1398.8434,-125.8996 1398.8434,-125.8996 1398.8434,-132.1004 1398.8434,-132.1004 1398.8434,-135.2007 1395.743,-138.3011 1392.6427,-138.3011"/>
<text text-anchor="start" x="1337.8298" y="-126.3" font-family="Helvetica,sans-Serif" font-size="9.00" fill="#000000">Container.tsx</text>
</a>
</g>
</g>
<!-- src/components/DiffEditor/DiffEditor.tsx&#45;&gt;src/components/Editor/components/Container/Container.tsx -->
<g id="edge1" class="edge">
<title>src/components/DiffEditor/DiffEditor.tsx&#45;&gt;src/components/Editor/components/Container/Container.tsx</title>
<path fill="none" stroke="#000000" stroke-width="2" stroke-opacity="0.200000" d="M286.6696,-252.5111C287.9007,-251.4611 289.0245,-250.295 290.0012,-249 313.3817,-217.9983 274.6533,-193.0263 298.0012,-162 328.1246,-121.9699 352.903,-121 403.0012,-121 403.0012,-121 403.0012,-121 616.2746,-121 763.3658,-121 798.952,-93 946.0432,-93 946.0432,-93 946.0432,-93 1103.8066,-93 1194.1761,-93 1219.7538,-74.732 1307.0765,-98 1320.8428,-101.6682 1334.932,-109.238 1345.6897,-115.9788"/>
<polygon fill="#000000" fill-opacity="0.200000" stroke="#000000" stroke-width="2" stroke-opacity="0.200000" points="1344.8126,-117.9122 1350.9922,-119.4032 1347.0912,-114.384 1344.8126,-117.9122"/>
</g>
<!-- src/components/DiffEditor/components/index.ts -->
<g id="node5" class="node">
<title>src/components/DiffEditor/components/index.ts</title>
<g id="a_node5"><a xlink:href="src/components/DiffEditor/components/index.ts" xlink:title="index.ts">
<path fill="#ddfeff" stroke="#000000" d="M353.8005,-260.3011C353.8005,-260.3011 312.2019,-260.3011 312.2019,-260.3011 309.1016,-260.3011 306.0012,-257.2007 306.0012,-254.1004 306.0012,-254.1004 306.0012,-247.8996 306.0012,-247.8996 306.0012,-244.7993 309.1016,-241.6989 312.2019,-241.6989 312.2019,-241.6989 353.8005,-241.6989 353.8005,-241.6989 356.9008,-241.6989 360.0012,-244.7993 360.0012,-247.8996 360.0012,-247.8996 360.0012,-254.1004 360.0012,-254.1004 360.0012,-257.2007 356.9008,-260.3011 353.8005,-260.3011"/>
<text text-anchor="start" x="317.4969" y="-248.3" font-family="Helvetica,sans-Serif" font-size="9.00" fill="#000000">index.ts</text>
</a>
</g>
</g>
<!-- src/components/DiffEditor/DiffEditor.tsx&#45;&gt;src/components/DiffEditor/components/index.ts -->
<g id="edge2" class="edge">
<title>src/components/DiffEditor/DiffEditor.tsx&#45;&gt;src/components/DiffEditor/components/index.ts</title>
<path fill="none" stroke="#000000" stroke-width="2" stroke-opacity="0.200000" d="M290.2776,-257.1432C293.3196,-256.7058 296.3998,-256.2629 299.44,-255.8258"/>
<polygon fill="#000000" fill-opacity="0.200000" stroke="#000000" stroke-width="2" stroke-opacity="0.200000" points="299.9588,-257.8728 305.5988,-254.9402 299.361,-253.7156 299.9588,-257.8728"/>
</g>
<!-- src/components/DiffEditor/components/InternalDiffEditor/InternalDiffEditor.tsx -->
<g id="node6" class="node">
<title>src/components/DiffEditor/components/InternalDiffEditor/InternalDiffEditor.tsx</title>
<g id="a_node6"><a xlink:href="src/components/DiffEditor/components/InternalDiffEditor/InternalDiffEditor.tsx" xlink:title="InternalDiffEditor.tsx">
<path fill="#bbfeff" stroke="#000000" d="M534.5673,-260.3011C534.5673,-260.3011 449.9507,-260.3011 449.9507,-260.3011 446.8504,-260.3011 443.75,-257.2007 443.75,-254.1004 443.75,-254.1004 443.75,-247.8996 443.75,-247.8996 443.75,-244.7993 446.8504,-241.6989 449.9507,-241.6989 449.9507,-241.6989 534.5673,-241.6989 534.5673,-241.6989 537.6676,-241.6989 540.768,-244.7993 540.768,-247.8996 540.768,-247.8996 540.768,-254.1004 540.768,-254.1004 540.768,-257.2007 537.6676,-260.3011 534.5673,-260.3011"/>
<text text-anchor="start" x="451.7545" y="-248.3" font-family="Helvetica,sans-Serif" font-size="9.00" fill="#000000">InternalDiffEditor.tsx</text>
</a>
</g>
</g>
<!-- src/components/DiffEditor/DiffEditor.tsx&#45;&gt;src/components/DiffEditor/components/InternalDiffEditor/InternalDiffEditor.tsx -->
<g id="edge3" class="edge">
<title>src/components/DiffEditor/DiffEditor.tsx&#45;&gt;src/components/DiffEditor/components/InternalDiffEditor/InternalDiffEditor.tsx</title>
<path fill="none" stroke="#000000" stroke-width="2" stroke-opacity="0.200000" d="M290.4299,-267.3101C292.9874,-267.5862 295.5324,-267.8225 298.0012,-268 356.5235,-272.2086 371.8421,-273.7512 430.0012,-266 437.4917,-265.0017 445.3934,-263.4761 452.9598,-261.7736"/>
<polygon fill="#000000" fill-opacity="0.200000" stroke="#000000" stroke-width="2" stroke-opacity="0.200000" points="453.8563,-263.7207 459.2205,-260.3096 452.8999,-259.6311 453.8563,-263.7207"/>
</g>
<!-- src/components/DiffEditor/hooks/index.ts -->
<g id="node7" class="node">
<title>src/components/DiffEditor/hooks/index.ts</title>
<g id="a_node7"><a xlink:href="src/components/DiffEditor/hooks/index.ts" xlink:title="index.ts">
<path fill="#ddfeff" stroke="#000000" d="M637.0738,-348.3011C637.0738,-348.3011 595.4753,-348.3011 595.4753,-348.3011 592.3749,-348.3011 589.2746,-345.2007 589.2746,-342.1004 589.2746,-342.1004 589.2746,-335.8996 589.2746,-335.8996 589.2746,-332.7993 592.3749,-329.6989 595.4753,-329.6989 595.4753,-329.6989 637.0738,-329.6989 637.0738,-329.6989 640.1742,-329.6989 643.2746,-332.7993 643.2746,-335.8996 643.2746,-335.8996 643.2746,-342.1004 643.2746,-342.1004 643.2746,-345.2007 640.1742,-348.3011 637.0738,-348.3011"/>
<text text-anchor="start" x="600.7703" y="-336.3" font-family="Helvetica,sans-Serif" font-size="9.00" fill="#000000">index.ts</text>
</a>
</g>
</g>
<!-- src/components/DiffEditor/DiffEditor.tsx&#45;&gt;src/components/DiffEditor/hooks/index.ts -->
<g id="edge4" class="edge">
<title>src/components/DiffEditor/DiffEditor.tsx&#45;&gt;src/components/DiffEditor/hooks/index.ts</title>
<path fill="none" stroke="#000000" stroke-width="2" stroke-opacity="0.200000" d="M290.0455,-270.9726C312.1179,-276.7407 341.6862,-284.2107 368.0012,-290 444.5867,-306.8489 535.0664,-324.0224 582.8373,-332.8776"/>
<polygon fill="#000000" fill-opacity="0.200000" stroke="#000000" stroke-width="2" stroke-opacity="0.200000" points="582.7264,-334.9926 589.0083,-334.0192 583.4905,-330.8627 582.7264,-334.9926"/>
</g>
<!-- src/components/Editor/components/Container/StyledContainer.tsx -->
<g id="node31" class="node">
<title>src/components/Editor/components/Container/StyledContainer.tsx</title>
<g id="a_node31"><a xlink:href="src/components/Editor/components/Container/StyledContainer.tsx" xlink:title="StyledContainer.tsx">
<path fill="#bbfeff" stroke="#000000" d="M1526.918,-138.3011C1526.918,-138.3011 1445.2883,-138.3011 1445.2883,-138.3011 1442.1879,-138.3011 1439.0875,-135.2007 1439.0875,-132.1004 1439.0875,-132.1004 1439.0875,-125.8996 1439.0875,-125.8996 1439.0875,-122.7993 1442.1879,-119.6989 1445.2883,-119.6989 1445.2883,-119.6989 1526.918,-119.6989 1526.918,-119.6989 1530.0184,-119.6989 1533.1188,-122.7993 1533.1188,-125.8996 1533.1188,-125.8996 1533.1188,-132.1004 1533.1188,-132.1004 1533.1188,-135.2007 1530.0184,-138.3011 1526.918,-138.3011"/>
<text text-anchor="start" x="1447.0954" y="-126.3" font-family="Helvetica,sans-Serif" font-size="9.00" fill="#000000">StyledContainer.tsx</text>
</a>
</g>
</g>
<!-- src/components/Editor/components/Container/Container.tsx&#45;&gt;src/components/Editor/components/Container/StyledContainer.tsx -->
<g id="edge35" class="edge">
<title>src/components/Editor/components/Container/Container.tsx&#45;&gt;src/components/Editor/components/Container/StyledContainer.tsx</title>
<path fill="none" stroke="#000000" stroke-width="2" stroke-opacity="0.200000" d="M1398.9027,-129C1409.3441,-129 1421.0643,-129 1432.443,-129"/>
<polygon fill="#000000" fill-opacity="0.200000" stroke="#000000" stroke-width="2" stroke-opacity="0.200000" points="1432.7191,-131.1001 1438.7191,-129 1432.719,-126.9001 1432.7191,-131.1001"/>
</g>
<!-- src/components/DiffEditor/components/ActionsContainer/index.ts -->
<g id="node10" class="node">
<title>src/components/DiffEditor/components/ActionsContainer/index.ts</title>
<g id="a_node10"><a xlink:href="src/components/DiffEditor/components/ActionsContainer/index.ts" xlink:title="index.ts">
<path fill="#ddfeff" stroke="#000000" d="M423.8005,-199.3011C423.8005,-199.3011 382.2019,-199.3011 382.2019,-199.3011 379.1016,-199.3011 376.0012,-196.2007 376.0012,-193.1004 376.0012,-193.1004 376.0012,-186.8996 376.0012,-186.8996 376.0012,-183.7993 379.1016,-180.6989 382.2019,-180.6989 382.2019,-180.6989 423.8005,-180.6989 423.8005,-180.6989 426.9008,-180.6989 430.0012,-183.7993 430.0012,-186.8996 430.0012,-186.8996 430.0012,-193.1004 430.0012,-193.1004 430.0012,-196.2007 426.9008,-199.3011 423.8005,-199.3011"/>
<text text-anchor="start" x="387.4969" y="-187.3" font-family="Helvetica,sans-Serif" font-size="9.00" fill="#000000">index.ts</text>
</a>
</g>
</g>
<!-- src/components/DiffEditor/components/index.ts&#45;&gt;src/components/DiffEditor/components/ActionsContainer/index.ts -->
<g id="edge11" class="edge">
<title>src/components/DiffEditor/components/index.ts&#45;&gt;src/components/DiffEditor/components/ActionsContainer/index.ts</title>
<path fill="none" stroke="#000000" stroke-width="2" stroke-opacity="0.200000" d="M343.9387,-241.4688C355.5825,-231.322 374.1128,-215.1742 387.3109,-203.673"/>
<polygon fill="#000000" fill-opacity="0.200000" stroke="#000000" stroke-width="2" stroke-opacity="0.200000" points="388.7657,-205.1908 391.9095,-199.6656 386.0063,-202.0243 388.7657,-205.1908"/>
</g>
<!-- src/components/DiffEditor/components/InternalDiffEditor/index.ts -->
<g id="node13" class="node">
<title>src/components/DiffEditor/components/InternalDiffEditor/index.ts</title>
<g id="a_node13"><a xlink:href="src/components/DiffEditor/components/InternalDiffEditor/index.ts" xlink:title="index.ts">
<path fill="#ddfeff" stroke="#000000" d="M423.8005,-260.3011C423.8005,-260.3011 382.2019,-260.3011 382.2019,-260.3011 379.1016,-260.3011 376.0012,-257.2007 376.0012,-254.1004 376.0012,-254.1004 376.0012,-247.8996 376.0012,-247.8996 376.0012,-244.7993 379.1016,-241.6989 382.2019,-241.6989 382.2019,-241.6989 423.8005,-241.6989 423.8005,-241.6989 426.9008,-241.6989 430.0012,-244.7993 430.0012,-247.8996 430.0012,-247.8996 430.0012,-254.1004 430.0012,-254.1004 430.0012,-257.2007 426.9008,-260.3011 423.8005,-260.3011"/>
<text text-anchor="start" x="387.4969" y="-248.3" font-family="Helvetica,sans-Serif" font-size="9.00" fill="#000000">index.ts</text>
</a>
</g>
</g>
<!-- src/components/DiffEditor/components/index.ts&#45;&gt;src/components/DiffEditor/components/InternalDiffEditor/index.ts -->
<g id="edge12" class="edge">
<title>src/components/DiffEditor/components/index.ts&#45;&gt;src/components/DiffEditor/components/InternalDiffEditor/index.ts</title>
<path fill="none" stroke="#000000" stroke-width="2" stroke-opacity="0.200000" d="M360.2655,-251C363.2742,-251 366.3631,-251 369.4373,-251"/>
<polygon fill="#000000" fill-opacity="0.200000" stroke="#000000" stroke-width="2" stroke-opacity="0.200000" points="369.6962,-253.1001 375.6962,-251 369.6962,-248.9001 369.6962,-253.1001"/>
</g>
<!-- src/components/DiffEditor/components/InternalDiffEditor/InternalDiffEditor.tsx&#45;&gt;src/components/DiffEditor/hooks/index.ts -->
<g id="edge7" class="edge">
<title>src/components/DiffEditor/components/InternalDiffEditor/InternalDiffEditor.tsx&#45;&gt;src/components/DiffEditor/hooks/index.ts</title>
<path fill="none" stroke="#000000" stroke-width="2" stroke-opacity="0.200000" d="M541.0222,-258.056C544.0995,-259.6831 546.9757,-261.6432 549.5168,-264 558.3814,-272.2215 550.8194,-279.9343 557.5168,-290 567.3028,-304.7077 582.78,-317.3589 595.3935,-326.1207"/>
<polygon fill="#000000" fill-opacity="0.200000" stroke="#000000" stroke-width="2" stroke-opacity="0.200000" points="594.4506,-328.0177 600.5991,-329.6322 596.7994,-324.5359 594.4506,-328.0177"/>
</g>
<!-- src/components/DiffEditor/components/InternalDiffEditor/StyledInternalDiffEditor.ts -->
<g id="node11" class="node">
<title>src/components/DiffEditor/components/InternalDiffEditor/StyledInternalDiffEditor.ts</title>
<g id="a_node11"><a xlink:href="src/components/DiffEditor/components/InternalDiffEditor/StyledInternalDiffEditor.ts" xlink:title="StyledInternalDiffEditor.ts">
<path fill="#ddfeff" stroke="#000000" d="M668.5903,-260.3011C668.5903,-260.3011 563.9588,-260.3011 563.9588,-260.3011 560.8584,-260.3011 557.7581,-257.2007 557.7581,-254.1004 557.7581,-254.1004 557.7581,-247.8996 557.7581,-247.8996 557.7581,-244.7993 560.8584,-241.6989 563.9588,-241.6989 563.9588,-241.6989 668.5903,-241.6989 668.5903,-241.6989 671.6907,-241.6989 674.791,-244.7993 674.791,-247.8996 674.791,-247.8996 674.791,-254.1004 674.791,-254.1004 674.791,-257.2007 671.6907,-260.3011 668.5903,-260.3011"/>
<text text-anchor="start" x="565.5168" y="-248.3" font-family="Helvetica,sans-Serif" font-size="9.00" fill="#000000">StyledInternalDiffEditor.ts</text>
</a>
</g>
</g>
<!-- src/components/DiffEditor/components/InternalDiffEditor/InternalDiffEditor.tsx&#45;&gt;src/components/DiffEditor/components/InternalDiffEditor/StyledInternalDiffEditor.ts -->
<g id="edge8" class="edge">
<title>src/components/DiffEditor/components/InternalDiffEditor/InternalDiffEditor.tsx&#45;&gt;src/components/DiffEditor/components/InternalDiffEditor/StyledInternalDiffEditor.ts</title>
<path fill="none" stroke="#000000" stroke-width="2" stroke-opacity="0.200000" d="M540.9173,-251C544.3102,-251 547.7591,-251 551.2207,-251"/>
<polygon fill="#000000" fill-opacity="0.200000" stroke="#000000" stroke-width="2" stroke-opacity="0.200000" points="551.456,-253.1001 557.456,-251 551.456,-248.9001 551.456,-253.1001"/>
</g>
<!-- src/components/DiffEditor/hooks/editor/index.ts -->
<g id="node14" class="node">
<title>src/components/DiffEditor/hooks/editor/index.ts</title>
<g id="a_node14"><a xlink:href="src/components/DiffEditor/hooks/editor/index.ts" xlink:title="index.ts">
<path fill="#ddfeff" stroke="#000000" d="M754.8316,-356.3011C754.8316,-356.3011 713.233,-356.3011 713.233,-356.3011 710.1327,-356.3011 707.0323,-353.2007 707.0323,-350.1004 707.0323,-350.1004 707.0323,-343.8996 707.0323,-343.8996 707.0323,-340.7993 710.1327,-337.6989 713.233,-337.6989 713.233,-337.6989 754.8316,-337.6989 754.8316,-337.6989 757.9319,-337.6989 761.0323,-340.7993 761.0323,-343.8996 761.0323,-343.8996 761.0323,-350.1004 761.0323,-350.1004 761.0323,-353.2007 757.9319,-356.3011 754.8316,-356.3011"/>
<text text-anchor="start" x="718.528" y="-344.3" font-family="Helvetica,sans-Serif" font-size="9.00" fill="#000000">index.ts</text>
</a>
</g>
</g>
<!-- src/components/DiffEditor/hooks/index.ts&#45;&gt;src/components/DiffEditor/hooks/editor/index.ts -->
<g id="edge16" class="edge">
<title>src/components/DiffEditor/hooks/index.ts&#45;&gt;src/components/DiffEditor/hooks/editor/index.ts</title>
<path fill="none" stroke="#000000" stroke-width="2" stroke-opacity="0.200000" d="M643.2906,-340.8354C660.3723,-341.9958 682.5742,-343.5041 700.7412,-344.7383"/>
<polygon fill="#000000" fill-opacity="0.200000" stroke="#000000" stroke-width="2" stroke-opacity="0.200000" points="700.6056,-346.8339 706.7342,-345.1455 700.8904,-342.6435 700.6056,-346.8339"/>
</g>
<!-- src/components/DiffEditor/hooks/theme/index.ts -->
<g id="node17" class="node">
<title>src/components/DiffEditor/hooks/theme/index.ts</title>
<g id="a_node17"><a xlink:href="src/components/DiffEditor/hooks/theme/index.ts" xlink:title="index.ts">
<path fill="#ddfeff" stroke="#000000" d="M754.8316,-417.3011C754.8316,-417.3011 713.233,-417.3011 713.233,-417.3011 710.1327,-417.3011 707.0323,-414.2007 707.0323,-411.1004 707.0323,-411.1004 707.0323,-404.8996 707.0323,-404.8996 707.0323,-401.7993 710.1327,-398.6989 713.233,-398.6989 713.233,-398.6989 754.8316,-398.6989 754.8316,-398.6989 757.9319,-398.6989 761.0323,-401.7993 761.0323,-404.8996 761.0323,-404.8996 761.0323,-411.1004 761.0323,-411.1004 761.0323,-414.2007 757.9319,-417.3011 754.8316,-417.3011"/>
<text text-anchor="start" x="718.528" y="-405.3" font-family="Helvetica,sans-Serif" font-size="9.00" fill="#000000">index.ts</text>
</a>
</g>
</g>
<!-- src/components/DiffEditor/hooks/index.ts&#45;&gt;src/components/DiffEditor/hooks/theme/index.ts -->
<g id="edge17" class="edge">
<title>src/components/DiffEditor/hooks/index.ts&#45;&gt;src/components/DiffEditor/hooks/theme/index.ts</title>
<path fill="none" stroke="#000000" stroke-width="2" stroke-opacity="0.200000" d="M632.1559,-348.3056C652.9627,-360.4974 689.5211,-381.9187 712.7197,-395.5119"/>
<polygon fill="#000000" fill-opacity="0.200000" stroke="#000000" stroke-width="2" stroke-opacity="0.200000" points="711.788,-397.3999 718.0265,-398.6214 713.9114,-393.7762 711.788,-397.3999"/>
</g>
<!-- src/components/DiffEditor/components/ActionsContainer/ActionsContainer.tsx -->
<g id="node8" class="node">
<title>src/components/DiffEditor/components/ActionsContainer/ActionsContainer.tsx</title>
<g id="a_node8"><a xlink:href="src/components/DiffEditor/components/ActionsContainer/ActionsContainer.tsx" xlink:title="ActionsContainer.tsx">
<path fill="#bbfeff" stroke="#000000" d="M535.0751,-199.3011C535.0751,-199.3011 449.4429,-199.3011 449.4429,-199.3011 446.3426,-199.3011 443.2422,-196.2007 443.2422,-193.1004 443.2422,-193.1004 443.2422,-186.8996 443.2422,-186.8996 443.2422,-183.7993 446.3426,-180.6989 449.4429,-180.6989 449.4429,-180.6989 535.0751,-180.6989 535.0751,-180.6989 538.1754,-180.6989 541.2758,-183.7993 541.2758,-186.8996 541.2758,-186.8996 541.2758,-193.1004 541.2758,-193.1004 541.2758,-196.2007 538.1754,-199.3011 535.0751,-199.3011"/>
<text text-anchor="start" x="451.0012" y="-187.3" font-family="Helvetica,sans-Serif" font-size="9.00" fill="#000000">ActionsContainer.tsx</text>
</a>
</g>
</g>
<!-- src/components/Editor/components/index.ts -->
<g id="node9" class="node">
<title>src/components/Editor/components/index.ts</title>
<g id="a_node9"><a xlink:href="src/components/Editor/components/index.ts" xlink:title="index.ts">
<path fill="#ddfeff" stroke="#000000" d="M1124.6058,-241.3011C1124.6058,-241.3011 1083.0073,-241.3011 1083.0073,-241.3011 1079.9069,-241.3011 1076.8066,-238.2007 1076.8066,-235.1004 1076.8066,-235.1004 1076.8066,-228.8996 1076.8066,-228.8996 1076.8066,-225.7993 1079.9069,-222.6989 1083.0073,-222.6989 1083.0073,-222.6989 1124.6058,-222.6989 1124.6058,-222.6989 1127.7062,-222.6989 1130.8066,-225.7993 1130.8066,-228.8996 1130.8066,-228.8996 1130.8066,-235.1004 1130.8066,-235.1004 1130.8066,-238.2007 1127.7062,-241.3011 1124.6058,-241.3011"/>
<text text-anchor="start" x="1088.3023" y="-229.3" font-family="Helvetica,sans-Serif" font-size="9.00" fill="#000000">index.ts</text>
</a>
</g>
</g>
<!-- src/components/DiffEditor/components/ActionsContainer/ActionsContainer.tsx&#45;&gt;src/components/Editor/components/index.ts -->
<g id="edge5" class="edge">
<title>src/components/DiffEditor/components/ActionsContainer/ActionsContainer.tsx&#45;&gt;src/components/Editor/components/index.ts</title>
<path fill="none" stroke="#000000" stroke-width="2" stroke-opacity="0.200000" d="M541.5604,-196.0624C582.4705,-202.0572 641.7161,-212.9919 691.0323,-231 730.4484,-245.393 734.9653,-260.6846 774.0323,-276 829.1336,-297.6014 864.5949,-264.0055 903.0432,-309 915.3684,-323.4236 900.6751,-378.1113 911.0432,-394 912.2596,-395.8641 978.8888,-432.4404 981.0432,-433 1007.7136,-439.9282 1022.2122,-451.0383 1043.0432,-433 1058.3194,-419.7718 1050.5578,-362.4488 1056.0432,-343 1066.1418,-307.1949 1085.1677,-267.7337 1095.9077,-246.8613"/>
<polygon fill="#000000" fill-opacity="0.200000" stroke="#000000" stroke-width="2" stroke-opacity="0.200000" points="1097.7981,-247.7778 1098.703,-241.4857 1094.0717,-245.8402 1097.7981,-247.7778"/>
</g>
<!-- src/components/Editor/components/Actions/index.ts -->
<g id="node23" class="node">
<title>src/components/Editor/components/Actions/index.ts</title>
<g id="a_node23"><a xlink:href="src/components/Editor/components/Actions/index.ts" xlink:title="index.ts">
<path fill="#ddfeff" stroke="#000000" d="M1252.6225,-199.3011C1252.6225,-199.3011 1211.0239,-199.3011 1211.0239,-199.3011 1207.9236,-199.3011 1204.8232,-196.2007 1204.8232,-193.1004 1204.8232,-193.1004 1204.8232,-186.8996 1204.8232,-186.8996 1204.8232,-183.7993 1207.9236,-180.6989 1211.0239,-180.6989 1211.0239,-180.6989 1252.6225,-180.6989 1252.6225,-180.6989 1255.7228,-180.6989 1258.8232,-183.7993 1258.8232,-186.8996 1258.8232,-186.8996 1258.8232,-193.1004 1258.8232,-193.1004 1258.8232,-196.2007 1255.7228,-199.3011 1252.6225,-199.3011"/>
<text text-anchor="start" x="1216.3189" y="-187.3" font-family="Helvetica,sans-Serif" font-size="9.00" fill="#000000">index.ts</text>
</a>
</g>
</g>
<!-- src/components/Editor/components/index.ts&#45;&gt;src/components/Editor/components/Actions/index.ts -->
<g id="edge41" class="edge">
<title>src/components/Editor/components/index.ts&#45;&gt;src/components/Editor/components/Actions/index.ts</title>
<path fill="none" stroke="#000000" stroke-width="2" stroke-opacity="0.200000" d="M1131.1969,-224.9542C1137.8921,-223.1195 1145.0147,-221.0727 1151.5699,-219 1168.2797,-213.7165 1186.6832,-207.1235 1201.647,-201.5594"/>
<polygon fill="#000000" fill-opacity="0.200000" stroke="#000000" stroke-width="2" stroke-opacity="0.200000" points="1202.5278,-203.4721 1207.4122,-199.4035 1201.0567,-199.5382 1202.5278,-203.4721"/>
</g>
<!-- src/components/Editor/components/Container/index.ts -->
<g id="node32" class="node">
<title>src/components/Editor/components/Container/index.ts</title>
<g id="a_node32"><a xlink:href="src/components/Editor/components/Container/index.ts" xlink:title="index.ts">
<path fill="#ddfeff" stroke="#000000" d="M1252.6225,-138.3011C1252.6225,-138.3011 1211.0239,-138.3011 1211.0239,-138.3011 1207.9236,-138.3011 1204.8232,-135.2007 1204.8232,-132.1004 1204.8232,-132.1004 1204.8232,-125.8996 1204.8232,-125.8996 1204.8232,-122.7993 1207.9236,-119.6989 1211.0239,-119.6989 1211.0239,-119.6989 1252.6225,-119.6989 1252.6225,-119.6989 1255.7228,-119.6989 1258.8232,-122.7993 1258.8232,-125.8996 1258.8232,-125.8996 1258.8232,-132.1004 1258.8232,-132.1004 1258.8232,-135.2007 1255.7228,-138.3011 1252.6225,-138.3011"/>
<text text-anchor="start" x="1216.3189" y="-126.3" font-family="Helvetica,sans-Serif" font-size="9.00" fill="#000000">index.ts</text>
</a>
</g>
</g>
<!-- src/components/Editor/components/index.ts&#45;&gt;src/components/Editor/components/Container/index.ts -->
<g id="edge42" class="edge">
<title>src/components/Editor/components/index.ts&#45;&gt;src/components/Editor/components/Container/index.ts</title>
<path fill="none" stroke="#000000" stroke-width="2" stroke-opacity="0.200000" d="M1131.1339,-229.6114C1138.5965,-227.7222 1146.1183,-224.4866 1151.5699,-219 1167.4507,-203.0171 1151.0904,-188.0543 1164.5699,-170 1174.0189,-157.3441 1188.6315,-147.7624 1201.8249,-141.0571"/>
<polygon fill="#000000" fill-opacity="0.200000" stroke="#000000" stroke-width="2" stroke-opacity="0.200000" points="1202.8958,-142.8715 1207.3731,-138.3589 1201.0589,-139.0944 1202.8958,-142.8715"/>
</g>
<!-- src/components/Editor/components/InternalEditor/index.ts -->
<g id="node34" class="node">
<title>src/components/Editor/components/InternalEditor/index.ts</title>
<g id="a_node34"><a xlink:href="src/components/Editor/components/InternalEditor/index.ts" xlink:title="index.ts">
<path fill="#ddfeff" stroke="#000000" d="M1252.6225,-260.3011C1252.6225,-260.3011 1211.0239,-260.3011 1211.0239,-260.3011 1207.9236,-260.3011 1204.8232,-257.2007 1204.8232,-254.1004 1204.8232,-254.1004 1204.8232,-247.8996 1204.8232,-247.8996 1204.8232,-244.7993 1207.9236,-241.6989 1211.0239,-241.6989 1211.0239,-241.6989 1252.6225,-241.6989 1252.6225,-241.6989 1255.7228,-241.6989 1258.8232,-244.7993 1258.8232,-247.8996 1258.8232,-247.8996 1258.8232,-254.1004 1258.8232,-254.1004 1258.8232,-257.2007 1255.7228,-260.3011 1252.6225,-260.3011"/>
<text text-anchor="start" x="1216.3189" y="-248.3" font-family="Helvetica,sans-Serif" font-size="9.00" fill="#000000">index.ts</text>
</a>
</g>
</g>
<!-- src/components/Editor/components/index.ts&#45;&gt;src/components/Editor/components/InternalEditor/index.ts -->
<g id="edge43" class="edge">
<title>src/components/Editor/components/index.ts&#45;&gt;src/components/Editor/components/InternalEditor/index.ts</title>
<path fill="none" stroke="#000000" stroke-width="2" stroke-opacity="0.200000" d="M1130.9556,-236.0294C1150.7286,-238.9641 1177.6203,-242.9553 1198.6647,-246.0787"/>
<polygon fill="#000000" fill-opacity="0.200000" stroke="#000000" stroke-width="2" stroke-opacity="0.200000" points="1198.47,-248.1727 1204.7133,-246.9764 1199.0866,-244.0182 1198.47,-248.1727"/>
</g>
<!-- src/components/DiffEditor/components/ActionsContainer/index.ts&#45;&gt;src/components/DiffEditor/components/ActionsContainer/ActionsContainer.tsx -->
<g id="edge6" class="edge">
<title>src/components/DiffEditor/components/ActionsContainer/index.ts&#45;&gt;src/components/DiffEditor/components/ActionsContainer/ActionsContainer.tsx</title>
<path fill="none" stroke="#000000" stroke-width="2" stroke-opacity="0.200000" d="M430.2665,-190C432.4454,-190 434.6897,-190 436.9735,-190"/>
<polygon fill="#000000" fill-opacity="0.200000" stroke="#000000" stroke-width="2" stroke-opacity="0.200000" points="437.0936,-192.1001 443.0936,-190 437.0935,-187.9001 437.0936,-192.1001"/>
</g>
<!-- src/components/Editor/components/InternalEditor/StyledInternalEditor.ts -->
<g id="node12" class="node">
<title>src/components/Editor/components/InternalEditor/StyledInternalEditor.ts</title>
<g id="a_node12"><a xlink:href="src/components/Editor/components/InternalEditor/StyledInternalEditor.ts" xlink:title="StyledInternalEditor.ts">
<path fill="#ddfeff" stroke="#000000" d="M1531.9215,-260.3011C1531.9215,-260.3011 1440.2848,-260.3011 1440.2848,-260.3011 1437.1844,-260.3011 1434.084,-257.2007 1434.084,-254.1004 1434.084,-254.1004 1434.084,-247.8996 1434.084,-247.8996 1434.084,-244.7993 1437.1844,-241.6989 1440.2848,-241.6989 1440.2848,-241.6989 1531.9215,-241.6989 1531.9215,-241.6989 1535.0219,-241.6989 1538.1223,-244.7993 1538.1223,-247.8996 1538.1223,-247.8996 1538.1223,-254.1004 1538.1223,-254.1004 1538.1223,-257.2007 1535.0219,-260.3011 1531.9215,-260.3011"/>
<text text-anchor="start" x="1442.0936" y="-248.3" font-family="Helvetica,sans-Serif" font-size="9.00" fill="#000000">StyledInternalEditor.ts</text>
</a>
</g>
</g>
<!-- src/components/DiffEditor/components/InternalDiffEditor/StyledInternalDiffEditor.ts&#45;&gt;src/components/Editor/components/InternalEditor/StyledInternalEditor.ts -->
<g id="edge9" class="edge">
<title>src/components/DiffEditor/components/InternalDiffEditor/StyledInternalDiffEditor.ts&#45;&gt;src/components/Editor/components/InternalEditor/StyledInternalEditor.ts</title>
<path fill="none" stroke="#000000" stroke-width="2" stroke-opacity="0.200000" d="M647.5961,-260.3547C679.3522,-269.7399 729.9576,-284.424 774.0323,-296 831.0682,-310.9802 864.4785,-282.3877 903.0432,-327 915.8847,-341.8552 899.1142,-399.4026 911.0432,-415 964.091,-484.3611 1016.4851,-453 1103.8066,-453 1103.8066,-453 1103.8066,-453 1231.8232,-453 1266.4302,-453 1277.1598,-450.3963 1307.0765,-433 1346.8618,-409.8652 1439.9142,-304.4917 1473.6268,-265.5341"/>
<polygon fill="#000000" fill-opacity="0.200000" stroke="#000000" stroke-width="2" stroke-opacity="0.200000" points="1475.4673,-266.6158 1477.7987,-260.7018 1472.2882,-263.8711 1475.4673,-266.6158"/>
</g>
<!-- src/components/DiffEditor/components/InternalDiffEditor/index.ts&#45;&gt;src/components/DiffEditor/components/InternalDiffEditor/InternalDiffEditor.tsx -->
<g id="edge10" class="edge">
<title>src/components/DiffEditor/components/InternalDiffEditor/index.ts&#45;&gt;src/components/DiffEditor/components/InternalDiffEditor/InternalDiffEditor.tsx</title>
<path fill="none" stroke="#000000" stroke-width="2" stroke-opacity="0.200000" d="M430.2665,-251C432.6889,-251 435.1921,-251 437.7407,-251"/>
<polygon fill="#000000" fill-opacity="0.200000" stroke="#000000" stroke-width="2" stroke-opacity="0.200000" points="437.7529,-253.1001 443.7528,-251 437.7528,-248.9001 437.7529,-253.1001"/>
</g>
<!-- src/components/DiffEditor/hooks/editor/useDiffEditor.tsx -->
<g id="node15" class="node">
<title>src/components/DiffEditor/hooks/editor/useDiffEditor.tsx</title>
<g id="a_node15"><a xlink:href="src/components/DiffEditor/hooks/editor/useDiffEditor.tsx" xlink:title="useDiffEditor.tsx">
<path fill="#bbfeff" stroke="#000000" d="M860.8459,-356.3011C860.8459,-356.3011 792.2296,-356.3011 792.2296,-356.3011 789.1292,-356.3011 786.0289,-353.2007 786.0289,-350.1004 786.0289,-350.1004 786.0289,-343.8996 786.0289,-343.8996 786.0289,-340.7993 789.1292,-337.6989 792.2296,-337.6989 792.2296,-337.6989 860.8459,-337.6989 860.8459,-337.6989 863.9463,-337.6989 867.0466,-340.7993 867.0466,-343.8996 867.0466,-343.8996 867.0466,-350.1004 867.0466,-350.1004 867.0466,-353.2007 863.9463,-356.3011 860.8459,-356.3011"/>
<text text-anchor="start" x="793.7841" y="-344.3" font-family="Helvetica,sans-Serif" font-size="9.00" fill="#000000">useDiffEditor.tsx</text>
</a>
</g>
</g>
<!-- src/components/DiffEditor/hooks/editor/index.ts&#45;&gt;src/components/DiffEditor/hooks/editor/useDiffEditor.tsx -->
<g id="edge13" class="edge">
<title>src/components/DiffEditor/hooks/editor/index.ts&#45;&gt;src/components/DiffEditor/hooks/editor/useDiffEditor.tsx</title>
<path fill="none" stroke="#000000" stroke-width="2" stroke-opacity="0.200000" d="M761.2867,-347C767.0425,-347 773.2734,-347 779.5228,-347"/>
<polygon fill="#000000" fill-opacity="0.200000" stroke="#000000" stroke-width="2" stroke-opacity="0.200000" points="779.7616,-349.1001 785.7616,-347 779.7615,-344.9001 779.7616,-349.1001"/>
</g>
<!-- src/components/DiffEditor/hooks/editor/useDiffEditor.tsx&#45;&gt;monaco&#45;editor&#45;core -->
<g id="edge15" class="edge">
<title>src/components/DiffEditor/hooks/editor/useDiffEditor.tsx&#45;&gt;monaco&#45;editor&#45;core</title>
<path fill="none" stroke="#000000" stroke-width="2" stroke-opacity="0.200000" d="M827.0945,-337.3571C830.8904,-281.314 857.8246,0 1016.0432,0 1016.0432,0 1016.0432,0 1607.3686,0 1660.2636,0 1720.2271,-10.0796 1760.5395,-18.3539"/>
<polygon fill="#000000" fill-opacity="0.200000" stroke="#000000" stroke-width="2" stroke-opacity="0.200000" points="1760.5346,-20.4978 1766.8366,-19.6646 1761.3905,-16.386 1760.5346,-20.4978"/>
</g>
<!-- src/components/Editor/hooks/editor/buildEditorOptions.ts -->
<g id="node16" class="node">
<title>src/components/Editor/hooks/editor/buildEditorOptions.ts</title>
<g id="a_node16"><a xlink:href="src/components/Editor/hooks/editor/buildEditorOptions.ts" xlink:title="buildEditorOptions.ts">
<path fill="#ddfeff" stroke="#000000" d="M1850.462,-356.3011C1850.462,-356.3011 1763.8297,-356.3011 1763.8297,-356.3011 1760.7293,-356.3011 1757.6289,-353.2007 1757.6289,-350.1004 1757.6289,-350.1004 1757.6289,-343.8996 1757.6289,-343.8996 1757.6289,-340.7993 1760.7293,-337.6989 1763.8297,-337.6989 1763.8297,-337.6989 1850.462,-337.6989 1850.462,-337.6989 1853.5624,-337.6989 1856.6628,-340.7993 1856.6628,-343.8996 1856.6628,-343.8996 1856.6628,-350.1004 1856.6628,-350.1004 1856.6628,-353.2007 1853.5624,-356.3011 1850.462,-356.3011"/>
<text text-anchor="start" x="1765.6374" y="-344.3" font-family="Helvetica,sans-Serif" font-size="9.00" fill="#000000">buildEditorOptions.ts</text>
</a>
</g>
</g>
<!-- src/components/DiffEditor/hooks/editor/useDiffEditor.tsx&#45;&gt;src/components/Editor/hooks/editor/buildEditorOptions.ts -->
<g id="edge14" class="edge">
<title>src/components/DiffEditor/hooks/editor/useDiffEditor.tsx&#45;&gt;src/components/Editor/hooks/editor/buildEditorOptions.ts</title>
<path fill="none" stroke="#000000" stroke-width="2" stroke-opacity="0.200000" d="M858.3622,-356.4483C874.2584,-362.8129 892.3379,-372.8689 903.0432,-388 916.5484,-407.0886 895.8108,-422.2591 911.0432,-440 942.4322,-476.5583 967.8584,-467 1016.0432,-467 1016.0432,-467 1016.0432,-467 1607.3686,-467 1669.0211,-467 1699.4976,-488.9933 1744.6374,-447 1764.2969,-428.7109 1743.6484,-410.9193 1757.6374,-388 1764.5689,-376.6435 1775.7816,-366.9725 1785.7847,-359.8801"/>
<polygon fill="#000000" fill-opacity="0.200000" stroke="#000000" stroke-width="2" stroke-opacity="0.200000" points="1787.1003,-361.5249 1790.8763,-356.4111 1784.7354,-358.054 1787.1003,-361.5249"/>
</g>
<!-- src/components/Editor/hooks/editor/defaults.ts -->
<g id="node35" class="node">
<title>src/components/Editor/hooks/editor/defaults.ts</title>
<g id="a_node35"><a xlink:href="src/components/Editor/hooks/editor/defaults.ts" xlink:title="defaults.ts">
<path fill="#ddfeff" stroke="#000000" d="M1920.4744,-356.3011C1920.4744,-356.3011 1875.8481,-356.3011 1875.8481,-356.3011 1872.7477,-356.3011 1869.6473,-353.2007 1869.6473,-350.1004 1869.6473,-350.1004 1869.6473,-343.8996 1869.6473,-343.8996 1869.6473,-340.7993 1872.7477,-337.6989 1875.8481,-337.6989 1875.8481,-337.6989 1920.4744,-337.6989 1920.4744,-337.6989 1923.5748,-337.6989 1926.6752,-340.7993 1926.6752,-343.8996 1926.6752,-343.8996 1926.6752,-350.1004 1926.6752,-350.1004 1926.6752,-353.2007 1923.5748,-356.3011 1920.4744,-356.3011"/>
<text text-anchor="start" x="1877.6543" y="-344.3" font-family="Helvetica,sans-Serif" font-size="9.00" fill="#000000">defaults.ts</text>
</a>
</g>
</g>
<!-- src/components/Editor/hooks/editor/buildEditorOptions.ts&#45;&gt;src/components/Editor/hooks/editor/defaults.ts -->
<g id="edge44" class="edge">
<title>src/components/Editor/hooks/editor/buildEditorOptions.ts&#45;&gt;src/components/Editor/hooks/editor/defaults.ts</title>
<path fill="none" stroke="#000000" stroke-width="2" stroke-opacity="0.200000" d="M1856.9143,-347C1859.0724,-347 1861.2175,-347 1863.3301,-347"/>
<polygon fill="#000000" fill-opacity="0.200000" stroke="#000000" stroke-width="2" stroke-opacity="0.200000" points="1863.5508,-349.1001 1869.5507,-347 1863.5507,-344.9001 1863.5508,-349.1001"/>
</g>
<!-- src/components/DiffEditor/hooks/theme/useDiffEditorTheme.ts -->
<g id="node18" class="node">
<title>src/components/DiffEditor/hooks/theme/useDiffEditorTheme.ts</title>
<g id="a_node18"><a xlink:href="src/components/DiffEditor/hooks/theme/useDiffEditorTheme.ts" xlink:title="useDiffEditorTheme.ts">
<path fill="#ddfeff" stroke="#000000" d="M872.8479,-417.3011C872.8479,-417.3011 780.2276,-417.3011 780.2276,-417.3011 777.1272,-417.3011 774.0268,-414.2007 774.0268,-411.1004 774.0268,-411.1004 774.0268,-404.8996 774.0268,-404.8996 774.0268,-401.7993 777.1272,-398.6989 780.2276,-398.6989 780.2276,-398.6989 872.8479,-398.6989 872.8479,-398.6989 875.9483,-398.6989 879.0487,-401.7993 879.0487,-404.8996 879.0487,-404.8996 879.0487,-411.1004 879.0487,-411.1004 879.0487,-414.2007 875.9483,-417.3011 872.8479,-417.3011"/>
<text text-anchor="start" x="782.0323" y="-405.3" font-family="Helvetica,sans-Serif" font-size="9.00" fill="#000000">useDiffEditorTheme.ts</text>
</a>
</g>
</g>
<!-- src/components/DiffEditor/hooks/theme/index.ts&#45;&gt;src/components/DiffEditor/hooks/theme/useDiffEditorTheme.ts -->
<g id="edge18" class="edge">
<title>src/components/DiffEditor/hooks/theme/index.ts&#45;&gt;src/components/DiffEditor/hooks/theme/useDiffEditorTheme.ts</title>
<path fill="none" stroke="#000000" stroke-width="2" stroke-opacity="0.200000" d="M761.2867,-408C763.4384,-408 765.6566,-408 767.9173,-408"/>
<polygon fill="#000000" fill-opacity="0.200000" stroke="#000000" stroke-width="2" stroke-opacity="0.200000" points="767.9846,-410.1001 773.9845,-408 767.9845,-405.9001 767.9846,-410.1001"/>
</g>
<!-- src/components/Editor/index.ts -->
<g id="node19" class="node">
<title>src/components/Editor/index.ts</title>
<g id="a_node19"><a xlink:href="src/components/Editor/index.ts" xlink:title="index.ts">
<path fill="#ddfeff" stroke="#000000" d="M966.8425,-346.3011C966.8425,-346.3011 925.2439,-346.3011 925.2439,-346.3011 922.1436,-346.3011 919.0432,-343.2007 919.0432,-340.1004 919.0432,-340.1004 919.0432,-333.8996 919.0432,-333.8996 919.0432,-330.7993 922.1436,-327.6989 925.2439,-327.6989 925.2439,-327.6989 966.8425,-327.6989 966.8425,-327.6989 969.9428,-327.6989 973.0432,-330.7993 973.0432,-333.8996 973.0432,-333.8996 973.0432,-340.1004 973.0432,-340.1004 973.0432,-343.2007 969.9428,-346.3011 966.8425,-346.3011"/>
<text text-anchor="start" x="930.5389" y="-334.3" font-family="Helvetica,sans-Serif" font-size="9.00" fill="#000000">index.ts</text>
</a>
</g>
</g>
<!-- src/components/DiffEditor/hooks/theme/useDiffEditorTheme.ts&#45;&gt;src/components/Editor/index.ts -->
<g id="edge19" class="edge">
<title>src/components/DiffEditor/hooks/theme/useDiffEditorTheme.ts&#45;&gt;src/components/Editor/index.ts</title>
<path fill="none" stroke="#000000" stroke-width="2" stroke-opacity="0.200000" d="M874.8677,-398.6309C884.6419,-395.515 894.5236,-391.404 903.0432,-386 917.0061,-377.1432 929.0363,-362.4372 936.7924,-351.4424"/>
<polygon fill="#000000" fill-opacity="0.200000" stroke="#000000" stroke-width="2" stroke-opacity="0.200000" points="938.5966,-352.5241 940.2463,-346.3849 935.1283,-350.1554 938.5966,-352.5241"/>
</g>
<!-- src/components/Editor/hooks/theme/colorConvertions.ts -->
<g id="node20" class="node">
<title>src/components/Editor/hooks/theme/colorConvertions.ts</title>
<g id="a_node20"><a xlink:href="src/components/Editor/hooks/theme/colorConvertions.ts" xlink:title="colorConvertions.ts">
<path fill="#ddfeff" stroke="#000000" d="M1847.4536,-417.3011C1847.4536,-417.3011 1766.8381,-417.3011 1766.8381,-417.3011 1763.7377,-417.3011 1760.6373,-414.2007 1760.6373,-411.1004 1760.6373,-411.1004 1760.6373,-404.8996 1760.6373,-404.8996 1760.6373,-401.7993 1763.7377,-398.6989 1766.8381,-398.6989 1766.8381,-398.6989 1847.4536,-398.6989 1847.4536,-398.6989 1850.554,-398.6989 1853.6544,-401.7993 1853.6544,-404.8996 1853.6544,-404.8996 1853.6544,-411.1004 1853.6544,-411.1004 1853.6544,-414.2007 1850.554,-417.3011 1847.4536,-417.3011"/>
<text text-anchor="start" x="1768.6416" y="-405.3" font-family="Helvetica,sans-Serif" font-size="9.00" fill="#000000">colorConvertions.ts</text>
</a>
</g>
</g>
<!-- src/components/DiffEditor/hooks/theme/useDiffEditorTheme.ts&#45;&gt;src/components/Editor/hooks/theme/colorConvertions.ts -->
<g id="edge20" class="edge">
<title>src/components/DiffEditor/hooks/theme/useDiffEditorTheme.ts&#45;&gt;src/components/Editor/hooks/theme/colorConvertions.ts</title>
<path fill="none" stroke="#000000" stroke-width="2" stroke-opacity="0.200000" d="M839.3289,-417.3454C855.3259,-428.6015 883.9185,-447.3242 911.0432,-458 955.4972,-475.4962 968.2701,-481 1016.0432,-481 1016.0432,-481 1016.0432,-481 1607.3686,-481 1668.8992,-481 1688.6056,-488.4257 1744.6374,-463 1765.0896,-453.7194 1783.7417,-435.4439 1795.2448,-422.5109"/>
<polygon fill="#000000" fill-opacity="0.200000" stroke="#000000" stroke-width="2" stroke-opacity="0.200000" points="1797.0921,-423.5858 1799.4353,-417.6765 1793.9185,-420.8348 1797.0921,-423.5858"/>
</g>
<!-- src/components/Editor/Editor.tsx -->
<g id="node22" class="node">
<title>src/components/Editor/Editor.tsx</title>
<g id="a_node22"><a xlink:href="src/components/Editor/Editor.tsx" xlink:title="Editor.tsx">
<path fill="#bbfeff" stroke="#000000" d="M1036.8425,-241.3011C1036.8425,-241.3011 995.2439,-241.3011 995.2439,-241.3011 992.1436,-241.3011 989.0432,-238.2007 989.0432,-235.1004 989.0432,-235.1004 989.0432,-228.8996 989.0432,-228.8996 989.0432,-225.7993 992.1436,-222.6989 995.2439,-222.6989 995.2439,-222.6989 1036.8425,-222.6989 1036.8425,-222.6989 1039.9428,-222.6989 1043.0432,-225.7993 1043.0432,-228.8996 1043.0432,-228.8996 1043.0432,-235.1004 1043.0432,-235.1004 1043.0432,-238.2007 1039.9428,-241.3011 1036.8425,-241.3011"/>
<text text-anchor="start" x="997.2908" y="-229.3" font-family="Helvetica,sans-Serif" font-size="9.00" fill="#000000">Editor.tsx</text>
</a>
</g>
</g>
<!-- src/components/Editor/index.ts&#45;&gt;src/components/Editor/Editor.tsx -->
<g id="edge53" class="edge">
<title>src/components/Editor/index.ts&#45;&gt;src/components/Editor/Editor.tsx</title>
<path fill="none" stroke="#000000" stroke-width="2" stroke-opacity="0.200000" d="M952.2552,-327.682C964.4703,-309.3594 991.6954,-268.5218 1006.3158,-246.5911"/>
<polygon fill="#000000" fill-opacity="0.200000" stroke="#000000" stroke-width="2" stroke-opacity="0.200000" points="1008.1635,-247.6053 1009.7445,-241.4481 1004.6689,-245.2755 1008.1635,-247.6053"/>
</g>
<!-- src/components/Editor/hooks/index.ts -->
<g id="node24" class="node">
<title>src/components/Editor/hooks/index.ts</title>
<g id="a_node24"><a xlink:href="src/components/Editor/hooks/index.ts" xlink:title="index.ts">
<path fill="#ddfeff" stroke="#000000" d="M1506.9024,-348.3011C1506.9024,-348.3011 1465.3039,-348.3011 1465.3039,-348.3011 1462.2035,-348.3011 1459.1032,-345.2007 1459.1032,-342.1004 1459.1032,-342.1004 1459.1032,-335.8996 1459.1032,-335.8996 1459.1032,-332.7993 1462.2035,-329.6989 1465.3039,-329.6989 1465.3039,-329.6989 1506.9024,-329.6989 1506.9024,-329.6989 1510.0028,-329.6989 1513.1032,-332.7993 1513.1032,-335.8996 1513.1032,-335.8996 1513.1032,-342.1004 1513.1032,-342.1004 1513.1032,-345.2007 1510.0028,-348.3011 1506.9024,-348.3011"/>
<text text-anchor="start" x="1470.5989" y="-336.3" font-family="Helvetica,sans-Serif" font-size="9.00" fill="#000000">index.ts</text>
</a>
</g>
</g>
<!-- src/components/Editor/index.ts&#45;&gt;src/components/Editor/hooks/index.ts -->
<g id="edge54" class="edge">
<title>src/components/Editor/index.ts&#45;&gt;src/components/Editor/hooks/index.ts</title>
<path fill="none" stroke="#000000" stroke-width="2" stroke-opacity="0.200000" d="M973.1219,-337C1004.5475,-337 1057.9292,-337 1103.8066,-337 1103.8066,-337 1103.8066,-337 1231.8232,-337 1311.0424,-337 1404.1399,-337.9827 1452.7368,-338.5704"/>
<polygon fill="#000000" fill-opacity="0.200000" stroke="#000000" stroke-width="2" stroke-opacity="0.200000" points="1452.9829,-340.6735 1459.0081,-338.647 1453.0343,-336.4738 1452.9829,-340.6735"/>
</g>
<!-- src/components/Editor/api/index.ts -->
<g id="node25" class="node">
<title>src/components/Editor/api/index.ts</title>
<g id="a_node25"><a xlink:href="src/components/Editor/api/index.ts" xlink:title="index.ts">
<path fill="#ddfeff" stroke="#000000" d="M1036.8425,-379.3011C1036.8425,-379.3011 995.2439,-379.3011 995.2439,-379.3011 992.1436,-379.3011 989.0432,-376.2007 989.0432,-373.1004 989.0432,-373.1004 989.0432,-366.8996 989.0432,-366.8996 989.0432,-363.7993 992.1436,-360.6989 995.2439,-360.6989 995.2439,-360.6989 1036.8425,-360.6989 1036.8425,-360.6989 1039.9428,-360.6989 1043.0432,-363.7993 1043.0432,-366.8996 1043.0432,-366.8996 1043.0432,-373.1004 1043.0432,-373.1004 1043.0432,-376.2007 1039.9428,-379.3011 1036.8425,-379.3011"/>
<text text-anchor="start" x="1000.5389" y="-367.3" font-family="Helvetica,sans-Serif" font-size="9.00" fill="#000000">index.ts</text>
</a>
</g>
</g>
<!-- src/components/Editor/index.ts&#45;&gt;src/components/Editor/api/index.ts -->
<g id="edge52" class="edge">
<title>src/components/Editor/index.ts&#45;&gt;src/components/Editor/api/index.ts</title>
<path fill="none" stroke="#000000" stroke-width="2" stroke-opacity="0.200000" d="M961.0891,-346.3163C967.1675,-349.8887 974.3232,-353.8577 981.0432,-357 981.9717,-357.4342 982.919,-357.8643 983.8793,-358.2892"/>
<polygon fill="#000000" fill-opacity="0.200000" stroke="#000000" stroke-width="2" stroke-opacity="0.200000" points="983.1358,-360.2548 989.4799,-360.658 984.7719,-356.3866 983.1358,-360.2548"/>
</g>
<!-- src/components/DiffEditor/index.ts -->
<g id="node21" class="node">
<title>src/components/DiffEditor/index.ts</title>
<g id="a_node21"><a xlink:href="src/components/DiffEditor/index.ts" xlink:title="index.ts">
<path fill="#ddfeff" stroke="#000000" d="M203.7993,-271.3011C203.7993,-271.3011 162.2007,-271.3011 162.2007,-271.3011 159.1004,-271.3011 156,-268.2007 156,-265.1004 156,-265.1004 156,-258.8996 156,-258.8996 156,-255.7993 159.1004,-252.6989 162.2007,-252.6989 162.2007,-252.6989 203.7993,-252.6989 203.7993,-252.6989 206.8996,-252.6989 210,-255.7993 210,-258.8996 210,-258.8996 210,-265.1004 210,-265.1004 210,-268.2007 206.8996,-271.3011 203.7993,-271.3011"/>
<text text-anchor="start" x="167.4957" y="-259.3" font-family="Helvetica,sans-Serif" font-size="9.00" fill="#000000">index.ts</text>
</a>
</g>
</g>
<!-- src/components/DiffEditor/index.ts&#45;&gt;src/components/DiffEditor/DiffEditor.tsx -->
<g id="edge21" class="edge">
<title>src/components/DiffEditor/index.ts&#45;&gt;src/components/DiffEditor/DiffEditor.tsx</title>
<path fill="none" stroke="#000000" stroke-width="2" stroke-opacity="0.200000" d="M210.3689,-262C212.4097,-262 214.4918,-262 216.5877,-262"/>
<polygon fill="#000000" fill-opacity="0.200000" stroke="#000000" stroke-width="2" stroke-opacity="0.200000" points="216.8895,-264.1001 222.8894,-262 216.8894,-259.9001 216.8895,-264.1001"/>
</g>
<!-- src/components/DiffEditor/index.ts&#45;&gt;src/components/DiffEditor/hooks/index.ts -->
<g id="edge22" class="edge">
<title>src/components/DiffEditor/index.ts&#45;&gt;src/components/DiffEditor/hooks/index.ts</title>
<path fill="none" stroke="#000000" stroke-width="2" stroke-opacity="0.200000" d="M193.0113,-271.3191C215.9032,-291.6133 274.6138,-338 333.0012,-338 333.0012,-338 333.0012,-338 403.0012,-338 466.5716,-338 540.7994,-338.4498 582.7976,-338.746"/>
<polygon fill="#000000" fill-opacity="0.200000" stroke="#000000" stroke-width="2" stroke-opacity="0.200000" points="582.99,-340.8474 589.0049,-338.7904 583.02,-336.6475 582.99,-340.8474"/>
</g>
<!-- src/components/Editor/Editor.tsx&#45;&gt;src/components/Editor/components/Container/Container.tsx -->
<g id="edge25" class="edge">
<title>src/components/Editor/Editor.tsx&#45;&gt;src/components/Editor/components/Container/Container.tsx</title>
<path fill="none" stroke="#000000" stroke-width="2" stroke-opacity="0.200000" d="M1022.7209,-222.6548C1030.1528,-212.6407 1042.8614,-196.62 1056.0432,-185 1099.2812,-146.885 1109.332,-130.4637 1164.5699,-114 1219.2103,-97.7144 1285.7903,-108.4381 1326.6107,-118.2571"/>
<polygon fill="#000000" fill-opacity="0.200000" stroke="#000000" stroke-width="2" stroke-opacity="0.200000" points="1326.1136,-120.2974 1332.442,-119.696 1327.1198,-116.2197 1326.1136,-120.2974"/>
</g>
<!-- src/components/Editor/Editor.tsx&#45;&gt;src/components/Editor/components/index.ts -->
<g id="edge23" class="edge">
<title>src/components/Editor/Editor.tsx&#45;&gt;src/components/Editor/components/index.ts</title>
<path fill="none" stroke="#000000" stroke-width="2" stroke-opacity="0.200000" d="M1043.331,-232C1051.9166,-232 1061.4961,-232 1070.4536,-232"/>
<polygon fill="#000000" fill-opacity="0.200000" stroke="#000000" stroke-width="2" stroke-opacity="0.200000" points="1070.5357,-234.1001 1076.5356,-232 1070.5356,-229.9001 1070.5357,-234.1001"/>
</g>
<!-- src/components/Editor/Editor.tsx&#45;&gt;src/components/Editor/components/Actions/index.ts -->
<g id="edge24" class="edge">
<title>src/components/Editor/Editor.tsx&#45;&gt;src/components/Editor/components/Actions/index.ts</title>
<path fill="none" stroke="#000000" stroke-width="2" stroke-opacity="0.200000" d="M1026.7551,-222.5326C1034.3689,-216.3949 1045.1407,-208.8497 1056.0432,-205 1103.5474,-188.226 1162.574,-186.8147 1198.7053,-187.9494"/>
<polygon fill="#000000" fill-opacity="0.200000" stroke="#000000" stroke-width="2" stroke-opacity="0.200000" points="1198.6669,-190.0493 1204.7395,-188.1694 1198.82,-185.852 1198.6669,-190.0493"/>
</g>
<!-- src/components/Editor/Editor.tsx&#45;&gt;src/components/Editor/hooks/index.ts -->
<g id="edge26" class="edge">
<title>src/components/Editor/Editor.tsx&#45;&gt;src/components/Editor/hooks/index.ts</title>
<path fill="none" stroke="#000000" stroke-width="2" stroke-opacity="0.200000" d="M1017.3124,-241.4545C1020.3189,-259.6872 1029.7142,-299.4537 1056.0432,-317 1089.1354,-339.0535 1373.9052,-330.471 1413.5921,-333 1426.3667,-333.8141 1440.3897,-334.9238 1452.6711,-335.9676"/>
<polygon fill="#000000" fill-opacity="0.200000" stroke="#000000" stroke-width="2" stroke-opacity="0.200000" points="1452.7609,-338.083 1458.9189,-336.5055 1453.1212,-333.8984 1452.7609,-338.083"/>
</g>
<!-- src/components/Editor/components/Actions/ActionsContainer.tsx -->
<g id="node29" class="node">
<title>src/components/Editor/components/Actions/ActionsContainer.tsx</title>
<g id="a_node29"><a xlink:href="src/components/Editor/components/Actions/ActionsContainer.tsx" xlink:title="ActionsContainer.tsx">
<path fill="#bbfeff" stroke="#000000" d="M1407.1504,-199.3011C1407.1504,-199.3011 1321.5182,-199.3011 1321.5182,-199.3011 1318.4179,-199.3011 1315.3175,-196.2007 1315.3175,-193.1004 1315.3175,-193.1004 1315.3175,-186.8996 1315.3175,-186.8996 1315.3175,-183.7993 1318.4179,-180.6989 1321.5182,-180.6989 1321.5182,-180.6989 1407.1504,-180.6989 1407.1504,-180.6989 1410.2507,-180.6989 1413.3511,-183.7993 1413.3511,-186.8996 1413.3511,-186.8996 1413.3511,-193.1004 1413.3511,-193.1004 1413.3511,-196.2007 1410.2507,-199.3011 1407.1504,-199.3011"/>
<text text-anchor="start" x="1323.0765" y="-187.3" font-family="Helvetica,sans-Serif" font-size="9.00" fill="#000000">ActionsContainer.tsx</text>
</a>
</g>
</g>
<!-- src/components/Editor/components/Actions/index.ts&#45;&gt;src/components/Editor/components/Actions/ActionsContainer.tsx -->
<g id="edge34" class="edge">
<title>src/components/Editor/components/Actions/index.ts&#45;&gt;src/components/Editor/components/Actions/ActionsContainer.tsx</title>
<path fill="none" stroke="#000000" stroke-width="2" stroke-opacity="0.200000" d="M1258.9586,-190C1273.39,-190 1291.6794,-190 1308.9545,-190"/>
<polygon fill="#000000" fill-opacity="0.200000" stroke="#000000" stroke-width="2" stroke-opacity="0.200000" points="1309.2642,-192.1001 1315.2642,-190 1309.2641,-187.9001 1309.2642,-192.1001"/>
</g>
<!-- src/components/Editor/hooks/editor/index.ts -->
<g id="node36" class="node">
<title>src/components/Editor/hooks/editor/index.ts</title>
<g id="a_node36"><a xlink:href="src/components/Editor/hooks/editor/index.ts" xlink:title="index.ts">
<path fill="#ddfeff" stroke="#000000" d="M1628.1678,-356.3011C1628.1678,-356.3011 1586.5693,-356.3011 1586.5693,-356.3011 1583.4689,-356.3011 1580.3686,-353.2007 1580.3686,-350.1004 1580.3686,-350.1004 1580.3686,-343.8996 1580.3686,-343.8996 1580.3686,-340.7993 1583.4689,-337.6989 1586.5693,-337.6989 1586.5693,-337.6989 1628.1678,-337.6989 1628.1678,-337.6989 1631.2682,-337.6989 1634.3686,-340.7993 1634.3686,-343.8996 1634.3686,-343.8996 1634.3686,-350.1004 1634.3686,-350.1004 1634.3686,-353.2007 1631.2682,-356.3011 1628.1678,-356.3011"/>
<text text-anchor="start" x="1591.8643" y="-344.3" font-family="Helvetica,sans-Serif" font-size="9.00" fill="#000000">index.ts</text>
</a>
</g>
</g>
<!-- src/components/Editor/hooks/index.ts&#45;&gt;src/components/Editor/hooks/editor/index.ts -->
<g id="edge48" class="edge">
<title>src/components/Editor/hooks/index.ts&#45;&gt;src/components/Editor/hooks/editor/index.ts</title>
<path fill="none" stroke="#000000" stroke-width="2" stroke-opacity="0.200000" d="M1513.3175,-340.7954C1531.2606,-341.9791 1554.8819,-343.5374 1573.9629,-344.7962"/>
<polygon fill="#000000" fill-opacity="0.200000" stroke="#000000" stroke-width="2" stroke-opacity="0.200000" points="1574.1198,-346.911 1580.2451,-345.2106 1574.3963,-342.7201 1574.1198,-346.911"/>
</g>
<!-- src/components/Editor/hooks/theme/index.ts -->
<g id="node38" class="node">
<title>src/components/Editor/hooks/theme/index.ts</title>
<g id="a_node38"><a xlink:href="src/components/Editor/hooks/theme/index.ts" xlink:title="index.ts">
<path fill="#ddfeff" stroke="#000000" d="M1628.1678,-417.3011C1628.1678,-417.3011 1586.5693,-417.3011 1586.5693,-417.3011 1583.4689,-417.3011 1580.3686,-414.2007 1580.3686,-411.1004 1580.3686,-411.1004 1580.3686,-404.8996 1580.3686,-404.8996 1580.3686,-401.7993 1583.4689,-398.6989 1586.5693,-398.6989 1586.5693,-398.6989 1628.1678,-398.6989 1628.1678,-398.6989 1631.2682,-398.6989 1634.3686,-401.7993 1634.3686,-404.8996 1634.3686,-404.8996 1634.3686,-411.1004 1634.3686,-411.1004 1634.3686,-414.2007 1631.2682,-417.3011 1628.1678,-417.3011"/>
<text text-anchor="start" x="1591.8643" y="-405.3" font-family="Helvetica,sans-Serif" font-size="9.00" fill="#000000">index.ts</text>
</a>
</g>
</g>
<!-- src/components/Editor/hooks/index.ts&#45;&gt;src/components/Editor/hooks/theme/index.ts -->
<g id="edge49" class="edge">
<title>src/components/Editor/hooks/index.ts&#45;&gt;src/components/Editor/hooks/theme/index.ts</title>
<path fill="none" stroke="#000000" stroke-width="2" stroke-opacity="0.200000" d="M1502.4575,-348.3056C1523.8841,-360.4974 1561.5315,-381.9187 1585.4211,-395.5119"/>
<polygon fill="#000000" fill-opacity="0.200000" stroke="#000000" stroke-width="2" stroke-opacity="0.200000" points="1584.6325,-397.4793 1590.886,-398.6214 1586.7096,-393.8289 1584.6325,-397.4793"/>
</g>
<!-- src/components/Editor/api/registerCompletionProvider.ts -->
<g id="node26" class="node">
<title>src/components/Editor/api/registerCompletionProvider.ts</title>
<g id="a_node26"><a xlink:href="src/components/Editor/api/registerCompletionProvider.ts" xlink:title="registerCompletionProvider.ts">
<path fill="#ddfeff" stroke="#000000" d="M1292.63,-403.3011C1292.63,-403.3011 1171.0164,-403.3011 1171.0164,-403.3011 1167.916,-403.3011 1164.8157,-400.2007 1164.8157,-397.1004 1164.8157,-397.1004 1164.8157,-390.8996 1164.8157,-390.8996 1164.8157,-387.7993 1167.916,-384.6989 1171.0164,-384.6989 1171.0164,-384.6989 1292.63,-384.6989 1292.63,-384.6989 1295.7304,-384.6989 1298.8307,-387.7993 1298.8307,-390.8996 1298.8307,-390.8996 1298.8307,-397.1004 1298.8307,-397.1004 1298.8307,-400.2007 1295.7304,-403.3011 1292.63,-403.3011"/>
<text text-anchor="start" x="1172.5699" y="-391.3" font-family="Helvetica,sans-Serif" font-size="9.00" fill="#000000">registerCompletionProvider.ts</text>
</a>
</g>
</g>
<!-- src/components/Editor/api/index.ts&#45;&gt;src/components/Editor/api/registerCompletionProvider.ts -->
<g id="edge27" class="edge">
<title>src/components/Editor/api/index.ts&#45;&gt;src/components/Editor/api/registerCompletionProvider.ts</title>
<path fill="none" stroke="#000000" stroke-width="2" stroke-opacity="0.200000" d="M1029.3995,-379.5222C1036.8568,-384.2613 1046.5386,-389.501 1056.0432,-392 1088.8338,-400.6216 1126.2679,-402.137 1158.1401,-401.0902"/>
<polygon fill="#000000" fill-opacity="0.200000" stroke="#000000" stroke-width="2" stroke-opacity="0.200000" points="1158.5225,-403.1771 1164.4374,-400.848 1158.3611,-398.9802 1158.5225,-403.1771"/>
</g>
<!-- src/components/Editor/api/registerLanguage.ts -->
<g id="node27" class="node">
<title>src/components/Editor/api/registerLanguage.ts</title>
<g id="a_node27"><a xlink:href="src/components/Editor/api/registerLanguage.ts" xlink:title="registerLanguage.ts">
<path fill="#ddfeff" stroke="#000000" d="M1145.1337,-386.3011C1145.1337,-386.3011 1062.4794,-386.3011 1062.4794,-386.3011 1059.379,-386.3011 1056.2787,-383.2007 1056.2787,-380.1004 1056.2787,-380.1004 1056.2787,-373.8996 1056.2787,-373.8996 1056.2787,-370.7993 1059.379,-367.6989 1062.4794,-367.6989 1062.4794,-367.6989 1145.1337,-367.6989 1145.1337,-367.6989 1148.2341,-367.6989 1151.3344,-370.7993 1151.3344,-373.8996 1151.3344,-373.8996 1151.3344,-380.1004 1151.3344,-380.1004 1151.3344,-383.2007 1148.2341,-386.3011 1145.1337,-386.3011"/>
<text text-anchor="start" x="1064.0432" y="-374.3" font-family="Helvetica,sans-Serif" font-size="9.00" fill="#000000">registerLanguage.ts</text>
</a>
</g>
</g>
<!-- src/components/Editor/api/index.ts&#45;&gt;src/components/Editor/api/registerLanguage.ts -->
<g id="edge28" class="edge">
<title>src/components/Editor/api/index.ts&#45;&gt;src/components/Editor/api/registerLanguage.ts</title>
<path fill="none" stroke="#000000" stroke-width="2" stroke-opacity="0.200000" d="M1043.331,-372.1765C1045.523,-372.3513 1047.7798,-372.5313 1050.0745,-372.7143"/>
<polygon fill="#000000" fill-opacity="0.200000" stroke="#000000" stroke-width="2" stroke-opacity="0.200000" points="1050.0707,-374.8206 1056.2187,-373.2044 1050.4046,-370.6339 1050.0707,-374.8206"/>
</g>
<!-- src/components/Editor/api/registerStyleTokenizer.ts -->
<g id="node28" class="node">
<title>src/components/Editor/api/registerStyleTokenizer.ts</title>
<g id="a_node28"><a xlink:href="src/components/Editor/api/registerStyleTokenizer.ts" xlink:title="registerStyleTokenizer.ts">
<path fill="#ddfeff" stroke="#000000" d="M1283.1315,-372.3011C1283.1315,-372.3011 1180.5149,-372.3011 1180.5149,-372.3011 1177.4146,-372.3011 1174.3142,-369.2007 1174.3142,-366.1004 1174.3142,-366.1004 1174.3142,-359.8996 1174.3142,-359.8996 1174.3142,-356.7993 1177.4146,-353.6989 1180.5149,-353.6989 1180.5149,-353.6989 1283.1315,-353.6989 1283.1315,-353.6989 1286.2318,-353.6989 1289.3322,-356.7993 1289.3322,-359.8996 1289.3322,-359.8996 1289.3322,-366.1004 1289.3322,-366.1004 1289.3322,-369.2007 1286.2318,-372.3011 1283.1315,-372.3011"/>
<text text-anchor="start" x="1182.3187" y="-360.3" font-family="Helvetica,sans-Serif" font-size="9.00" fill="#000000">registerStyleTokenizer.ts</text>
</a>
</g>
</g>
<!-- src/components/Editor/api/index.ts&#45;&gt;src/components/Editor/api/registerStyleTokenizer.ts -->
<g id="edge29" class="edge">
<title>src/components/Editor/api/index.ts&#45;&gt;src/components/Editor/api/registerStyleTokenizer.ts</title>
<path fill="none" stroke="#000000" stroke-width="2" stroke-opacity="0.200000" d="M1043.0454,-363.8487C1047.371,-363.0806 1051.8147,-362.4187 1056.0432,-362 1093.0671,-358.3339 1134.6922,-358.3863 1168.1398,-359.447"/>
<polygon fill="#000000" fill-opacity="0.200000" stroke="#000000" stroke-width="2" stroke-opacity="0.200000" points="1168.2191,-361.5508 1174.287,-359.6561 1168.3619,-357.3533 1168.2191,-361.5508"/>
</g>
<!-- src/components/Editor/api/registerLanguage.ts&#45;&gt;src/components/Editor/api/registerCompletionProvider.ts -->
<g id="edge30" class="edge">
<title>src/components/Editor/api/registerLanguage.ts&#45;&gt;src/components/Editor/api/registerCompletionProvider.ts</title>
<path fill="none" stroke="#000000" stroke-width="2" stroke-opacity="0.200000" d="M1151.4752,-383.3302C1153.7411,-383.6311 1156.0363,-383.9359 1158.3484,-384.2429"/>
<polygon fill="#000000" fill-opacity="0.200000" stroke="#000000" stroke-width="2" stroke-opacity="0.200000" points="1158.2751,-386.3515 1164.4994,-385.0597 1158.828,-382.1881 1158.2751,-386.3515"/>
</g>
<!-- src/components/Editor/api/registerLanguage.ts&#45;&gt;src/components/Editor/api/registerStyleTokenizer.ts -->
<g id="edge31" class="edge">
<title>src/components/Editor/api/registerLanguage.ts&#45;&gt;src/components/Editor/api/registerStyleTokenizer.ts</title>
<path fill="none" stroke="#000000" stroke-width="2" stroke-opacity="0.200000" d="M1151.4752,-371.7869C1156.9046,-371.1932 1162.502,-370.581 1168.0965,-369.9692"/>
<polygon fill="#000000" fill-opacity="0.200000" stroke="#000000" stroke-width="2" stroke-opacity="0.200000" points="1168.4219,-372.0462 1174.158,-369.3063 1167.9652,-367.8711 1168.4219,-372.0462"/>
</g>
<!-- src/components/Editor/components/Actions/StyledActionsContainer.ts -->
<g id="node30" class="node">
<title>src/components/Editor/components/Actions/StyledActionsContainer.ts</title>
<g id="a_node30"><a xlink:href="src/components/Editor/components/Actions/StyledActionsContainer.ts" xlink:title="StyledActionsContainer.ts">
<path fill="#ddfeff" stroke="#000000" d="M1539.4246,-199.3011C1539.4246,-199.3011 1432.7817,-199.3011 1432.7817,-199.3011 1429.6814,-199.3011 1426.581,-196.2007 1426.581,-193.1004 1426.581,-193.1004 1426.581,-186.8996 1426.581,-186.8996 1426.581,-183.7993 1429.6814,-180.6989 1432.7817,-180.6989 1432.7817,-180.6989 1539.4246,-180.6989 1539.4246,-180.6989 1542.5249,-180.6989 1545.6253,-183.7993 1545.6253,-186.8996 1545.6253,-186.8996 1545.6253,-193.1004 1545.6253,-193.1004 1545.6253,-196.2007 1542.5249,-199.3011 1539.4246,-199.3011"/>
<text text-anchor="start" x="1434.5921" y="-187.3" font-family="Helvetica,sans-Serif" font-size="9.00" fill="#000000">StyledActionsContainer.ts</text>
</a>
</g>
</g>
<!-- src/components/Editor/components/Actions/ActionsContainer.tsx&#45;&gt;src/components/Editor/components/Actions/StyledActionsContainer.ts -->
<g id="edge32" class="edge">
<title>src/components/Editor/components/Actions/ActionsContainer.tsx&#45;&gt;src/components/Editor/components/Actions/StyledActionsContainer.ts</title>
<path fill="none" stroke="#000000" stroke-width="2" stroke-opacity="0.200000" d="M1413.5114,-190C1415.7556,-190 1418.0219,-190 1420.2974,-190"/>
<polygon fill="#000000" fill-opacity="0.200000" stroke="#000000" stroke-width="2" stroke-opacity="0.200000" points="1420.3335,-192.1001 1426.3335,-190 1420.3335,-187.9001 1420.3335,-192.1001"/>
</g>
<!-- src/components/Editor/components/Actions/StyledActionsContainer.ts&#45;&gt;@devoinc/genesys&#45;ui -->
<g id="edge33" class="edge">
<title>src/components/Editor/components/Actions/StyledActionsContainer.ts&#45;&gt;@devoinc/genesys&#45;ui</title>
<path fill="none" stroke="#000000" stroke-width="2" stroke-opacity="0.200000" d="M1541.8714,-180.5562C1549.1407,-177.4696 1555.9989,-173.3894 1561.6142,-168 1579.3163,-151.0098 1596.8669,-79.6403 1604.0176,-47.6398"/>
<polygon fill="#000000" fill-opacity="0.200000" stroke="#000000" stroke-width="2" stroke-opacity="0.200000" points="1606.1427,-47.7537 1605.3819,-41.4425 1602.041,-46.8506 1606.1427,-47.7537"/>
</g>
<!-- src/components/Editor/components/Container/StyledContainer.tsx&#45;&gt;@devoinc/genesys&#45;ui -->
<g id="edge36" class="edge">
<title>src/components/Editor/components/Container/StyledContainer.tsx&#45;&gt;@devoinc/genesys&#45;ui</title>
<path fill="none" stroke="#000000" stroke-width="2" stroke-opacity="0.200000" d="M1498.1739,-119.3446C1519.9863,-101.8969 1565.9968,-65.0932 1590.7583,-45.2865"/>
<polygon fill="#000000" fill-opacity="0.200000" stroke="#000000" stroke-width="2" stroke-opacity="0.200000" points="1592.3296,-46.7189 1595.7033,-41.331 1589.706,-43.439 1592.3296,-46.7189"/>
</g>
<!-- src/components/Editor/components/Container/index.ts&#45;&gt;src/components/Editor/components/Container/Container.tsx -->
<g id="edge37" class="edge">
<title>src/components/Editor/components/Container/index.ts&#45;&gt;src/components/Editor/components/Container/Container.tsx</title>
<path fill="none" stroke="#000000" stroke-width="2" stroke-opacity="0.200000" d="M1258.9586,-129C1277.5658,-129 1302.5864,-129 1323.5776,-129"/>
<polygon fill="#000000" fill-opacity="0.200000" stroke="#000000" stroke-width="2" stroke-opacity="0.200000" points="1323.666,-131.1001 1329.666,-129 1323.6659,-126.9001 1323.666,-131.1001"/>
</g>
<!-- src/components/Editor/components/InternalEditor/InternalEditor.tsx -->
<g id="node33" class="node">
<title>src/components/Editor/components/InternalEditor/InternalEditor.tsx</title>
<g id="a_node33"><a xlink:href="src/components/Editor/components/InternalEditor/InternalEditor.tsx" xlink:title="InternalEditor.tsx">
<path fill="#bbfeff" stroke="#000000" d="M1399.6476,-260.3011C1399.6476,-260.3011 1329.021,-260.3011 1329.021,-260.3011 1325.9206,-260.3011 1322.8203,-257.2007 1322.8203,-254.1004 1322.8203,-254.1004 1322.8203,-247.8996 1322.8203,-247.8996 1322.8203,-244.7993 1325.9206,-241.6989 1329.021,-241.6989 1329.021,-241.6989 1399.6476,-241.6989 1399.6476,-241.6989 1402.748,-241.6989 1405.8483,-244.7993 1405.8483,-247.8996 1405.8483,-247.8996 1405.8483,-254.1004 1405.8483,-254.1004 1405.8483,-257.2007 1402.748,-260.3011 1399.6476,-260.3011"/>
<text text-anchor="start" x="1330.578" y="-248.3" font-family="Helvetica,sans-Serif" font-size="9.00" fill="#000000">InternalEditor.tsx</text>
</a>
</g>
</g>
<!-- src/components/Editor/components/InternalEditor/InternalEditor.tsx&#45;&gt;src/components/Editor/components/InternalEditor/StyledInternalEditor.ts -->
<g id="edge39" class="edge">
<title>src/components/Editor/components/InternalEditor/InternalEditor.tsx&#45;&gt;src/components/Editor/components/InternalEditor/StyledInternalEditor.ts</title>
<path fill="none" stroke="#000000" stroke-width="2" stroke-opacity="0.200000" d="M1405.8997,-251C1412.8971,-251 1420.2743,-251 1427.6053,-251"/>
<polygon fill="#000000" fill-opacity="0.200000" stroke="#000000" stroke-width="2" stroke-opacity="0.200000" points="1427.7431,-253.1001 1433.7431,-251 1427.743,-248.9001 1427.7431,-253.1001"/>
</g>
<!-- src/components/Editor/components/InternalEditor/InternalEditor.tsx&#45;&gt;src/components/Editor/hooks/index.ts -->
<g id="edge38" class="edge">
<title>src/components/Editor/components/InternalEditor/InternalEditor.tsx&#45;&gt;src/components/Editor/hooks/index.ts</title>
<path fill="none" stroke="#000000" stroke-width="2" stroke-opacity="0.200000" d="M1405.9521,-259.0935C1408.6763,-260.4807 1411.2587,-262.1031 1413.5921,-264 1423.6169,-272.1497 1418.5409,-279.896 1426.5921,-290 1437.8306,-304.104 1453.7262,-316.9363 1466.2625,-325.928"/>
<polygon fill="#000000" fill-opacity="0.200000" stroke="#000000" stroke-width="2" stroke-opacity="0.200000" points="1465.2888,-327.8102 1471.4061,-329.5389 1467.702,-324.3727 1465.2888,-327.8102"/>
</g>
<!-- src/components/Editor/components/InternalEditor/index.ts&#45;&gt;src/components/Editor/components/InternalEditor/InternalEditor.tsx -->
<g id="edge40" class="edge">
<title>src/components/Editor/components/InternalEditor/index.ts&#45;&gt;src/components/Editor/components/InternalEditor/InternalEditor.tsx</title>
<path fill="none" stroke="#000000" stroke-width="2" stroke-opacity="0.200000" d="M1258.9586,-251C1275.493,-251 1297.0915,-251 1316.4269,-251"/>
<polygon fill="#000000" fill-opacity="0.200000" stroke="#000000" stroke-width="2" stroke-opacity="0.200000" points="1316.6159,-253.1001 1322.6158,-251 1316.6158,-248.9001 1316.6159,-253.1001"/>
</g>
<!-- src/components/Editor/hooks/editor/useEditor.ts -->
<g id="node37" class="node">
<title>src/components/Editor/hooks/editor/useEditor.ts</title>
<g id="a_node37"><a xlink:href="src/components/Editor/hooks/editor/useEditor.ts" xlink:title="useEditor.ts">
<path fill="#ddfeff" stroke="#000000" d="M1724.1923,-356.3011C1724.1923,-356.3011 1673.568,-356.3011 1673.568,-356.3011 1670.4676,-356.3011 1667.3673,-353.2007 1667.3673,-350.1004 1667.3673,-350.1004 1667.3673,-343.8996 1667.3673,-343.8996 1667.3673,-340.7993 1670.4676,-337.6989 1673.568,-337.6989 1673.568,-337.6989 1724.1923,-337.6989 1724.1923,-337.6989 1727.2927,-337.6989 1730.393,-340.7993 1730.393,-343.8996 1730.393,-343.8996 1730.393,-350.1004 1730.393,-350.1004 1730.393,-353.2007 1727.2927,-356.3011 1724.1923,-356.3011"/>
<text text-anchor="start" x="1675.1247" y="-344.3" font-family="Helvetica,sans-Serif" font-size="9.00" fill="#000000">useEditor.ts</text>
</a>
</g>
</g>
<!-- src/components/Editor/hooks/editor/index.ts&#45;&gt;src/components/Editor/hooks/editor/useEditor.ts -->
<g id="edge45" class="edge">
<title>src/components/Editor/hooks/editor/index.ts&#45;&gt;src/components/Editor/hooks/editor/useEditor.ts</title>
<path fill="none" stroke="#000000" stroke-width="2" stroke-opacity="0.200000" d="M1634.825,-347C1643.1235,-347 1652.3835,-347 1661.2265,-347"/>
<polygon fill="#000000" fill-opacity="0.200000" stroke="#000000" stroke-width="2" stroke-opacity="0.200000" points="1661.265,-349.1001 1667.2649,-347 1661.2649,-344.9001 1661.265,-349.1001"/>
</g>
<!-- src/components/Editor/hooks/editor/useEditor.ts&#45;&gt;monaco&#45;editor&#45;core -->
<g id="edge47" class="edge">
<title>src/components/Editor/hooks/editor/useEditor.ts&#45;&gt;monaco&#45;editor&#45;core</title>
<path fill="none" stroke="#000000" stroke-width="2" stroke-opacity="0.200000" d="M1702.1203,-337.4829C1717.4671,-292.406 1782.8914,-100.2406 1801.9294,-44.3219"/>
<polygon fill="#000000" fill-opacity="0.200000" stroke="#000000" stroke-width="2" stroke-opacity="0.200000" points="1803.9724,-44.8367 1803.9183,-38.48 1799.9965,-43.483 1803.9724,-44.8367"/>
</g>
<!-- src/components/Editor/hooks/editor/useEditor.ts&#45;&gt;src/components/Editor/hooks/editor/buildEditorOptions.ts -->
<g id="edge46" class="edge">
<title>src/components/Editor/hooks/editor/useEditor.ts&#45;&gt;src/components/Editor/hooks/editor/buildEditorOptions.ts</title>
<path fill="none" stroke="#000000" stroke-width="2" stroke-opacity="0.200000" d="M1730.4861,-347C1737.1176,-347 1744.2981,-347 1751.5141,-347"/>
<polygon fill="#000000" fill-opacity="0.200000" stroke="#000000" stroke-width="2" stroke-opacity="0.200000" points="1751.5727,-349.1001 1757.5727,-347 1751.5726,-344.9001 1751.5727,-349.1001"/>
</g>
<!-- src/components/Editor/hooks/theme/useEditorTheme.ts -->
<g id="node39" class="node">
<title>src/components/Editor/hooks/theme/useEditorTheme.ts</title>
<g id="a_node39"><a xlink:href="src/components/Editor/hooks/theme/useEditorTheme.ts" xlink:title="useEditorTheme.ts">
<path fill="#ddfeff" stroke="#000000" d="M1738.1952,-417.3011C1738.1952,-417.3011 1659.5651,-417.3011 1659.5651,-417.3011 1656.4647,-417.3011 1653.3644,-414.2007 1653.3644,-411.1004 1653.3644,-411.1004 1653.3644,-404.8996 1653.3644,-404.8996 1653.3644,-401.7993 1656.4647,-398.6989 1659.5651,-398.6989 1659.5651,-398.6989 1738.1952,-398.6989 1738.1952,-398.6989 1741.2956,-398.6989 1744.3959,-401.7993 1744.3959,-404.8996 1744.3959,-404.8996 1744.3959,-411.1004 1744.3959,-411.1004 1744.3959,-414.2007 1741.2956,-417.3011 1738.1952,-417.3011"/>
<text text-anchor="start" x="1661.1229" y="-405.3" font-family="Helvetica,sans-Serif" font-size="9.00" fill="#000000">useEditorTheme.ts</text>
</a>
</g>
</g>
<!-- src/components/Editor/hooks/theme/index.ts&#45;&gt;src/components/Editor/hooks/theme/useEditorTheme.ts -->
<g id="edge50" class="edge">
<title>src/components/Editor/hooks/theme/index.ts&#45;&gt;src/components/Editor/hooks/theme/useEditorTheme.ts</title>
<path fill="none" stroke="#000000" stroke-width="2" stroke-opacity="0.200000" d="M1634.825,-408C1638.716,-408 1642.8183,-408 1646.9899,-408"/>
<polygon fill="#000000" fill-opacity="0.200000" stroke="#000000" stroke-width="2" stroke-opacity="0.200000" points="1647.1349,-410.1001 1653.1348,-408 1647.1348,-405.9001 1647.1349,-410.1001"/>
</g>
<!-- src/components/Editor/hooks/theme/useEditorTheme.ts&#45;&gt;src/components/Editor/hooks/theme/colorConvertions.ts -->
<g id="edge51" class="edge">
<title>src/components/Editor/hooks/theme/useEditorTheme.ts&#45;&gt;src/components/Editor/hooks/theme/colorConvertions.ts</title>
<path fill="none" stroke="#000000" stroke-width="2" stroke-opacity="0.200000" d="M1744.4808,-408C1747.8037,-408 1751.1706,-408 1754.5297,-408"/>
<polygon fill="#000000" fill-opacity="0.200000" stroke="#000000" stroke-width="2" stroke-opacity="0.200000" points="1754.5565,-410.1001 1760.5565,-408 1754.5564,-405.9001 1754.5565,-410.1001"/>
</g>
<!-- src/components/index.ts -->
<g id="node40" class="node">
<title>src/components/index.ts</title>
<g id="a_node40"><a xlink:href="src/components/index.ts" xlink:title="index.ts">
<path fill="#ddfeff" stroke="#000000" d="M133.7993,-188.3011C133.7993,-188.3011 92.2007,-188.3011 92.2007,-188.3011 89.1004,-188.3011 86,-185.2007 86,-182.1004 86,-182.1004 86,-175.8996 86,-175.8996 86,-172.7993 89.1004,-169.6989 92.2007,-169.6989 92.2007,-169.6989 133.7993,-169.6989 133.7993,-169.6989 136.8996,-169.6989 140,-172.7993 140,-175.8996 140,-175.8996 140,-182.1004 140,-182.1004 140,-185.2007 136.8996,-188.3011 133.7993,-188.3011"/>
<text text-anchor="start" x="97.4957" y="-176.3" font-family="Helvetica,sans-Serif" font-size="9.00" fill="#000000">index.ts</text>
</a>
</g>
</g>
<!-- src/components/index.ts&#45;&gt;src/components/Editor/index.ts -->
<g id="edge56" class="edge">
<title>src/components/index.ts&#45;&gt;src/components/Editor/index.ts</title>
<path fill="none" stroke="#000000" stroke-width="2" stroke-opacity="0.200000" d="M123.2615,-169.5873C145.6501,-150.0708 201.3114,-107 256.5006,-107 256.5006,-107 256.5006,-107 734.0323,-107 851.4497,-107 921.7602,-271.0602 940.7799,-322.0586"/>
<polygon fill="#000000" fill-opacity="0.200000" stroke="#000000" stroke-width="2" stroke-opacity="0.200000" points="938.81,-322.7866 942.8448,-327.6989 942.754,-321.3426 938.81,-322.7866"/>
</g>
<!-- src/components/index.ts&#45;&gt;src/components/DiffEditor/index.ts -->
<g id="edge55" class="edge">
<title>src/components/index.ts&#45;&gt;src/components/DiffEditor/index.ts</title>
<path fill="none" stroke="#000000" stroke-width="2" stroke-opacity="0.200000" d="M115.3329,-188.5342C119.4528,-203.4453 129.3935,-232.302 148,-249 148.7236,-249.6494 149.4826,-250.2673 150.2703,-250.8553"/>
<polygon fill="#000000" fill-opacity="0.200000" stroke="#000000" stroke-width="2" stroke-opacity="0.200000" points="149.6139,-252.9209 155.816,-254.3153 151.8371,-249.3576 149.6139,-252.9209"/>
</g>
<!-- src/index.ts -->
<g id="node41" class="node">
<title>src/index.ts</title>
<g id="a_node41"><a xlink:href="src/index.ts" xlink:title="index.ts">
<path fill="#ddfeff" stroke="#000000" d="M63.7993,-188.3011C63.7993,-188.3011 22.2007,-188.3011 22.2007,-188.3011 19.1004,-188.3011 16,-185.2007 16,-182.1004 16,-182.1004 16,-175.8996 16,-175.8996 16,-172.7993 19.1004,-169.6989 22.2007,-169.6989 22.2007,-169.6989 63.7993,-169.6989 63.7993,-169.6989 66.8996,-169.6989 70,-172.7993 70,-175.8996 70,-175.8996 70,-182.1004 70,-182.1004 70,-185.2007 66.8996,-188.3011 63.7993,-188.3011"/>
<text text-anchor="start" x="27.4957" y="-176.3" font-family="Helvetica,sans-Serif" font-size="9.00" fill="#000000">index.ts</text>
</a>
</g>
</g>
<!-- src/index.ts&#45;&gt;src/components/index.ts -->
<g id="edge57" class="edge">
<title>src/index.ts&#45;&gt;src/components/index.ts</title>
<path fill="none" stroke="#000000" stroke-width="2" stroke-opacity="0.200000" d="M70.2643,-179C73.273,-179 76.3619,-179 79.4361,-179"/>
<polygon fill="#000000" fill-opacity="0.200000" stroke="#000000" stroke-width="2" stroke-opacity="0.200000" points="79.695,-181.1001 85.695,-179 79.695,-176.9001 79.695,-181.1001"/>
</g>
</g>
</svg>
