<?xml version="1.0" encoding="UTF-8" standalone="no"?>
<!DOCTYPE svg PUBLIC "-//W3C//DTD SVG 1.1//EN"
 "http://www.w3.org/Graphics/SVG/1.1/DTD/svg11.dtd">
<!-- Generated by graphviz version 2.40.1 (20161225.0304)
 -->
<!-- Title: dependency&#45;cruiser output Pages: 1 -->
<svg width="666pt" height="435pt"
 viewBox="0.00 0.00 666.29 434.84" xmlns="http://www.w3.org/2000/svg" xmlns:xlink="http://www.w3.org/1999/xlink">
<g id="graph0" class="graph" transform="scale(1 1) rotate(0) translate(4 430.8416)">
<title>dependency&#45;cruiser output</title>
<polygon fill="#ffffff" stroke="transparent" points="-4,4 -4,-430.8416 662.2851,-430.8416 662.2851,4 -4,4"/>
<g id="clust1" class="cluster">
<title>cluster_..</title>
<path fill="#ffffff" stroke="#000000" stroke-width="2" d="M404.5097,-36.8416C404.5097,-36.8416 487.5308,-36.8416 487.5308,-36.8416 493.5308,-36.8416 499.5308,-42.8416 499.5308,-48.8416 499.5308,-48.8416 499.5308,-112.8416 499.5308,-112.8416 499.5308,-118.8416 493.5308,-124.8416 487.5308,-124.8416 487.5308,-124.8416 404.5097,-124.8416 404.5097,-124.8416 398.5097,-124.8416 392.5097,-118.8416 392.5097,-112.8416 392.5097,-112.8416 392.5097,-48.8416 392.5097,-48.8416 392.5097,-42.8416 398.5097,-36.8416 404.5097,-36.8416"/>
<text text-anchor="middle" x="446.0202" y="-112.7416" font-family="Helvetica,sans-Serif" font-weight="bold" font-size="9.00" fill="#000000">..</text>
</g>
<g id="clust2" class="cluster">
<title>cluster_../..</title>
<path fill="#ffffff" stroke="#000000" stroke-width="2" d="M412.5097,-44.8416C412.5097,-44.8416 479.5308,-44.8416 479.5308,-44.8416 485.5308,-44.8416 491.5308,-50.8416 491.5308,-56.8416 491.5308,-56.8416 491.5308,-85.8416 491.5308,-85.8416 491.5308,-91.8416 485.5308,-97.8416 479.5308,-97.8416 479.5308,-97.8416 412.5097,-97.8416 412.5097,-97.8416 406.5097,-97.8416 400.5097,-91.8416 400.5097,-85.8416 400.5097,-85.8416 400.5097,-56.8416 400.5097,-56.8416 400.5097,-50.8416 406.5097,-44.8416 412.5097,-44.8416"/>
<text text-anchor="middle" x="446.0202" y="-85.7416" font-family="Helvetica,sans-Serif" font-weight="bold" font-size="9.00" fill="#000000">..</text>
</g>
<g id="clust3" class="cluster">
<title>cluster_@devoinc</title>
<path fill="#ffffff" stroke="#000000" stroke-width="2" d="M581.5308,-122.8416C581.5308,-122.8416 633.0395,-122.8416 633.0395,-122.8416 639.0395,-122.8416 645.0395,-128.8416 645.0395,-134.8416 645.0395,-134.8416 645.0395,-163.8416 645.0395,-163.8416 645.0395,-169.8416 639.0395,-175.8416 633.0395,-175.8416 633.0395,-175.8416 581.5308,-175.8416 581.5308,-175.8416 575.5308,-175.8416 569.5308,-169.8416 569.5308,-163.8416 569.5308,-163.8416 569.5308,-134.8416 569.5308,-134.8416 569.5308,-128.8416 575.5308,-122.8416 581.5308,-122.8416"/>
<text text-anchor="middle" x="607.2851" y="-163.7416" font-family="Helvetica,sans-Serif" font-weight="bold" font-size="9.00" fill="#000000">@devoinc</text>
</g>
<g id="clust4" class="cluster">
<title>cluster_src</title>
<path fill="#ffffff" stroke="#000000" stroke-width="2" d="M20,-183.8416C20,-183.8416 638.2851,-183.8416 638.2851,-183.8416 644.2851,-183.8416 650.2851,-189.8416 650.2851,-195.8416 650.2851,-195.8416 650.2851,-406.8416 650.2851,-406.8416 650.2851,-412.8416 644.2851,-418.8416 638.2851,-418.8416 638.2851,-418.8416 20,-418.8416 20,-418.8416 14,-418.8416 8,-412.8416 8,-406.8416 8,-406.8416 8,-195.8416 8,-195.8416 8,-189.8416 14,-183.8416 20,-183.8416"/>
<text text-anchor="middle" x="329.1426" y="-406.7416" font-family="Helvetica,sans-Serif" font-weight="bold" font-size="9.00" fill="#000000">src</text>
</g>
<g id="clust5" class="cluster">
<title>cluster_src/components</title>
<path fill="#ffffff" stroke="#000000" stroke-width="2" d="M90,-191.8416C90,-191.8416 630.2851,-191.8416 630.2851,-191.8416 636.2851,-191.8416 642.2851,-197.8416 642.2851,-203.8416 642.2851,-203.8416 642.2851,-379.8416 642.2851,-379.8416 642.2851,-385.8416 636.2851,-391.8416 630.2851,-391.8416 630.2851,-391.8416 90,-391.8416 90,-391.8416 84,-391.8416 78,-385.8416 78,-379.8416 78,-379.8416 78,-203.8416 78,-203.8416 78,-197.8416 84,-191.8416 90,-191.8416"/>
<text text-anchor="middle" x="360.1426" y="-379.7416" font-family="Helvetica,sans-Serif" font-weight="bold" font-size="9.00" fill="#000000">components</text>
</g>
<!-- ../../node_modules/ -->
<g id="node1" class="node">
<title>../../node_modules/</title>
<g id="a_node1"><a xlink:href="../../node_modules/" xlink:title="node_modules">
<polygon fill="#c40b0a" fill-opacity="0.101961" stroke="#000000" points="483.5414,-71.1427 410.566,-71.1427 408.4991,-69.0758 408.4991,-52.5406 481.4745,-52.5406 483.5414,-54.6075 483.5414,-71.1427"/>
<polyline fill="none" stroke="#000000" points="481.4745,-69.0758 408.4991,-69.0758 "/>
<polyline fill="none" stroke="#000000" points="481.4745,-69.0758 481.4745,-52.5406 "/>
<polyline fill="none" stroke="#000000" points="481.4745,-69.0758 483.5414,-71.1427 "/>
<text text-anchor="start" x="416.5097" y="-59.1416" font-family="Helvetica,sans-Serif" font-size="9.00" fill="#c40b0a">node_modules</text>
</a>
</g>
</g>
<!-- @devoinc/genesys&#45;ui -->
<g id="node2" class="node">
<title>@devoinc/genesys&#45;ui</title>
<g id="a_node2"><a xlink:title="genesys&#45;ui">
<path fill="#ffffcc" stroke="#000000" d="M630.5952,-149.1427C630.5952,-149.1427 583.9751,-149.1427 583.9751,-149.1427 580.8748,-149.1427 577.7744,-146.0423 577.7744,-142.942 577.7744,-142.942 577.7744,-136.7413 577.7744,-136.7413 577.7744,-133.6409 580.8748,-130.5406 583.9751,-130.5406 583.9751,-130.5406 630.5952,-130.5406 630.5952,-130.5406 633.6955,-130.5406 636.7959,-133.6409 636.7959,-136.7413 636.7959,-136.7413 636.7959,-142.942 636.7959,-142.942 636.7959,-146.0423 633.6955,-149.1427 630.5952,-149.1427"/>
<text text-anchor="start" x="585.5308" y="-137.1416" font-family="Helvetica,sans-Serif" font-size="9.00" fill="#000000">genesys&#45;ui</text>
</a>
</g>
</g>
<!-- src/components/Calendar/ -->
<g id="node3" class="node">
<title>src/components/Calendar/</title>
<g id="a_node3"><a xlink:href="src/components/Calendar/" xlink:title="Calendar">
<polygon fill="#ffffcc" stroke="#000000" points="561.5308,-295.1427 509.5977,-295.1427 507.5308,-293.0758 507.5308,-276.5406 559.4639,-276.5406 561.5308,-278.6075 561.5308,-295.1427"/>
<polyline fill="none" stroke="#000000" points="559.4639,-293.0758 507.5308,-293.0758 "/>
<polyline fill="none" stroke="#000000" points="559.4639,-293.0758 559.4639,-276.5406 "/>
<polyline fill="none" stroke="#000000" points="559.4639,-293.0758 561.5308,-295.1427 "/>
<text text-anchor="start" x="516.2779" y="-283.1416" font-family="Helvetica,sans-Serif" font-size="9.00" fill="#000000">Calendar</text>
</a>
</g>
</g>
<!-- src/components/Calendar/&#45;&gt;@devoinc/genesys&#45;ui -->
<g id="edge2" class="edge">
<title>src/components/Calendar/&#45;&gt;@devoinc/genesys&#45;ui</title>
<path fill="none" stroke="#000000" stroke-width="2" stroke-opacity="0.200000" d="M544.9666,-276.5103C550.8462,-270.6184 557.7498,-262.5018 561.5308,-253.8416 573.1773,-227.1664 558.4788,-215.7686 569.5308,-188.8416 574.9478,-175.6437 584.9093,-162.9485 593.2401,-153.7881"/>
<polygon fill="#000000" fill-opacity="0.200000" stroke="#000000" stroke-width="2" stroke-opacity="0.200000" points="594.8426,-155.1493 597.4152,-149.3362 591.779,-152.2762 594.8426,-155.1493"/>
</g>
<!-- src/components/utils.ts -->
<g id="node4" class="node">
<title>src/components/utils.ts</title>
<g id="a_node4"><a xlink:href="src/components/utils.ts" xlink:title="utils.ts">
<path fill="#ddfeff" stroke="#000000" d="M628.0844,-324.1427C628.0844,-324.1427 586.4859,-324.1427 586.4859,-324.1427 583.3855,-324.1427 580.2851,-321.0423 580.2851,-317.942 580.2851,-317.942 580.2851,-311.7413 580.2851,-311.7413 580.2851,-308.6409 583.3855,-305.5406 586.4859,-305.5406 586.4859,-305.5406 628.0844,-305.5406 628.0844,-305.5406 631.1848,-305.5406 634.2851,-308.6409 634.2851,-311.7413 634.2851,-311.7413 634.2851,-317.942 634.2851,-317.942 634.2851,-321.0423 631.1848,-324.1427 628.0844,-324.1427"/>
<text text-anchor="start" x="594.5348" y="-312.1416" font-family="Helvetica,sans-Serif" font-size="9.00" fill="#000000">utils.ts</text>
</a>
</g>
</g>
<!-- src/components/Calendar/&#45;&gt;src/components/utils.ts -->
<g id="edge1" class="edge">
<title>src/components/Calendar/&#45;&gt;src/components/utils.ts</title>
<path fill="none" stroke="#000000" stroke-width="2" stroke-opacity="0.200000" d="M557.9512,-295.177C564.4418,-297.7642 571.5654,-300.6037 578.3313,-303.3006"/>
<polygon fill="#000000" fill-opacity="0.200000" stroke="#000000" stroke-width="2" stroke-opacity="0.200000" points="577.5575,-305.2528 583.9086,-305.5237 579.1127,-301.3513 577.5575,-305.2528"/>
</g>
<!-- src/components/DateTime/ -->
<g id="node5" class="node">
<title>src/components/DateTime/</title>
<g id="a_node5"><a xlink:href="src/components/DateTime/" xlink:title="DateTime">
<polygon fill="#ffffcc" stroke="#000000" points="473.5191,-308.1427 420.5884,-308.1427 418.5214,-306.0758 418.5214,-289.5406 471.4521,-289.5406 473.5191,-291.6075 473.5191,-308.1427"/>
<polyline fill="none" stroke="#000000" points="471.4521,-306.0758 418.5214,-306.0758 "/>
<polyline fill="none" stroke="#000000" points="471.4521,-306.0758 471.4521,-289.5406 "/>
<polyline fill="none" stroke="#000000" points="471.4521,-306.0758 473.5191,-308.1427 "/>
<text text-anchor="start" x="426.5208" y="-296.1416" font-family="Helvetica,sans-Serif" font-size="9.00" fill="#000000">DateTime</text>
</a>
</g>
</g>
<!-- src/components/DateTime/&#45;&gt;@devoinc/genesys&#45;ui -->
<g id="edge4" class="edge">
<title>src/components/DateTime/&#45;&gt;@devoinc/genesys&#45;ui</title>
<path fill="none" stroke="#000000" stroke-width="2" stroke-opacity="0.200000" d="M470.3479,-289.3773C496.9116,-277.7633 538.7037,-255.5042 561.5308,-222.8416 570.4235,-210.1174 562.8654,-202.8616 569.5308,-188.8416 575.7348,-175.7921 585.8463,-162.9244 594.0442,-153.652"/>
<polygon fill="#000000" fill-opacity="0.200000" stroke="#000000" stroke-width="2" stroke-opacity="0.200000" points="595.6523,-155.0049 598.1259,-149.149 592.5404,-152.1841 595.6523,-155.0049"/>
</g>
<!-- src/components/DateTime/&#45;&gt;src/components/Calendar/ -->
<g id="edge5" class="edge">
<title>src/components/DateTime/&#45;&gt;src/components/Calendar/</title>
<path fill="none" stroke="#000000" stroke-width="2" stroke-opacity="0.200000" d="M473.5404,-294.7996C482.2815,-293.5158 492.0442,-292.0819 501.1518,-290.7442"/>
<polygon fill="#000000" fill-opacity="0.200000" stroke="#000000" stroke-width="2" stroke-opacity="0.200000" points="501.7006,-292.7862 507.3317,-289.8365 501.0902,-288.6308 501.7006,-292.7862"/>
</g>
<!-- src/components/DateTime/&#45;&gt;src/components/utils.ts -->
<g id="edge3" class="edge">
<title>src/components/DateTime/&#45;&gt;src/components/utils.ts</title>
<path fill="none" stroke="#000000" stroke-width="2" stroke-opacity="0.200000" d="M473.7427,-301.5921C501.5713,-304.3532 544.4543,-308.6078 574.082,-311.5474"/>
<polygon fill="#000000" fill-opacity="0.200000" stroke="#000000" stroke-width="2" stroke-opacity="0.200000" points="574.0148,-313.6509 580.1929,-312.1537 574.4296,-309.4714 574.0148,-313.6509"/>
</g>
<!-- src/components/DateTimeFloatingPicker/ -->
<g id="node6" class="node">
<title>src/components/DateTimeFloatingPicker/</title>
<g id="a_node6"><a xlink:href="src/components/DateTimeFloatingPicker/" xlink:title="DateTimeFloatingPicker">
<polygon fill="#ffffcc" stroke="#000000" points="384.5112,-337.1427 274.5721,-337.1427 272.5052,-335.0758 272.5052,-318.5406 382.4443,-318.5406 384.5112,-320.6075 384.5112,-337.1427"/>
<polyline fill="none" stroke="#000000" points="382.4443,-335.0758 272.5052,-335.0758 "/>
<polyline fill="none" stroke="#000000" points="382.4443,-335.0758 382.4443,-318.5406 "/>
<polyline fill="none" stroke="#000000" points="382.4443,-335.0758 384.5112,-337.1427 "/>
<text text-anchor="start" x="280.5067" y="-325.1416" font-family="Helvetica,sans-Serif" font-size="9.00" fill="#000000">DateTimeFloatingPicker</text>
</a>
</g>
</g>
<!-- src/components/DateTimeFloatingPicker/&#45;&gt;@devoinc/genesys&#45;ui -->
<g id="edge8" class="edge">
<title>src/components/DateTimeFloatingPicker/&#45;&gt;@devoinc/genesys&#45;ui</title>
<path fill="none" stroke="#000000" stroke-width="2" stroke-opacity="0.200000" d="M377.1356,-318.4395C379.8885,-316.5991 382.3913,-314.4197 384.5097,-311.8416 398.1002,-295.3017 379.4368,-232.7936 392.5097,-215.8416 395.3995,-212.0943 514.0572,-171.4565 573.7345,-151.1937"/>
<polygon fill="#000000" fill-opacity="0.200000" stroke="#000000" stroke-width="2" stroke-opacity="0.200000" points="574.6604,-153.0972 579.6673,-149.1804 573.3107,-149.12 574.6604,-153.0972"/>
</g>
<!-- src/components/DateTimeFloatingPicker/&#45;&gt;src/components/utils.ts -->
<g id="edge7" class="edge">
<title>src/components/DateTimeFloatingPicker/&#45;&gt;src/components/utils.ts</title>
<path fill="none" stroke="#000000" stroke-width="2" stroke-opacity="0.200000" d="M384.7714,-330.921C432.1133,-332.661 501.4993,-333.2178 561.5308,-325.8416 565.5624,-325.3463 569.7538,-324.6284 573.8909,-323.7931"/>
<polygon fill="#000000" fill-opacity="0.200000" stroke="#000000" stroke-width="2" stroke-opacity="0.200000" points="574.4671,-325.8172 579.8885,-322.4977 573.5803,-321.7119 574.4671,-325.8172"/>
</g>
<!-- src/components/DateTimeFloatingPicker/&#45;&gt;src/components/DateTime/ -->
<g id="edge6" class="edge">
<title>src/components/DateTimeFloatingPicker/&#45;&gt;src/components/DateTime/</title>
<path fill="none" stroke="#000000" stroke-width="2" stroke-opacity="0.200000" d="M366.3366,-318.5062C381.131,-314.8552 397.9616,-310.7017 412.3306,-307.1557"/>
<polygon fill="#000000" fill-opacity="0.200000" stroke="#000000" stroke-width="2" stroke-opacity="0.200000" points="413.0029,-309.1528 418.325,-305.6764 411.9966,-305.0752 413.0029,-309.1528"/>
</g>
<!-- src/components/DateTimePicker/ -->
<g id="node7" class="node">
<title>src/components/DateTimePicker/</title>
<g id="a_node7"><a xlink:href="src/components/DateTimePicker/" xlink:title="DateTimePicker">
<polygon fill="#ffffcc" stroke="#000000" points="368.5054,-306.1427 290.5779,-306.1427 288.511,-304.0758 288.511,-287.5406 366.4385,-287.5406 368.5054,-289.6075 368.5054,-306.1427"/>
<polyline fill="none" stroke="#000000" points="366.4385,-304.0758 288.511,-304.0758 "/>
<polyline fill="none" stroke="#000000" points="366.4385,-304.0758 366.4385,-287.5406 "/>
<polyline fill="none" stroke="#000000" points="366.4385,-304.0758 368.5054,-306.1427 "/>
<text text-anchor="start" x="296.5096" y="-294.1416" font-family="Helvetica,sans-Serif" font-size="9.00" fill="#000000">DateTimePicker</text>
</a>
</g>
</g>
<!-- src/components/DateTimePicker/&#45;&gt;@devoinc/genesys&#45;ui -->
<g id="edge11" class="edge">
<title>src/components/DateTimePicker/&#45;&gt;@devoinc/genesys&#45;ui</title>
<path fill="none" stroke="#000000" stroke-width="2" stroke-opacity="0.200000" d="M359.3217,-287.5064C368.9027,-283.0757 378.5145,-276.7403 384.5097,-267.8416 395.234,-251.9235 379.6356,-196.0772 392.5097,-181.8416 415.944,-155.9291 516.5549,-145.5715 571.3595,-141.793"/>
<polygon fill="#000000" fill-opacity="0.200000" stroke="#000000" stroke-width="2" stroke-opacity="0.200000" points="571.6376,-143.8792 577.4847,-141.3849 571.3584,-139.6885 571.6376,-143.8792"/>
</g>
<!-- src/components/DateTimePicker/&#45;&gt;src/components/utils.ts -->
<g id="edge10" class="edge">
<title>src/components/DateTimePicker/&#45;&gt;src/components/utils.ts</title>
<path fill="none" stroke="#000000" stroke-width="2" stroke-opacity="0.200000" d="M357.5053,-306.2185C368.3637,-309.284 380.8853,-312.2966 392.5097,-313.8416 456.2762,-322.3171 531.6348,-319.8237 574.0039,-317.296"/>
<polygon fill="#000000" fill-opacity="0.200000" stroke="#000000" stroke-width="2" stroke-opacity="0.200000" points="574.1517,-319.391 580.0104,-316.9241 573.8921,-315.199 574.1517,-319.391"/>
</g>
<!-- src/components/DateTimePicker/&#45;&gt;src/components/DateTime/ -->
<g id="edge9" class="edge">
<title>src/components/DateTimePicker/&#45;&gt;src/components/DateTime/</title>
<path fill="none" stroke="#000000" stroke-width="2" stroke-opacity="0.200000" d="M368.6205,-297.5243C382.8045,-297.7657 398.6056,-298.0347 412.2138,-298.2663"/>
<polygon fill="#000000" fill-opacity="0.200000" stroke="#000000" stroke-width="2" stroke-opacity="0.200000" points="412.2634,-300.3673 418.2983,-298.3698 412.3349,-296.1679 412.2634,-300.3673"/>
</g>
<!-- src/components/DateTimeRange/ -->
<g id="node8" class="node">
<title>src/components/DateTimeRange/</title>
<g id="a_node8"><a xlink:href="src/components/DateTimeRange/" xlink:title="DateTimeRange">
<polygon fill="#ffffcc" stroke="#000000" points="369.018,-262.1427 290.0653,-262.1427 287.9984,-260.0758 287.9984,-243.5406 366.9511,-243.5406 369.018,-245.6075 369.018,-262.1427"/>
<polyline fill="none" stroke="#000000" points="366.9511,-260.0758 287.9984,-260.0758 "/>
<polyline fill="none" stroke="#000000" points="366.9511,-260.0758 366.9511,-243.5406 "/>
<polyline fill="none" stroke="#000000" points="366.9511,-260.0758 369.018,-262.1427 "/>
<text text-anchor="start" x="295.754" y="-250.1416" font-family="Helvetica,sans-Serif" font-size="9.00" fill="#000000">DateTimeRange</text>
</a>
</g>
</g>
<!-- src/components/DateTimeRange/&#45;&gt;@devoinc/genesys&#45;ui -->
<g id="edge16" class="edge">
<title>src/components/DateTimeRange/&#45;&gt;@devoinc/genesys&#45;ui</title>
<path fill="none" stroke="#000000" stroke-width="2" stroke-opacity="0.200000" d="M359.1984,-243.4222C368.7695,-238.9848 378.4066,-232.6666 384.5097,-223.8416 393.1641,-211.3274 381.5233,-166.3681 392.5097,-155.8416 440.149,-110.1966 524.154,-119.8736 571.76,-130.2946"/>
<polygon fill="#000000" fill-opacity="0.200000" stroke="#000000" stroke-width="2" stroke-opacity="0.200000" points="571.3471,-132.3542 577.6628,-131.6315 572.2749,-128.258 571.3471,-132.3542"/>
</g>
<!-- src/components/DateTimeRange/&#45;&gt;src/components/Calendar/ -->
<g id="edge12" class="edge">
<title>src/components/DateTimeRange/&#45;&gt;src/components/Calendar/</title>
<path fill="none" stroke="#000000" stroke-width="2" stroke-opacity="0.200000" d="M368.6947,-262.1616C376.568,-263.8377 384.7803,-265.4816 392.5097,-266.8416 429.5225,-273.3543 472.3102,-278.7971 501.167,-282.1648"/>
<polygon fill="#000000" fill-opacity="0.200000" stroke="#000000" stroke-width="2" stroke-opacity="0.200000" points="501.2653,-284.2901 507.4667,-282.8928 501.7475,-280.1178 501.2653,-284.2901"/>
</g>
<!-- src/components/DateTimeRange/&#45;&gt;src/components/utils.ts -->
<g id="edge15" class="edge">
<title>src/components/DateTimeRange/&#45;&gt;src/components/utils.ts</title>
<path fill="none" stroke="#000000" stroke-width="2" stroke-opacity="0.200000" d="M369.1157,-252.7088C426.5428,-253.0722 528.2084,-255.9018 561.5308,-270.8416 576.0492,-277.3508 588.7444,-290.5126 597.0551,-300.753"/>
<polygon fill="#000000" fill-opacity="0.200000" stroke="#000000" stroke-width="2" stroke-opacity="0.200000" points="595.4204,-302.0717 600.7714,-305.5035 598.7284,-299.4838 595.4204,-302.0717"/>
</g>
<!-- src/components/DateTimeRange/&#45;&gt;src/components/DateTime/ -->
<g id="edge13" class="edge">
<title>src/components/DateTimeRange/&#45;&gt;src/components/DateTime/</title>
<path fill="none" stroke="#000000" stroke-width="2" stroke-opacity="0.200000" d="M367.8512,-262.2233C373.7084,-264.5278 379.4647,-267.364 384.5097,-270.8416 389.1959,-274.0719 387.8454,-277.5798 392.5097,-280.8416 398.5339,-285.0545 405.6212,-288.3439 412.6315,-290.8892"/>
<polygon fill="#000000" fill-opacity="0.200000" stroke="#000000" stroke-width="2" stroke-opacity="0.200000" points="412.1206,-292.933 418.4771,-292.8563 413.4602,-288.9523 412.1206,-292.933"/>
</g>
<!-- src/components/Presets/ -->
<g id="node9" class="node">
<title>src/components/Presets/</title>
<g id="a_node9"><a xlink:href="src/components/Presets/" xlink:title="Presets">
<polygon fill="#ffffcc" stroke="#000000" points="473.0202,-240.1427 421.0872,-240.1427 419.0202,-238.0758 419.0202,-221.5406 470.9533,-221.5406 473.0202,-223.6075 473.0202,-240.1427"/>
<polyline fill="none" stroke="#000000" points="470.9533,-238.0758 419.0202,-238.0758 "/>
<polyline fill="none" stroke="#000000" points="470.9533,-238.0758 470.9533,-221.5406 "/>
<polyline fill="none" stroke="#000000" points="470.9533,-238.0758 473.0202,-240.1427 "/>
<text text-anchor="start" x="430.7675" y="-228.1416" font-family="Helvetica,sans-Serif" font-size="9.00" fill="#000000">Presets</text>
</a>
</g>
</g>
<!-- src/components/DateTimeRange/&#45;&gt;src/components/Presets/ -->
<g id="edge14" class="edge">
<title>src/components/DateTimeRange/&#45;&gt;src/components/Presets/</title>
<path fill="none" stroke="#000000" stroke-width="2" stroke-opacity="0.200000" d="M369.2784,-245.2088C383.5348,-242.5398 399.3547,-239.5781 412.9092,-237.0405"/>
<polygon fill="#000000" fill-opacity="0.200000" stroke="#000000" stroke-width="2" stroke-opacity="0.200000" points="413.4527,-239.0753 418.9638,-235.907 412.6798,-234.9471 413.4527,-239.0753"/>
</g>
<!-- src/components/Presets/&#45;&gt;@devoinc/genesys&#45;ui -->
<g id="edge24" class="edge">
<title>src/components/Presets/&#45;&gt;@devoinc/genesys&#45;ui</title>
<path fill="none" stroke="#000000" stroke-width="2" stroke-opacity="0.200000" d="M473.2185,-229.7529C498.3138,-227.5085 535.5166,-220.9111 561.5308,-201.8416 567.0023,-197.8308 565.6774,-194.4252 569.5308,-188.8416 577.8419,-176.7989 588.0007,-163.6951 595.6862,-154.071"/>
<polygon fill="#000000" fill-opacity="0.200000" stroke="#000000" stroke-width="2" stroke-opacity="0.200000" points="597.3349,-155.3718 599.4568,-149.3794 594.0612,-152.7406 597.3349,-155.3718"/>
</g>
<!-- src/components/DateTimeRangeControl/ -->
<g id="node10" class="node">
<title>src/components/DateTimeRangeControl/</title>
<g id="a_node10"><a xlink:href="src/components/DateTimeRangeControl/" xlink:title="DateTimeRangeControl">
<polygon fill="#ffffcc" stroke="#000000" points="383.5183,-218.1427 275.565,-218.1427 273.4981,-216.0758 273.4981,-199.5406 381.4514,-199.5406 383.5183,-201.6075 383.5183,-218.1427"/>
<polyline fill="none" stroke="#000000" points="381.4514,-216.0758 273.4981,-216.0758 "/>
<polyline fill="none" stroke="#000000" points="381.4514,-216.0758 381.4514,-199.5406 "/>
<polyline fill="none" stroke="#000000" points="381.4514,-216.0758 383.5183,-218.1427 "/>
<text text-anchor="start" x="281.2537" y="-206.1416" font-family="Helvetica,sans-Serif" font-size="9.00" fill="#000000">DateTimeRangeControl</text>
</a>
</g>
</g>
<!-- src/components/DateTimeRangeControl/&#45;&gt;../../node_modules/ -->
<g id="edge17" class="edge">
<title>src/components/DateTimeRangeControl/&#45;&gt;../../node_modules/</title>
<path fill="none" stroke="#000000" stroke-opacity="0.200000" d="M336.2185,-199.1966C356.3948,-173.9573 410.8279,-105.865 434.6245,-76.097"/>
<polygon fill="#000000" fill-opacity="0.200000" stroke="#000000" stroke-opacity="0.200000" points="436.3281,-77.329 438.4343,-71.3311 433.0475,-74.7065 436.3281,-77.329"/>
</g>
<!-- src/components/DateTimeRangeControl/&#45;&gt;@devoinc/genesys&#45;ui -->
<g id="edge18" class="edge">
<title>src/components/DateTimeRangeControl/&#45;&gt;@devoinc/genesys&#45;ui</title>
<path fill="none" stroke="#000000" stroke-width="2" stroke-opacity="0.200000" d="M330.6838,-199.276C338.3116,-166.6691 364.8792,-60.8426 392.5097,-41.8416 431.7019,-14.8899 455.1678,-24.6852 499.5308,-41.8416 543.1997,-58.7296 580.0679,-102.4538 597.1291,-125.3604"/>
<polygon fill="#000000" fill-opacity="0.200000" stroke="#000000" stroke-width="2" stroke-opacity="0.200000" points="595.6081,-126.8383 600.8438,-130.4436 598.9992,-124.3602 595.6081,-126.8383"/>
</g>
<!-- src/components/DateTimeRangePicker/ -->
<g id="node11" class="node">
<title>src/components/DateTimeRangePicker/</title>
<g id="a_node11"><a xlink:href="src/components/DateTimeRangePicker/" xlink:title="DateTimeRangePicker">
<polygon fill="#ffffcc" stroke="#000000" points="259.2612,-273.1427 155.3124,-273.1427 153.2455,-271.0758 153.2455,-254.5406 257.1943,-254.5406 259.2612,-256.6075 259.2612,-273.1427"/>
<polyline fill="none" stroke="#000000" points="257.1943,-271.0758 153.2455,-271.0758 "/>
<polyline fill="none" stroke="#000000" points="257.1943,-271.0758 257.1943,-254.5406 "/>
<polyline fill="none" stroke="#000000" points="257.1943,-271.0758 259.2612,-273.1427 "/>
<text text-anchor="start" x="161" y="-261.1416" font-family="Helvetica,sans-Serif" font-size="9.00" fill="#000000">DateTimeRangePicker</text>
</a>
</g>
</g>
<!-- src/components/DateTimeRangePicker/&#45;&gt;@devoinc/genesys&#45;ui -->
<g id="edge23" class="edge">
<title>src/components/DateTimeRangePicker/&#45;&gt;@devoinc/genesys&#45;ui</title>
<path fill="none" stroke="#000000" stroke-width="2" stroke-opacity="0.200000" d="M209.8511,-254.4098C224.957,-216.3422 287.3876,-73.5866 392.5097,-21.8416 460.4257,11.5891 505.0376,7.544 561.5308,-42.8416 586.2133,-64.8556 598.6713,-103.0191 603.9859,-124.3234"/>
<polygon fill="#000000" fill-opacity="0.200000" stroke="#000000" stroke-width="2" stroke-opacity="0.200000" points="601.9881,-125.001 605.4115,-130.3573 606.0755,-124.0352 601.9881,-125.001"/>
</g>
<!-- src/components/DateTimeRangePicker/&#45;&gt;src/components/utils.ts -->
<g id="edge22" class="edge">
<title>src/components/DateTimeRangePicker/&#45;&gt;src/components/utils.ts</title>
<path fill="none" stroke="#000000" stroke-width="2" stroke-opacity="0.200000" d="M210.6275,-273.1866C219.4404,-290.7519 241.1983,-328.2373 272.5067,-342.8416 376.4981,-391.3503 518.3808,-348.7607 578.4928,-326.445"/>
<polygon fill="#000000" fill-opacity="0.200000" stroke="#000000" stroke-width="2" stroke-opacity="0.200000" points="579.5179,-328.3029 584.392,-324.222 578.0369,-324.3727 579.5179,-328.3029"/>
</g>
<!-- src/components/DateTimeRangePicker/&#45;&gt;src/components/DateTime/ -->
<g id="edge19" class="edge">
<title>src/components/DateTimeRangePicker/&#45;&gt;src/components/DateTime/</title>
<path fill="none" stroke="#000000" stroke-width="2" stroke-opacity="0.200000" d="M259.6283,-266.8658C295.2203,-269.461 342.9303,-274.0544 384.5097,-281.8416 393.7108,-283.5649 403.5388,-286.0024 412.5775,-288.4951"/>
<polygon fill="#000000" fill-opacity="0.200000" stroke="#000000" stroke-width="2" stroke-opacity="0.200000" points="412.0439,-290.5265 418.3887,-290.1341 413.1841,-286.4842 412.0439,-290.5265"/>
</g>
<!-- src/components/DateTimeRangePicker/&#45;&gt;src/components/DateTimeRange/ -->
<g id="edge20" class="edge">
<title>src/components/DateTimeRangePicker/&#45;&gt;src/components/DateTimeRange/</title>
<path fill="none" stroke="#000000" stroke-width="2" stroke-opacity="0.200000" d="M259.5205,-259.0489C266.9605,-258.3795 274.5584,-257.6958 281.8636,-257.0385"/>
<polygon fill="#000000" fill-opacity="0.200000" stroke="#000000" stroke-width="2" stroke-opacity="0.200000" points="282.1335,-259.1228 287.9212,-256.4935 281.7571,-254.9397 282.1335,-259.1228"/>
</g>
<!-- src/components/DateTimeRangePicker/&#45;&gt;src/components/DateTimeRangeControl/ -->
<g id="edge21" class="edge">
<title>src/components/DateTimeRangePicker/&#45;&gt;src/components/DateTimeRangeControl/</title>
<path fill="none" stroke="#000000" stroke-width="2" stroke-opacity="0.200000" d="M226.9922,-254.5116C247.717,-245.188 279.6533,-230.8205 302.161,-220.6947"/>
<polygon fill="#000000" fill-opacity="0.200000" stroke="#000000" stroke-width="2" stroke-opacity="0.200000" points="303.0574,-222.5942 307.6676,-218.2174 301.3342,-218.764 303.0574,-222.5942"/>
</g>
<!-- src/components/index.ts -->
<g id="node12" class="node">
<title>src/components/index.ts</title>
<g id="a_node12"><a xlink:href="src/components/index.ts" xlink:title="index.ts">
<path fill="#ddfeff" stroke="#000000" d="M133.7993,-306.1427C133.7993,-306.1427 92.2007,-306.1427 92.2007,-306.1427 89.1004,-306.1427 86,-303.0423 86,-299.942 86,-299.942 86,-293.7413 86,-293.7413 86,-290.6409 89.1004,-287.5406 92.2007,-287.5406 92.2007,-287.5406 133.7993,-287.5406 133.7993,-287.5406 136.8996,-287.5406 140,-290.6409 140,-293.7413 140,-293.7413 140,-299.942 140,-299.942 140,-303.0423 136.8996,-306.1427 133.7993,-306.1427"/>
<text text-anchor="start" x="97.4957" y="-294.1416" font-family="Helvetica,sans-Serif" font-size="9.00" fill="#000000">index.ts</text>
</a>
</g>
</g>
<!-- src/components/index.ts&#45;&gt;src/components/Calendar/ -->
<g id="edge25" class="edge">
<title>src/components/index.ts&#45;&gt;src/components/Calendar/</title>
<path fill="none" stroke="#000000" stroke-width="2" stroke-opacity="0.200000" d="M133.1019,-306.1447C139.391,-308.8485 146.4104,-311.6582 153,-313.8416 251.4343,-346.4581 281.6021,-355.6147 384.5097,-342.8416 436.8285,-336.3477 452.3108,-337.2873 499.5308,-313.8416 507.045,-310.1107 514.4378,-304.5561 520.4786,-299.3757"/>
<polygon fill="#000000" fill-opacity="0.200000" stroke="#000000" stroke-width="2" stroke-opacity="0.200000" points="522.1262,-300.7203 525.208,-295.1604 519.3316,-297.585 522.1262,-300.7203"/>
</g>
<!-- src/components/index.ts&#45;&gt;src/components/DateTimeFloatingPicker/ -->
<g id="edge26" class="edge">
<title>src/components/index.ts&#45;&gt;src/components/DateTimeFloatingPicker/</title>
<path fill="none" stroke="#000000" stroke-width="2" stroke-opacity="0.200000" d="M140.2943,-300.7678C171.8165,-305.3022 224.6822,-312.9067 266.3735,-318.9038"/>
<polygon fill="#000000" fill-opacity="0.200000" stroke="#000000" stroke-width="2" stroke-opacity="0.200000" points="266.2019,-321.0007 272.4398,-319.7764 266.7999,-316.8434 266.2019,-321.0007"/>
</g>
<!-- src/components/index.ts&#45;&gt;src/components/DateTimePicker/ -->
<g id="edge27" class="edge">
<title>src/components/index.ts&#45;&gt;src/components/DateTimePicker/</title>
<path fill="none" stroke="#000000" stroke-width="2" stroke-opacity="0.200000" d="M140.2943,-296.8416C175.9188,-296.8416 238.8033,-296.8416 282.0109,-296.8416"/>
<polygon fill="#000000" fill-opacity="0.200000" stroke="#000000" stroke-width="2" stroke-opacity="0.200000" points="282.2374,-298.9417 288.2374,-296.8416 282.2374,-294.7417 282.2374,-298.9417"/>
</g>
<!-- src/components/index.ts&#45;&gt;src/components/Presets/ -->
<g id="edge29" class="edge">
<title>src/components/index.ts&#45;&gt;src/components/Presets/</title>
<path fill="none" stroke="#000000" stroke-width="2" stroke-opacity="0.200000" d="M117.7592,-287.533C124.1051,-276.2063 136.4845,-257.5223 153,-248.8416 197.2517,-225.5827 345.748,-227.4004 412.7394,-229.5204"/>
<polygon fill="#000000" fill-opacity="0.200000" stroke="#000000" stroke-width="2" stroke-opacity="0.200000" points="412.8957,-231.6266 418.9617,-229.7257 413.0343,-227.4289 412.8957,-231.6266"/>
</g>
<!-- src/components/index.ts&#45;&gt;src/components/DateTimeRangePicker/ -->
<g id="edge28" class="edge">
<title>src/components/index.ts&#45;&gt;src/components/DateTimeRangePicker/</title>
<path fill="none" stroke="#000000" stroke-width="2" stroke-opacity="0.200000" d="M139.4732,-287.4734C150.2031,-283.6764 162.6962,-279.2554 173.9548,-275.2713"/>
<polygon fill="#000000" fill-opacity="0.200000" stroke="#000000" stroke-width="2" stroke-opacity="0.200000" points="174.7582,-277.2146 179.7139,-273.2333 173.357,-273.2552 174.7582,-277.2146"/>
</g>
<!-- src/index.ts -->
<g id="node13" class="node">
<title>src/index.ts</title>
<g id="a_node13"><a xlink:href="src/index.ts" xlink:title="index.ts">
<path fill="#ddfeff" stroke="#000000" d="M63.7993,-306.1427C63.7993,-306.1427 22.2007,-306.1427 22.2007,-306.1427 19.1004,-306.1427 16,-303.0423 16,-299.942 16,-299.942 16,-293.7413 16,-293.7413 16,-290.6409 19.1004,-287.5406 22.2007,-287.5406 22.2007,-287.5406 63.7993,-287.5406 63.7993,-287.5406 66.8996,-287.5406 70,-290.6409 70,-293.7413 70,-293.7413 70,-299.942 70,-299.942 70,-303.0423 66.8996,-306.1427 63.7993,-306.1427"/>
<text text-anchor="start" x="27.4957" y="-294.1416" font-family="Helvetica,sans-Serif" font-size="9.00" fill="#000000">index.ts</text>
</a>
</g>
</g>
<!-- src/index.ts&#45;&gt;src/components/index.ts -->
<g id="edge30" class="edge">
<title>src/index.ts&#45;&gt;src/components/index.ts</title>
<path fill="none" stroke="#000000" stroke-width="2" stroke-opacity="0.200000" d="M70.2643,-296.8416C73.273,-296.8416 76.3619,-296.8416 79.4361,-296.8416"/>
<polygon fill="#000000" fill-opacity="0.200000" stroke="#000000" stroke-width="2" stroke-opacity="0.200000" points="79.695,-298.9417 85.695,-296.8416 79.695,-294.7417 79.695,-298.9417"/>
</g>
</g>
</svg>
