<svg width="28" height="16" viewBox="0 0 28 16" fill="none" xmlns="http://www.w3.org/2000/svg">
<path d="M11.1867 0.226654C11.4504 0.226654 11.7081 0.30485 11.9274 0.451358C12.1467 0.597867 12.3176 0.806112 12.4185 1.04975C12.5194 1.29338 12.5458 1.56146 12.4944 1.82011C12.4429 2.07875 12.3159 2.31632 12.1295 2.50279C11.943 2.68926 11.7054 2.81625 11.4468 2.8677C11.1881 2.91915 10.92 2.89274 10.6764 2.79183C10.4328 2.69091 10.2245 2.52002 10.078 2.30075C9.93153 2.08148 9.85333 1.8237 9.85333 1.55999C9.85333 1.20637 9.9938 0.867233 10.2438 0.617184C10.4939 0.367136 10.833 0.226654 11.1867 0.226654Z" fill="#323F48"/>
<path d="M15.5911 0.226654H22.2866C22.6403 0.226654 22.9794 0.367136 23.2295 0.617184C23.4795 0.867233 23.62 1.20637 23.62 1.55999C23.62 1.91361 23.4795 2.25274 23.2295 2.50279C22.9794 2.75284 22.6403 2.89332 22.2866 2.89332H15.5911C15.2375 2.89332 14.8983 2.75284 14.6483 2.50279C14.3982 2.25274 14.2578 1.91361 14.2578 1.55999C14.2578 1.20637 14.3982 0.867233 14.6483 0.617184C14.8983 0.367136 15.2375 0.226654 15.5911 0.226654Z" fill="#CCDE00"/>
<path d="M8.94887 11.5022H25.7555C26.1092 11.5022 26.4483 11.3618 26.6983 11.1117C26.9484 10.8617 27.0889 10.5225 27.0889 10.1689C27.0889 9.81528 26.9484 9.47615 26.6983 9.2261C26.4483 8.97605 26.1092 8.83557 25.7555 8.83557H8.94887C8.59525 8.83557 8.2561 8.97605 8.00606 9.2261C7.75601 9.47615 7.61554 9.81528 7.61554 10.1689C7.61554 10.5225 7.75601 10.8617 8.00606 11.1117C8.2561 11.3618 8.59525 11.5022 8.94887 11.5022" fill="#CCDE00"/>
<path d="M22.1845 7.18888H25.7556C26.1092 7.18888 26.4483 7.0484 26.6984 6.79835C26.9484 6.54831 27.0889 6.20917 27.0889 5.85555C27.0889 5.50193 26.9484 5.16278 26.6984 4.91273C26.4483 4.66268 26.1092 4.52222 25.7556 4.52222H22.1845C21.8308 4.52222 21.4917 4.66268 21.2417 4.91273C20.9916 5.16278 20.8511 5.50193 20.8511 5.85555C20.8511 6.20917 20.9916 6.54831 21.2417 6.79835C21.4917 7.0484 21.8308 7.18888 22.1845 7.18888Z" fill="#CCDE00"/>
<path d="M22.1845 15.8155C22.4482 15.8155 22.706 15.7373 22.9252 15.5908C23.1445 15.4443 23.3154 15.2361 23.4163 14.9924C23.5172 14.7488 23.5436 14.4807 23.4922 14.2221C23.4407 13.9634 23.3137 13.7259 23.1273 13.5394C22.9408 13.3529 22.7032 13.2259 22.4446 13.1745C22.1859 13.123 21.9178 13.1495 21.6742 13.2504C21.4306 13.3513 21.2223 13.5222 21.0758 13.7414C20.9293 13.9607 20.8511 14.2185 20.8511 14.4822C20.8511 14.8358 20.9916 15.175 21.2417 15.425C21.4917 15.6751 21.8308 15.8155 22.1845 15.8155Z" fill="#CCDE00"/>
<path d="M1.32888 7.18888H17.8867C18.2403 7.18888 18.5794 7.0484 18.8295 6.79835C19.0795 6.54831 19.22 6.20917 19.22 5.85555C19.22 5.50193 19.0795 5.16278 18.8295 4.91273C18.5794 4.66268 18.2403 4.52222 17.8867 4.52222H1.32888C0.975256 4.52222 0.636123 4.66268 0.386074 4.91273C0.136026 5.16278 -0.00445557 5.50193 -0.00445557 5.85555C-0.00445557 6.20917 0.136026 6.54831 0.386074 6.79835C0.636123 7.0484 0.975256 7.18888 1.32888 7.18888Z" fill="white"/>
<path d="M14.1644 15.8155H17.8867C18.2403 15.8155 18.5794 15.675 18.8295 15.425C19.0795 15.175 19.22 14.8358 19.22 14.4822C19.22 14.1286 19.0795 13.7894 18.8295 13.5394C18.5794 13.2893 18.2403 13.1489 17.8867 13.1489H14.1644C13.8108 13.1489 13.4717 13.2893 13.2216 13.5394C12.9716 13.7894 12.8311 14.1286 12.8311 14.4822C12.8311 14.8358 12.9716 15.175 13.2216 15.425C13.4717 15.675 13.8108 15.8155 14.1644 15.8155Z" fill="white"/>
<path d="M4.97109 8.84219C5.2348 8.84219 5.49259 8.92039 5.71185 9.0669C5.93112 9.21341 6.10201 9.42164 6.20293 9.66527C6.30384 9.90891 6.33025 10.177 6.2788 10.4356C6.22735 10.6943 6.10038 10.9319 5.91391 11.1183C5.72744 11.3048 5.48985 11.4318 5.23121 11.4832C4.97257 11.5347 4.70448 11.5083 4.46085 11.4074C4.21721 11.3064 4.00897 11.1355 3.86246 10.9163C3.71595 10.697 3.63776 10.4392 3.63776 10.1755C3.63776 9.82191 3.77824 9.48276 4.02829 9.23271C4.27833 8.98266 4.61747 8.84219 4.97109 8.84219" fill="white"/>
<path d="M1.32888 7.18888H17.8867C18.2403 7.18888 18.5794 7.0484 18.8295 6.79835C19.0795 6.54831 19.22 6.20917 19.22 5.85555C19.22 5.50193 19.0795 5.16278 18.8295 4.91273C18.5794 4.66268 18.2403 4.52222 17.8867 4.52222H1.32888C0.975256 4.52222 0.636123 4.66268 0.386074 4.91273C0.136026 5.16278 -0.00445557 5.50193 -0.00445557 5.85555C-0.00445557 6.20917 0.136026 6.54831 0.386074 6.79835C0.636123 7.0484 0.975256 7.18888 1.32888 7.18888Z" fill="#323F48"/>
<path d="M14.1644 15.8155H17.8867C18.2403 15.8155 18.5794 15.675 18.8295 15.425C19.0795 15.175 19.22 14.8358 19.22 14.4822C19.22 14.1286 19.0795 13.7894 18.8295 13.5394C18.5794 13.2893 18.2403 13.1489 17.8867 13.1489H14.1644C13.8108 13.1489 13.4717 13.2893 13.2216 13.5394C12.9716 13.7894 12.8311 14.1286 12.8311 14.4822C12.8311 14.8358 12.9716 15.175 13.2216 15.425C13.4717 15.675 13.8108 15.8155 14.1644 15.8155Z" fill="#323F48"/>
<path d="M4.97109 8.84219C5.2348 8.84219 5.49259 8.92039 5.71185 9.0669C5.93112 9.21341 6.10201 9.42164 6.20293 9.66527C6.30384 9.90891 6.33025 10.177 6.2788 10.4356C6.22735 10.6943 6.10038 10.9319 5.91391 11.1183C5.72744 11.3048 5.48985 11.4318 5.23121 11.4832C4.97257 11.5347 4.70448 11.5083 4.46085 11.4074C4.21721 11.3064 4.00897 11.1355 3.86246 10.9163C3.71595 10.697 3.63776 10.4392 3.63776 10.1755C3.63776 9.82191 3.77824 9.48276 4.02829 9.23271C4.27833 8.98266 4.61747 8.84219 4.97109 8.84219" fill="#323F48"/>
</svg>
