<svg width="90" height="16" viewBox="0 0 90 16" fill="none" xmlns="http://www.w3.org/2000/svg">
<g clip-path="url(#clip0_1215_57820)">
<path d="M11.1867 0.226654C11.4504 0.226654 11.7081 0.30485 11.9274 0.451358C12.1467 0.597867 12.3176 0.806112 12.4185 1.04975C12.5194 1.29338 12.5458 1.56146 12.4944 1.82011C12.4429 2.07875 12.3159 2.31632 12.1295 2.50279C11.943 2.68926 11.7054 2.81625 11.4468 2.8677C11.1881 2.91915 10.92 2.89274 10.6764 2.79183C10.4328 2.69091 10.2245 2.52002 10.078 2.30075C9.93153 2.08148 9.85333 1.8237 9.85333 1.55999C9.85333 1.20637 9.9938 0.867233 10.2438 0.617184C10.4939 0.367136 10.833 0.226654 11.1867 0.226654Z" fill="white"/>
<path d="M37.1911 13.0689C40.08 13.0689 42.1911 10.8911 42.1911 7.98002C42.1911 5.06891 40.08 2.91335 37.1911 2.91335H34.6578V13.0689H37.1911ZM31.7911 0.646684C31.7899 0.538129 31.8309 0.433341 31.9056 0.35453C31.9802 0.275718 32.0826 0.229069 32.1911 0.224457H37.4578C38.4792 0.224457 39.4905 0.425641 40.4342 0.816511C41.3778 1.20738 42.2352 1.78029 42.9575 2.50252C43.6797 3.22475 44.2526 4.08216 44.6435 5.02581C45.0344 5.96945 45.2355 6.98084 45.2355 8.00224C45.2355 9.02363 45.0344 10.035 44.6435 10.9787C44.2526 11.9223 43.6797 12.7797 42.9575 13.502C42.2352 14.2242 41.3778 14.7971 40.4342 15.188C39.4905 15.5788 38.4792 15.78 37.4578 15.78H32.1911C32.0826 15.7754 31.9802 15.7288 31.9056 15.6499C31.8309 15.5711 31.7899 15.4664 31.7911 15.3578V0.646684Z" fill="white"/>
<path d="M15.5911 0.226654H22.2867C22.6403 0.226654 22.9794 0.367136 23.2295 0.617184C23.4795 0.867233 23.62 1.20637 23.62 1.55999C23.62 1.91361 23.4795 2.25274 23.2295 2.50279C22.9794 2.75284 22.6403 2.89332 22.2867 2.89332H15.5911C15.2375 2.89332 14.8984 2.75284 14.6483 2.50279C14.3983 2.25274 14.2578 1.91361 14.2578 1.55999C14.2578 1.20637 14.3983 0.867233 14.6483 0.617184C14.8984 0.367136 15.2375 0.226654 15.5911 0.226654Z" fill="#CCDE00"/>
<path d="M8.9489 11.5022H25.7556C26.1092 11.5022 26.4483 11.3618 26.6984 11.1117C26.9484 10.8617 27.0889 10.5225 27.0889 10.1689C27.0889 9.81528 26.9484 9.47615 26.6984 9.2261C26.4483 8.97605 26.1092 8.83557 25.7556 8.83557H8.9489C8.59528 8.83557 8.25614 8.97605 8.00609 9.2261C7.75604 9.47615 7.61557 9.81528 7.61557 10.1689C7.61557 10.5225 7.75604 10.8617 8.00609 11.1117C8.25614 11.3618 8.59528 11.5022 8.9489 11.5022" fill="#CCDE00"/>
<path d="M22.1844 7.18888H25.7555C26.1092 7.18888 26.4483 7.0484 26.6984 6.79835C26.9484 6.54831 27.0889 6.20917 27.0889 5.85555C27.0889 5.50193 26.9484 5.16278 26.6984 4.91273C26.4483 4.66268 26.1092 4.52222 25.7555 4.52222H22.1844C21.8308 4.52222 21.4917 4.66268 21.2416 4.91273C20.9916 5.16278 20.8511 5.50193 20.8511 5.85555C20.8511 6.20917 20.9916 6.54831 21.2416 6.79835C21.4917 7.0484 21.8308 7.18888 22.1844 7.18888Z" fill="#CCDE00"/>
<path d="M22.1844 15.8155C22.4481 15.8155 22.7059 15.7373 22.9252 15.5908C23.1445 15.4443 23.3154 15.2361 23.4163 14.9924C23.5172 14.7488 23.5436 14.4807 23.4921 14.2221C23.4407 13.9634 23.3137 13.7259 23.1272 13.5394C22.9408 13.3529 22.7032 13.2259 22.4446 13.1745C22.1859 13.123 21.9178 13.1495 21.6742 13.2504C21.4305 13.3513 21.2223 13.5222 21.0758 13.7414C20.9293 13.9607 20.8511 14.2185 20.8511 14.4822C20.8511 14.8358 20.9916 15.175 21.2416 15.425C21.4917 15.6751 21.8308 15.8155 22.1844 15.8155Z" fill="#CCDE00"/>
<path d="M1.32888 7.18888H17.8867C18.2403 7.18888 18.5794 7.0484 18.8295 6.79835C19.0795 6.54831 19.22 6.20917 19.22 5.85555C19.22 5.50193 19.0795 5.16278 18.8295 4.91273C18.5794 4.66268 18.2403 4.52222 17.8867 4.52222H1.32888C0.975256 4.52222 0.636123 4.66268 0.386074 4.91273C0.136026 5.16278 -0.00445557 5.50193 -0.00445557 5.85555C-0.00445557 6.20917 0.136026 6.54831 0.386074 6.79835C0.636123 7.0484 0.975256 7.18888 1.32888 7.18888Z" fill="white"/>
<path d="M14.1644 15.8155H17.8867C18.2403 15.8155 18.5794 15.675 18.8295 15.425C19.0795 15.175 19.22 14.8358 19.22 14.4822C19.22 14.1286 19.0795 13.7894 18.8295 13.5394C18.5794 13.2893 18.2403 13.1489 17.8867 13.1489H14.1644C13.8108 13.1489 13.4717 13.2893 13.2216 13.5394C12.9716 13.7894 12.8311 14.1286 12.8311 14.4822C12.8311 14.8358 12.9716 15.175 13.2216 15.425C13.4717 15.675 13.8108 15.8155 14.1644 15.8155Z" fill="white"/>
<path d="M4.97112 8.84219C5.23483 8.84219 5.49262 8.92039 5.71188 9.0669C5.93115 9.21341 6.10204 9.42164 6.20296 9.66527C6.30388 9.90891 6.33028 10.177 6.27883 10.4356C6.22738 10.6943 6.10041 10.9319 5.91394 11.1183C5.72747 11.3048 5.48988 11.4318 5.23124 11.4832C4.9726 11.5347 4.70451 11.5083 4.46088 11.4074C4.21724 11.3064 4.009 11.1355 3.86249 10.9163C3.71598 10.697 3.63779 10.4392 3.63779 10.1755C3.63779 9.82191 3.77827 9.48276 4.02832 9.23271C4.27837 8.98266 4.6175 8.84219 4.97112 8.84219" fill="white"/>
<path d="M1.32888 7.18888H17.8867C18.2403 7.18888 18.5794 7.0484 18.8295 6.79835C19.0795 6.54831 19.22 6.20917 19.22 5.85555C19.22 5.50193 19.0795 5.16278 18.8295 4.91273C18.5794 4.66268 18.2403 4.52222 17.8867 4.52222H1.32888C0.975256 4.52222 0.636123 4.66268 0.386074 4.91273C0.136026 5.16278 -0.00445557 5.50193 -0.00445557 5.85555C-0.00445557 6.20917 0.136026 6.54831 0.386074 6.79835C0.636123 7.0484 0.975256 7.18888 1.32888 7.18888Z" fill="white"/>
<path d="M14.1644 15.8155H17.8867C18.2403 15.8155 18.5794 15.675 18.8295 15.425C19.0795 15.175 19.22 14.8358 19.22 14.4822C19.22 14.1286 19.0795 13.7894 18.8295 13.5394C18.5794 13.2893 18.2403 13.1489 17.8867 13.1489H14.1644C13.8108 13.1489 13.4717 13.2893 13.2216 13.5394C12.9716 13.7894 12.8311 14.1286 12.8311 14.4822C12.8311 14.8358 12.9716 15.175 13.2216 15.425C13.4717 15.675 13.8108 15.8155 14.1644 15.8155Z" fill="white"/>
<path d="M4.97112 8.84219C5.23483 8.84219 5.49262 8.92039 5.71188 9.0669C5.93115 9.21341 6.10204 9.42164 6.20296 9.66527C6.30388 9.90891 6.33028 10.177 6.27883 10.4356C6.22738 10.6943 6.10041 10.9319 5.91394 11.1183C5.72747 11.3048 5.48988 11.4318 5.23124 11.4832C4.9726 11.5347 4.70451 11.5083 4.46088 11.4074C4.21724 11.3064 4.009 11.1355 3.86249 10.9163C3.71598 10.697 3.63779 10.4392 3.63779 10.1755C3.63779 9.82191 3.77827 9.48276 4.02832 9.23271C4.27837 8.98266 4.6175 8.84219 4.97112 8.84219" fill="white"/>
<path d="M81.5222 13.1155C80.1667 13.1155 78.8666 12.577 77.9081 11.6185C76.9496 10.66 76.4111 9.35998 76.4111 8.00443C76.4111 6.64888 76.9496 5.34886 77.9081 4.39034C78.8666 3.43182 80.1667 2.89332 81.5222 2.89332C82.8778 2.89332 84.1778 3.43182 85.1363 4.39034C86.0948 5.34886 86.6333 6.64888 86.6333 8.00443C86.6333 9.35998 86.0948 10.66 85.1363 11.6185C84.1778 12.577 82.8778 13.1155 81.5222 13.1155ZM81.5222 0.00443464C79.941 0.00444202 78.3953 0.473017 77.0802 1.35099C75.7651 2.22897 74.7398 3.47696 74.1336 4.93735C73.5273 6.39774 73.3675 8.00501 73.6742 9.55619C73.9809 11.1074 74.7404 12.5329 75.8568 13.6527C76.9732 14.7724 78.3963 15.5363 79.9466 15.8477C81.4968 16.1592 83.1046 16.0042 84.5668 15.4025C86.029 14.8007 87.2801 13.7791 88.1621 12.4668C89.0441 11.1544 89.5174 9.61008 89.5222 8.02888C89.5299 6.97501 89.3283 5.93011 88.9293 4.95468C88.5303 3.97926 87.9417 3.09269 87.1976 2.34634C86.4536 1.59999 85.5688 1.0087 84.5946 0.606702C83.6204 0.204704 82.5761 -2.71994e-06 81.5222 0.00443464" fill="white"/>
<path d="M66.0111 15.7555C66.0423 15.8295 66.095 15.8923 66.1624 15.9359C66.2297 15.9795 66.3087 16.0018 66.3889 16H66.6111C66.6914 16.0018 66.7703 15.9795 66.8376 15.9359C66.905 15.8923 66.9577 15.8295 66.9889 15.7555L73.8778 0.802219C73.9119 0.740063 73.9285 0.669788 73.9258 0.598932C73.9231 0.528075 73.9011 0.459292 73.8623 0.399944C73.8235 0.340595 73.7693 0.292919 73.7055 0.262004C73.6417 0.231089 73.5707 0.218099 73.5 0.224434H71.2356C71.1556 0.223767 71.0772 0.246578 71.01 0.290026C70.9429 0.333474 70.89 0.39566 70.8578 0.468886L66.5911 10.0244H66.4356L62.1689 0.468886C62.1367 0.39566 62.0838 0.333474 62.0167 0.290026C61.9495 0.246578 61.8711 0.223767 61.7911 0.224434H59.5245C59.4541 0.218864 59.3835 0.23235 59.3201 0.263469C59.2567 0.294587 59.2029 0.342187 59.1642 0.401286C59.1256 0.460386 59.1036 0.528809 59.1005 0.599352C59.0974 0.669896 59.1133 0.73997 59.1467 0.802219L66.0111 15.7555Z" fill="white"/>
<path d="M56.7245 0.226654H47.68C47.568 0.226654 47.4606 0.271143 47.3815 0.350325C47.3023 0.429507 47.2578 0.536901 47.2578 0.648882V2.47332C47.2578 2.58491 47.302 2.69197 47.3807 2.77109C47.4594 2.85021 47.5662 2.89496 47.6778 2.89555H56.7245C56.8363 2.89496 56.9433 2.85029 57.0224 2.77124C57.1014 2.69218 57.1461 2.58512 57.1467 2.47332V0.651093C57.1461 0.539292 57.1014 0.432243 57.0224 0.353187C56.9433 0.274131 56.8363 0.229462 56.7245 0.228878V0.226654ZM56.7245 13.1178H50.6356C50.5713 13.1181 50.5076 13.1056 50.4481 13.0811C50.3887 13.0567 50.3347 13.0207 50.2892 12.9752C50.2438 12.9298 50.2078 12.8758 50.1833 12.8163C50.1588 12.7569 50.1464 12.6932 50.1467 12.6289V9.71332C50.1464 9.64904 50.1588 9.58534 50.1833 9.52589C50.2078 9.46644 50.2438 9.41242 50.2892 9.36697C50.3347 9.32151 50.3887 9.28552 50.4481 9.26105C50.5076 9.23659 50.5713 9.22414 50.6356 9.22443H55.6356C55.7475 9.22443 55.8549 9.17995 55.9341 9.10077C56.0133 9.02159 56.0578 8.9142 56.0578 8.80222V6.95776C56.0524 6.84752 56.0062 6.74323 55.9281 6.66518C55.8501 6.58714 55.7458 6.54093 55.6356 6.53555H47.7489C47.6844 6.53555 47.6205 6.54825 47.561 6.57293C47.5014 6.59761 47.4472 6.63378 47.4016 6.67939C47.356 6.72499 47.3199 6.77913 47.2952 6.83871C47.2705 6.8983 47.2578 6.96216 47.2578 7.02665V15.3667C47.2578 15.4786 47.3023 15.586 47.3815 15.6652C47.4606 15.7444 47.568 15.7889 47.68 15.7889H56.7245C56.8363 15.7883 56.9433 15.7436 57.0224 15.6646C57.1014 15.5855 57.1461 15.4785 57.1467 15.3667V13.5444C57.1461 13.4326 57.1014 13.3256 57.0224 13.2465C56.9433 13.1675 56.8363 13.1228 56.7245 13.1222" fill="white"/>
</g>
<defs>
<clipPath id="clip0_1215_57820">
<rect width="89.5222" height="16" fill="white"/>
</clipPath>
</defs>
</svg>
