<svg width="28" height="16" viewBox="0 0 28 16" fill="none" xmlns="http://www.w3.org/2000/svg">
<path d="M11.1866 0.226562C11.4503 0.226562 11.7081 0.304758 11.9274 0.451267C12.1466 0.597775 12.3175 0.806021 12.4184 1.04966C12.5194 1.29329 12.5458 1.56137 12.4943 1.82001C12.4429 2.07866 12.3159 2.31623 12.1294 2.5027C11.9429 2.68917 11.7054 2.81616 11.4467 2.86761C11.1881 2.91905 10.92 2.89265 10.6764 2.79173C10.4327 2.69082 10.2245 2.51992 10.078 2.30066C9.93147 2.08139 9.85327 1.8236 9.85327 1.5599C9.85327 1.20627 9.99374 0.867141 10.2438 0.617093C10.4938 0.367044 10.833 0.226562 11.1866 0.226562Z" fill="white"/>
<path d="M15.5911 0.226562H22.2867C22.6403 0.226562 22.9795 0.367044 23.2295 0.617093C23.4796 0.867141 23.62 1.20627 23.62 1.5599C23.62 1.91352 23.4796 2.25265 23.2295 2.5027C22.9795 2.75275 22.6403 2.89323 22.2867 2.89323H15.5911C15.2375 2.89323 14.8984 2.75275 14.6483 2.5027C14.3983 2.25265 14.2578 1.91352 14.2578 1.5599C14.2578 1.20627 14.3983 0.867141 14.6483 0.617093C14.8984 0.367044 15.2375 0.226562 15.5911 0.226562Z" fill="#CCDE00"/>
<path d="M8.94881 11.5021H25.7555C26.1091 11.5021 26.4482 11.3616 26.6983 11.1116C26.9483 10.8616 27.0888 10.5224 27.0888 10.1688C27.0888 9.81516 26.9483 9.47603 26.6983 9.22598C26.4482 8.97593 26.1091 8.83545 25.7555 8.83545H8.94881C8.59519 8.83545 8.25604 8.97593 8.00599 9.22598C7.75595 9.47603 7.61548 9.81516 7.61548 10.1688C7.61548 10.5224 7.75595 10.8616 8.00599 11.1116C8.25604 11.3616 8.59519 11.5021 8.94881 11.5021" fill="#CCDE00"/>
<path d="M22.1844 7.18888H25.7555C26.1091 7.18888 26.4483 7.0484 26.6983 6.79835C26.9484 6.54831 27.0889 6.20917 27.0889 5.85555C27.0889 5.50193 26.9484 5.16278 26.6983 4.91273C26.4483 4.66268 26.1091 4.52222 25.7555 4.52222H22.1844C21.8308 4.52222 21.4916 4.66268 21.2416 4.91273C20.9915 5.16278 20.8511 5.50193 20.8511 5.85555C20.8511 6.20917 20.9915 6.54831 21.2416 6.79835C21.4916 7.0484 21.8308 7.18888 22.1844 7.18888Z" fill="#CCDE00"/>
<path d="M22.1844 15.8156C22.4481 15.8156 22.7059 15.7374 22.9252 15.5909C23.1444 15.4444 23.3153 15.2361 23.4162 14.9925C23.5172 14.7489 23.5436 14.4808 23.4921 14.2221C23.4407 13.9635 23.3137 13.7259 23.1272 13.5395C22.9407 13.353 22.7032 13.226 22.4445 13.1745C22.1859 13.1231 21.9178 13.1495 21.6742 13.2504C21.4305 13.3513 21.2223 13.5222 21.0758 13.7415C20.9293 13.9608 20.8511 14.2186 20.8511 14.4823C20.8511 14.8359 20.9915 15.175 21.2416 15.4251C21.4916 15.6751 21.8308 15.8156 22.1844 15.8156Z" fill="#CCDE00"/>
<path d="M1.32894 7.18888H17.8867C18.2403 7.18888 18.5795 7.0484 18.8295 6.79835C19.0796 6.54831 19.2201 6.20917 19.2201 5.85555C19.2201 5.50193 19.0796 5.16278 18.8295 4.91273C18.5795 4.66268 18.2403 4.52222 17.8867 4.52222H1.32894C0.975317 4.52222 0.636184 4.66268 0.386136 4.91273C0.136087 5.16278 -0.00439453 5.50193 -0.00439453 5.85555C-0.00439453 6.20917 0.136087 6.54831 0.386136 6.79835C0.636184 7.0484 0.975317 7.18888 1.32894 7.18888Z" fill="white"/>
<path d="M14.1644 15.8156H17.8866C18.2402 15.8156 18.5794 15.6751 18.8294 15.4251C19.0795 15.175 19.2199 14.8359 19.2199 14.4823C19.2199 14.1286 19.0795 13.7895 18.8294 13.5394C18.5794 13.2894 18.2402 13.1489 17.8866 13.1489H14.1644C13.8108 13.1489 13.4716 13.2894 13.2216 13.5394C12.9715 13.7895 12.8311 14.1286 12.8311 14.4823C12.8311 14.8359 12.9715 15.175 13.2216 15.4251C13.4716 15.6751 13.8108 15.8156 14.1644 15.8156Z" fill="white"/>
<path d="M4.97103 8.84229C5.23474 8.84229 5.49253 8.92048 5.71179 9.06699C5.93106 9.2135 6.10195 9.42173 6.20287 9.66536C6.30378 9.909 6.33019 10.1771 6.27874 10.4357C6.22729 10.6944 6.10032 10.932 5.91385 11.1184C5.72738 11.3049 5.48979 11.4319 5.23115 11.4833C4.97251 11.5348 4.70442 11.5084 4.46079 11.4075C4.21715 11.3065 4.00891 11.1356 3.8624 10.9164C3.71589 10.6971 3.6377 10.4393 3.6377 10.1756C3.6377 9.822 3.77818 9.48285 4.02823 9.2328C4.27827 8.98275 4.61741 8.84229 4.97103 8.84229" fill="white"/>
<path d="M1.32894 7.18888H17.8867C18.2403 7.18888 18.5795 7.0484 18.8295 6.79835C19.0796 6.54831 19.2201 6.20917 19.2201 5.85555C19.2201 5.50193 19.0796 5.16278 18.8295 4.91273C18.5795 4.66268 18.2403 4.52222 17.8867 4.52222H1.32894C0.975317 4.52222 0.636184 4.66268 0.386136 4.91273C0.136087 5.16278 -0.00439453 5.50193 -0.00439453 5.85555C-0.00439453 6.20917 0.136087 6.54831 0.386136 6.79835C0.636184 7.0484 0.975317 7.18888 1.32894 7.18888Z" fill="white"/>
<path d="M14.1644 15.8156H17.8866C18.2402 15.8156 18.5794 15.6751 18.8294 15.4251C19.0795 15.175 19.2199 14.8359 19.2199 14.4823C19.2199 14.1286 19.0795 13.7895 18.8294 13.5394C18.5794 13.2894 18.2402 13.1489 17.8866 13.1489H14.1644C13.8108 13.1489 13.4716 13.2894 13.2216 13.5394C12.9715 13.7895 12.8311 14.1286 12.8311 14.4823C12.8311 14.8359 12.9715 15.175 13.2216 15.4251C13.4716 15.6751 13.8108 15.8156 14.1644 15.8156Z" fill="white"/>
<path d="M4.97103 8.84229C5.23474 8.84229 5.49253 8.92048 5.71179 9.06699C5.93106 9.2135 6.10195 9.42173 6.20287 9.66536C6.30378 9.909 6.33019 10.1771 6.27874 10.4357C6.22729 10.6944 6.10032 10.932 5.91385 11.1184C5.72738 11.3049 5.48979 11.4319 5.23115 11.4833C4.97251 11.5348 4.70442 11.5084 4.46079 11.4075C4.21715 11.3065 4.00891 11.1356 3.8624 10.9164C3.71589 10.6971 3.6377 10.4393 3.6377 10.1756C3.6377 9.822 3.77818 9.48285 4.02823 9.2328C4.27827 8.98275 4.61741 8.84229 4.97103 8.84229" fill="white"/>
</svg>
